<svg width="50" height="50" viewBox="0 0 50 50" fill="none" xmlns="http://www.w3.org/2000/svg">
<circle cx="25" cy="25" r="25" fill="#D89E52"/>
<path d="M36 25.3776V33.4491C36 34.0607 35.7542 34.6473 35.3166 35.0798C34.879 35.5123 34.2855 35.7552 33.6667 35.7552H17.3333C16.7145 35.7552 16.121 35.5123 15.6834 35.0798C15.2458 34.6473 15 34.0607 15 33.4491V25.3776H36ZM30.1667 15C30.4761 15 30.7728 15.1215 30.9916 15.3377C31.2104 15.554 31.3333 15.8473 31.3333 16.1531V17.3061H33.6667C34.2855 17.3061 34.879 17.5491 35.3166 17.9816C35.7542 18.4141 36 19.0007 36 19.6123V23.0715H15V19.6123C15 19.0007 15.2458 18.4141 15.6834 17.9816C16.121 17.5491 16.7145 17.3061 17.3333 17.3061H19.6667V16.1531C19.6667 15.8473 19.7896 15.554 20.0084 15.3377C20.2272 15.1215 20.5239 15 20.8333 15C21.1428 15 21.4395 15.1215 21.6583 15.3377C21.8771 15.554 22 15.8473 22 16.1531V17.3061H29V16.1531C29 15.8473 29.1229 15.554 29.3417 15.3377C29.5605 15.1215 29.8572 15 30.1667 15Z" fill="white"/>
</svg>
