<svg width="86" height="90" viewBox="0 0 86 90" fill="none" xmlns="http://www.w3.org/2000/svg">
<path fill-rule="evenodd" clip-rule="evenodd" d="M16.1774 20.4112C16.1502 20.3908 16.1166 20.3611 16.0996 20.3451C15.7507 20.0116 15.7153 19.9032 15.5024 19.4253C14.9732 18.2381 14.9091 16.7995 15.5612 15.7572C16.5608 14.1597 18.6449 15.0523 17.9739 17.5618C17.2382 17.9381 15.8693 17.4977 16.1774 20.4112ZM18.5818 8.34679C18.0351 8.49507 18.2917 9.2593 18.8029 9.07505C19.2601 8.91024 19.0351 8.22379 18.5818 8.34679ZM22.026 17.2891C21.6193 16.8715 21.1494 16.0771 21.0935 15.3343C20.9186 13.01 24.686 13.1544 24.3901 17.5774C23.2598 17.0737 23.5932 16.6926 22.026 17.2891ZM18.8247 10.5369L20.5916 13.2642C19.5886 14.9706 19.5624 15.4665 20.4915 17.3795C20.6927 17.7937 21.0357 18.1238 21.1285 18.3902C20.5002 18.5808 19.7495 18.3125 19.2038 18.1015C19.194 18.0738 19.1872 18.0334 19.1853 18.0154L19.2018 17.4554C19.3053 16.765 19.3695 16.2526 19.162 15.5283C18.833 14.38 18.211 14.1607 17.8898 13.7494L18.8252 10.5364L18.8247 10.5369ZM49.8849 9.53398C51.2528 9.16304 51.9312 11.2336 50.5521 11.7309C49.0103 12.2866 48.2367 9.98124 49.8849 9.53398ZM25.4232 18.1063C25.9392 16.0514 25.1423 14.1223 24.0028 13.2492C23.149 12.5948 22.1981 12.8875 21.7471 12.1971C19.197 8.2904 19.4185 9.3964 20.4021 5.48529C20.7126 4.25046 21.8224 1.14782 20.6761 0.43026C20.146 0.820156 18.9355 5.46633 18.4671 6.49746L17.9437 5.81004C17.7591 5.52272 17.7056 5.425 17.5249 5.12505C17.1075 4.43131 15.2979 1.16873 14.756 0.975725C14.0995 2.44294 16.155 5.57328 16.7736 6.73422C18.0735 9.17471 17.8913 8.81787 16.7036 12.7319C16.4349 13.6162 16.6346 13.5982 15.8377 13.9507C12.9756 15.2166 13.5538 20.3441 15.8333 21.9217C16.4427 22.3432 16.6774 22.1117 17.2552 21.9674C17.8811 22.7924 19.0624 23.243 20.0308 23.947C19.0677 25.1585 17.2897 26.4366 18.0992 28.369C18.3986 29.0842 18.7256 29.0778 19.0818 29.5971C19.4579 30.145 19.4113 30.5421 19.9336 30.9539C20.9201 31.7308 20.6509 30.7979 21.2403 31.8557C21.8467 32.9447 22.8657 33.2393 24.4095 33.1251C25.1758 34.3458 27.364 34.2996 28.2392 33.1319C29.4511 33.1265 31.9245 33.7911 33.1111 34.0984C35.8858 34.8169 35.3896 34.48 37.6886 33.7955C37.2658 34.6827 34.7924 36.4445 33.4561 37.1028C31.5551 38.0396 29.9637 38.501 27.6366 38.7815C23.3468 39.2992 17.5147 37.306 17.8849 43.714C17.1055 43.5225 16.0418 43.0927 15.2123 42.7913C14.6239 42.5779 14.7497 42.469 14.5111 41.7801C14.3488 41.3114 14.117 40.9249 14.1632 40.3994C14.7249 40.0683 15.6545 39.7426 16.2891 39.4533C16.9942 39.132 17.9812 38.9988 17.9486 38.2093C17.2926 37.9161 14.6287 39.2292 13.651 39.3493L13.444 38.5578C13.8376 38.2239 15.0597 37.869 15.6215 37.6799C16.0413 37.5384 16.3659 37.4397 16.7921 37.255C17.3203 37.026 17.3791 36.973 17.2843 36.4081C15.8727 36.1786 14.3814 37.5068 12.9955 37.4869L12.7948 36.7805C13.4518 36.552 14.2939 36.2617 15.0301 35.9895C15.689 35.7454 17.0467 35.5408 16.6633 34.85L15.4888 35.0843C15.1166 35.2019 14.7016 35.3035 14.3459 35.41C13.0912 35.7863 12.4858 36.2583 12.3133 35.4888L14.5417 34.637C14.9145 34.5043 16.8849 34.095 16.1613 33.4921C15.6079 33.2918 12.8983 34.5398 11.9692 34.6268L11.735 33.866C12.6277 33.3657 15.0661 32.8878 15.7459 32.2942C15.672 31.7191 15.4786 31.6433 14.9319 31.8047C13.7667 32.1494 12.5625 32.8314 11.3574 32.917L11.165 32.1732C11.2569 32.1012 11.2724 32.0867 11.4211 32.0103C11.5265 31.9564 11.5683 31.9423 11.6942 31.8975L13.3536 31.3521C14.0573 31.1095 15.0573 31.075 15.1166 30.3501C14.326 29.4843 11.8638 31.2733 10.769 31.2723L10.5697 30.5421C11.251 30.3569 12.0543 30.0438 12.8026 29.8217C13.6943 29.5567 14.7245 29.407 14.5 28.651C13.6841 28.3511 11.2228 29.5941 10.2106 29.7711L10.0425 28.9014C11.5805 28.1678 14.1418 27.9801 13.963 26.8464C12.9829 26.6442 10.8764 27.9359 9.63676 27.9806L9.45939 27.0905C10.1509 26.9033 10.9332 26.5853 11.6548 26.3321C12.0669 26.1872 12.3099 26.1006 12.7375 25.9475C13.7822 25.5732 13.5053 25.1692 12.9348 25.0778C11.5781 24.8605 8.16196 26.069 7.25327 26.7166C5.17154 28.2003 6.37471 30.2879 7.1245 32.4707C7.79751 34.4299 8.45838 36.4732 9.17901 38.3843C9.90305 40.3046 10.6796 42.3776 11.2831 44.3285L11.0377 44.6265C9.9322 45.9484 10.9609 46.3616 10.9152 46.9892C10.8769 47.5206 10.5012 47.8089 10.8968 48.5833C11.1349 49.0505 11.5329 49.139 11.8205 49.4856C11.1111 51.2902 12.4629 51.668 13.7856 52.0642C14.033 53.0156 13.6812 53.95 14.3824 54.5557C14.9718 55.0652 16.0705 55.0443 16.8834 54.7667C17.6366 54.5095 18.3373 54.1415 18.5584 53.4847C18.8767 52.5406 18.2222 51.9135 18.0958 51.1074L20.1873 50.3106C20.8758 51.5994 20.6582 51.7214 21.6699 52.668C22.355 53.3092 23.5825 53.5338 24.5373 52.9752C25.2764 52.543 24.8906 52.4093 25.7395 52.6315C26.3829 52.7997 26.8416 52.8138 27.4796 52.598C28.6512 52.2013 28.6264 51.6684 29.2693 50.7146C30.5221 50.7788 31.2733 50.5197 31.9711 49.7321C32.3414 49.3145 32.3472 49.0709 32.5756 48.4958C32.8016 47.9265 33.0465 48.0879 33.5693 47.7734C34.7705 47.051 35.9246 45.0602 36.1977 43.136C36.4232 43.2356 36.4281 43.328 36.6997 43.5215C39.4083 45.4481 39.4331 47.1492 44.1801 48.9314C46.8872 49.9479 51.3068 51.7934 52.2655 54.7857C51.2242 54.4196 51.6114 54.3253 50.5035 54.8834C47.0724 56.6117 44.1582 58.9151 42.5061 62.6069C39.797 68.661 43.5756 71.8185 45.7244 75.3923C44.3249 78.0141 38.5788 79.0729 35.7458 80.5163C33.9309 81.441 33.9692 82.1605 34.3337 83.4804C31.3856 84.4547 31.2947 89.4188 40.3349 87.8096C41.3641 87.6263 42.2991 87.4508 42.9983 86.917C43.6976 86.3837 44.6602 86.9598 45.5694 85.9262C46.1462 85.2704 45.5621 85.3195 46.516 85.0322C47.9743 84.5927 48.3849 83.2655 48.4033 81.7439C49.657 81.125 50.7562 80.0472 51.8598 79.2081C55.8492 76.1769 52.1484 75.4564 52.3695 73.4588C52.5352 71.9629 53.6791 70.7354 54.5547 69.7456C54.9707 69.2755 55.6359 68.5399 56.0242 68.2283C56.0451 68.2521 56.0699 68.2866 56.0815 68.3041L56.3828 68.8861C56.4678 69.0839 56.5645 69.2881 56.6578 69.4797C56.8736 69.9221 57.0592 70.2726 57.3158 70.6591C57.7905 71.3752 58.4465 72.2405 58.9568 72.7038C61.0322 74.5887 61.8014 74.4097 63.4798 75.4837C63.2339 79.1313 59.4476 81.0506 57.2424 82.9972C56.4848 83.6661 55.5159 84.8003 55.8774 85.9185C55.3103 86.2928 54.9755 86.444 54.7054 87.2073C53.7899 89.7912 57.0213 90.024 58.9733 89.9983C62.9691 89.9463 63.2364 89.0002 63.904 88.8082C64.975 88.5004 65.4012 88.4834 65.9653 87.3215C68.2502 87.1275 69.0146 84.0356 68.9762 82.1425C68.9485 80.7891 68.9587 81.1206 69.6322 80.2883C70.294 79.4701 71.2017 78.1891 71.6799 77.051C72.4355 75.2523 71.3349 74.4953 70.2717 73.7846C67.7827 72.1214 67.5189 69.2769 69.362 66.5107C69.7342 65.9521 70.1273 65.5292 70.5569 65.0041C70.9646 64.5058 71.2537 64.0211 71.555 63.4222C72.3053 61.9326 72.4205 61.0138 72.6182 59.2165C74.89 58.2417 76.703 55.8562 77.5028 53.5581C80.3061 54.3583 81.5987 52.5241 81.8115 49.9761C82.384 49.6106 82.7635 49.5099 83.2689 49.1152C83.6352 48.8288 84.0031 48.3077 84.282 47.7967C84.9992 46.4836 85.1202 45.1608 84.0118 44.3601C84.4453 43.4238 85.0255 42.8623 85.4215 41.5705C85.8841 40.061 85.5722 39.2278 84.5211 38.6755C84.8452 37.7338 85.3214 36.5943 85.1329 35.3653C84.8792 33.7104 84.0459 33.8266 83.282 33.4002C83.1838 27.5912 78.1792 28.0064 77.5422 33.2019C76.3754 33.2797 75.7107 33.339 75.0673 34.5237C74.4098 35.7343 74.5542 36.5029 74.5707 37.9429C73.2227 38.9298 72.8986 40.257 73.1882 41.905C72.592 42.2482 72.4564 42.2604 72.1158 42.8686C71.2289 44.4525 71.7955 46.1088 72.9525 47.1521C72.5614 47.9426 72.1391 48.9737 72.522 50.0544C72.9064 51.14 73.4555 51.2727 74.4327 51.8177C74.1319 52.9995 73.0356 54.1119 72.1022 54.5581L71.4087 52.3918C70.2653 49.0743 68.0675 46.6737 65.977 44.0733C62.3345 39.5418 56.3532 31.9515 58.9704 24.7034C59.2376 24.9664 59.5307 25.7681 59.9291 26.1784C60.4325 26.6967 60.8684 26.8216 61.7936 26.7822C62.0862 27.5674 62.6314 28.1425 63.4813 28.4133C64.7393 28.8144 65.3254 28.0895 65.8589 27.649C67.4071 29.1124 69.4344 29.1503 69.9539 26.4541C72.4472 25.5197 72.5342 22.823 70.5141 21.5045C70.9656 20.3951 71.5676 19.6562 70.8635 18.1904C70.4179 17.2624 69.7046 16.7184 68.5393 16.3547C68.8513 13.8875 67.5747 11.4946 65.6777 11.1057C65.6777 9.36382 64.6198 8.28553 62.9234 8.05996C62.1124 5.07886 61.9472 3.14494 59.9568 1.71371C58.9568 0.994685 57.7983 0.510962 56.2647 0.68938C54.9819 0.83863 55.599 0.947042 54.4192 0.490543C53.8569 0.273233 53.2957 0.140999 52.6849 0.0617557C51.1979 -0.131734 49.9758 0.131762 48.8684 0.81967C46.8561 2.06957 48.312 2.15027 46.2754 2.88971C43.734 3.81243 43.4065 7.19412 46.2225 8.06871C45.5801 9.49217 43.6572 10.4479 41.4681 10.744C40.1605 10.921 39.0579 10.7392 37.8713 10.8393C35.5048 11.0396 38.1215 14.6308 38.6458 15.5458C39.2882 16.6654 39.1945 16.9537 40.8077 17.0246C43.2879 17.1345 44.8935 16.765 46.8542 15.8073C45.9149 17.906 43.5732 17.6639 42.7806 18.4214C42.7505 20.259 47.7084 18.2575 47.3887 21.0869C47.2633 22.1973 45.1369 22.3475 43.1164 24.1667C42.7612 24.4866 41.0216 26.3544 41.4934 27.2032C38.2027 27.5426 34.86 23.981 33.427 22.735C30.8471 20.4924 29.402 17.9449 25.4271 18.1063H25.4232Z" fill="#36261D"/>
<path fill-rule="evenodd" clip-rule="evenodd" d="M0 64.8621C1.83828 65.534 2.76835 66.218 5.14212 66.4533C15.9609 67.5238 18.2593 55.3213 30.2434 61.7755C32.5331 63.0084 35.1138 64.1509 37.855 64.2384C39.8862 64.303 40.3196 64.3283 40.4357 63.4737C35.7028 63.0303 33.9563 61.7099 30.3964 59.8965C16.6587 52.8988 14.0555 68.7086 1.19247 65.0532C0.802757 64.9423 0.354243 64.6852 0 64.8626L0 64.8621Z" fill="#36261D"/>
<path fill-rule="evenodd" clip-rule="evenodd" d="M1.61865 70.3708C3.38695 71.0806 4.17562 71.6669 6.42499 71.9567C8.28271 72.1959 10.3129 71.9839 11.9952 71.3811C18.9635 68.8847 20.8362 62.8753 30.3649 67.4262C31.8017 68.1127 33.1526 68.8891 34.8378 69.3441C35.9122 69.6338 39.5849 70.2532 40.3877 69.5001C40.2594 68.8297 39.9746 69.0174 39.2394 68.9362C37.7899 68.7763 36.7174 68.4583 35.366 67.9411C33.7455 67.3207 32.4704 66.5696 31.0048 65.7976C21.7483 60.9224 17.9581 66.8798 12.2722 69.6883C6.26172 72.6572 2.28972 70.033 1.61865 70.3713V70.3708Z" fill="#36261D"/>
<path fill-rule="evenodd" clip-rule="evenodd" d="M13.5518 75.2506C19.0666 75.8189 21.4389 70.6302 27.7628 71.9793C31.2275 72.7182 33.7519 75.3124 38.1039 75.3532C39.2172 75.3634 41.0885 75.1495 41.7804 74.5433C38.0368 74.4285 37.5757 74.5112 33.9754 72.8957C31.746 71.8952 30.0345 70.6103 27.291 70.2471C22.591 69.6248 20.0623 72.4348 17.0053 74.0513C15.2443 74.9823 14.0858 74.9395 13.5518 75.2506Z" fill="#36261D"/>
</svg>
