<svg width="239" height="72" viewBox="0 0 239 72" fill="none" xmlns="http://www.w3.org/2000/svg">
<path fill-rule="evenodd" clip-rule="evenodd" d="M12.847 16.1843C12.8253 16.1682 12.7987 16.1446 12.7852 16.1319C12.5081 15.8675 12.48 15.7815 12.311 15.4026C11.8907 14.4613 11.8398 13.3206 12.3577 12.4942C13.1514 11.2275 14.8065 11.9352 14.2736 13.9251C13.6893 14.2234 12.6023 13.8742 12.847 16.1843ZM14.7563 6.6183C14.3222 6.73587 14.5259 7.34184 14.9319 7.19575C15.295 7.06507 15.1163 6.52077 14.7563 6.6183ZM17.4915 13.7088C17.1685 13.3777 16.7953 12.7478 16.751 12.1588C16.612 10.3158 19.6038 10.4303 19.3688 13.9374C18.4712 13.538 18.7359 13.2358 17.4915 13.7088ZM14.9493 8.35488L16.3523 10.5174C15.5559 11.8704 15.535 12.2636 16.2728 13.7805C16.4326 14.1089 16.705 14.3707 16.7787 14.5819C16.2798 14.733 15.6836 14.5202 15.2502 14.3529C15.2425 14.331 15.2371 14.299 15.2356 14.2847L15.2487 13.8406C15.3309 13.2933 15.3818 12.887 15.2171 12.3126C14.9558 11.4021 14.4619 11.2282 14.2068 10.9021L14.9496 8.3545L14.9493 8.35488ZM39.6146 7.55964C40.7009 7.26552 41.2396 8.90727 40.1444 9.30162C38.92 9.74222 38.3057 7.91428 39.6146 7.55964ZM20.1892 14.3568C20.599 12.7274 19.9661 11.1978 19.0612 10.5055C18.3832 9.98661 17.6281 10.2187 17.27 9.67129C15.2448 6.57358 15.4208 7.45055 16.2018 4.34937C16.4484 3.37025 17.3298 0.910127 16.4195 0.34116C15.9985 0.650314 15.0372 4.33434 14.6652 5.15194L14.2496 4.60687C14.103 4.37905 14.0606 4.30157 13.917 4.06373C13.5855 3.51365 12.1485 0.926702 11.7182 0.773667C11.1969 1.93704 12.8292 4.41914 13.3204 5.33966C14.3527 7.27477 14.208 6.99183 13.2649 10.0953C13.0515 10.7965 13.2101 10.7822 12.5772 11.0617C10.3044 12.0655 10.7636 16.1311 12.5738 17.382C13.0576 17.7162 13.244 17.5327 13.7028 17.4183C14.1999 18.0724 15.138 18.4298 15.907 18.9879C15.1422 19.9485 13.7302 20.962 14.3731 22.4942C14.6108 23.0613 14.8705 23.0563 15.1534 23.468C15.4521 23.9024 15.415 24.2173 15.8298 24.5438C16.6132 25.1598 16.3994 24.4201 16.8675 25.2589C17.3491 26.1224 18.1583 26.356 19.3842 26.2654C19.9928 27.2333 21.7304 27.1967 22.4254 26.2708C23.3878 26.2665 25.3519 26.7935 26.2943 27.0371C28.4977 27.6069 28.1037 27.3397 29.9293 26.797C29.5936 27.5005 27.6294 28.8974 26.5682 29.4194C25.0587 30.1622 23.7949 30.528 21.9469 30.7504C18.5403 31.161 13.9089 29.5805 14.203 34.6615C13.584 34.5096 12.7393 34.1689 12.0806 33.9299C11.6133 33.7606 11.7132 33.6743 11.5238 33.1281C11.3949 32.7565 11.2108 32.45 11.2475 32.0333C11.6935 31.7708 12.4317 31.5125 12.9357 31.2832C13.4956 31.0284 14.2794 30.9227 14.2535 30.2967C13.7326 30.0643 11.6171 31.1055 10.8407 31.2007L10.6764 30.5731C10.9889 30.3083 11.9594 30.0269 12.4055 29.8769C12.7389 29.7648 12.9967 29.6865 13.3351 29.54C13.7546 29.3585 13.8012 29.3165 13.726 28.8685C12.605 28.6866 11.4207 29.7397 10.3202 29.7239L10.1608 29.1638C10.6825 28.9826 11.3513 28.7525 11.9359 28.5366C12.4591 28.3431 13.5373 28.1808 13.2328 27.6331L12.3002 27.8189C12.0046 27.9122 11.675 27.9927 11.3926 28.0771C10.3962 28.3755 9.91539 28.7498 9.7784 28.1396L11.5481 27.4642C11.844 27.359 13.4088 27.0344 12.8342 26.5564C12.3947 26.3976 10.243 27.3871 9.50519 27.4561L9.3192 26.8529C10.0281 26.4562 11.9644 26.0773 12.5043 25.6066C12.4456 25.1506 12.2921 25.0904 11.8579 25.2184C10.9326 25.4917 9.97636 26.0326 9.01936 26.1004L8.86655 25.5106C8.93949 25.4536 8.95184 25.442 9.06992 25.3815C9.15365 25.3387 9.18684 25.3275 9.28678 25.2921L10.6046 24.8595C11.1633 24.6672 11.9575 24.6398 12.0046 24.0651C11.3767 23.3785 9.42146 24.7971 8.55206 24.7963L8.39385 24.2173C8.93486 24.0705 9.57272 23.8222 10.167 23.6461C10.8751 23.436 11.6932 23.3172 11.5149 22.7178C10.867 22.48 8.91248 23.4657 8.10868 23.606L7.97516 22.9163C9.19649 22.3347 11.2305 22.1859 11.0885 21.2869C10.3102 21.1266 8.63734 22.1508 7.65295 22.1862L7.5121 21.4804C8.06121 21.332 8.68249 21.0799 9.25553 20.8791C9.58276 20.7642 9.7757 20.6956 10.1153 20.5742C10.9449 20.2774 10.725 19.957 10.2719 19.8846C9.19456 19.7122 6.48179 20.6705 5.76018 21.184C4.10705 22.3605 5.0625 24.0157 5.65792 25.7465C6.19237 27.3 6.71718 28.9202 7.28944 30.4355C7.86441 31.9581 8.48106 33.6018 8.96032 35.1487L8.76545 35.385C7.88756 36.4332 8.70448 36.7608 8.66821 37.2585C8.63773 37.6798 8.33944 37.9084 8.65355 38.5225C8.84263 38.8929 9.15867 38.9631 9.38711 39.2379C8.82372 40.6688 9.89725 40.9683 10.9476 41.2825C11.144 42.0369 10.8647 42.7778 11.4215 43.2581C11.8896 43.662 12.7621 43.6455 13.4076 43.4254C14.0058 43.2214 14.5622 42.9296 14.7378 42.4089C14.9905 41.6603 14.4708 41.163 14.3704 40.5239L16.0313 39.8921C16.5781 40.914 16.4052 41.0107 17.2086 41.7612C17.7527 42.2697 18.7275 42.4478 19.4857 42.0049C20.0726 41.6622 19.7663 41.5562 20.4404 41.7323C20.9513 41.8657 21.3156 41.8769 21.8223 41.7057C22.7526 41.3912 22.7329 40.9687 23.2435 40.2124C24.2383 40.2633 24.8349 40.0578 25.389 39.4333C25.683 39.1022 25.6877 38.9091 25.869 38.4531C26.0485 38.0017 26.2429 38.1297 26.6582 37.8802C27.6121 37.3074 28.5285 35.7289 28.7454 34.2032C28.9245 34.2822 28.9283 34.3554 29.144 34.5089C31.295 36.0365 31.3146 37.3853 35.0843 38.7985C37.2341 39.6045 40.7437 41.0678 41.5051 43.4404C40.6781 43.1501 40.9857 43.0753 40.1059 43.5179C37.3811 44.8883 35.067 46.7147 33.755 49.642C31.6037 54.4424 34.6043 56.946 36.3107 59.7797C35.1993 61.8586 30.6362 62.6981 28.3865 63.8426C26.9453 64.5758 26.9757 65.1463 27.2652 66.1929C24.924 66.9654 24.8518 70.9015 32.0308 69.6256C32.8481 69.4803 33.5906 69.3411 34.1459 68.9179C34.7012 68.495 35.4656 68.9518 36.1876 68.1322C36.6456 67.6122 36.1818 67.6512 36.9393 67.4233C38.0973 67.0749 38.4234 66.0225 38.4381 64.816C39.4336 64.3253 40.3065 63.4706 41.1829 62.8053C44.351 60.4019 41.4121 59.8306 41.5877 58.2466C41.7192 57.0605 42.6276 56.0872 43.323 55.3024C43.6533 54.9296 44.1816 54.3464 44.4899 54.0993C44.5065 54.1182 44.5262 54.1455 44.5354 54.1594L44.7747 54.6208C44.8422 54.7777 44.919 54.9396 44.9931 55.0915C45.1644 55.4423 45.3118 55.7202 45.5156 56.0267C45.8926 56.5945 46.4135 57.2806 46.8187 57.648C48.4668 59.1425 49.0777 59.0006 50.4105 59.8522C50.2153 62.7444 47.2085 64.2663 45.4573 65.8097C44.8557 66.3402 44.0863 67.2395 44.3734 68.1261C43.923 68.4229 43.6572 68.5428 43.4426 69.148C42.7156 71.1968 45.2817 71.3814 46.8318 71.361C50.005 71.3198 50.2172 70.5696 50.7474 70.4174C51.5979 70.1734 51.9363 70.1599 52.3843 69.2386C54.1988 69.0848 54.8057 66.6331 54.7753 65.1321C54.7533 64.0589 54.7614 64.3218 55.2962 63.6618C55.8218 63.0131 56.5426 61.9973 56.9223 61.0949C57.5224 59.6687 56.6483 59.0685 55.804 58.5049C53.8275 57.1862 53.618 54.9307 55.0817 52.7374C55.3772 52.2945 55.6894 51.9591 56.0305 51.5428C56.3543 51.1477 56.5839 50.7633 56.8232 50.2884C57.419 49.1073 57.5104 48.3788 57.6675 46.9537C59.4715 46.1808 60.9112 44.2892 61.5464 42.4671C63.7726 43.1016 64.799 41.6471 64.968 39.6269C65.4226 39.337 65.724 39.2572 66.1253 38.9442C66.4163 38.7171 66.7084 38.3039 66.9299 37.8988C67.4994 36.8576 67.5955 35.8087 66.7153 35.1738C67.0595 34.4314 67.5203 33.9861 67.8348 32.9619C68.2021 31.765 67.9544 31.1043 67.1197 30.6664C67.3771 29.9197 67.7553 29.0162 67.6055 28.0417C67.4041 26.7295 66.7423 26.8216 66.1357 26.4836C66.0578 21.8775 62.0835 22.2067 61.5776 26.3263C60.6511 26.388 60.1232 26.435 59.6123 27.3744C59.0902 28.3343 59.2048 28.9437 59.218 30.0855C58.1475 30.868 57.8901 31.9204 58.1201 33.2271C57.6466 33.4993 57.539 33.5089 57.2685 33.9912C56.5642 35.247 57.0142 36.5604 57.933 37.3876C57.6223 38.0144 57.287 38.832 57.5911 39.6889C57.8963 40.5497 58.3324 40.6549 59.1084 41.087C58.8695 42.0241 57.999 42.9061 57.2577 43.26L56.707 41.5423C55.799 38.9118 54.0537 37.0083 52.3936 34.9464C49.501 31.3533 44.7511 25.3348 46.8295 19.5877C47.0418 19.7963 47.2744 20.4319 47.5909 20.7573C47.9906 21.1682 48.3368 21.2673 49.0715 21.236C49.3038 21.8586 49.7368 22.3146 50.4117 22.5293C51.4107 22.8473 51.8761 22.2726 52.2998 21.9234C53.5292 23.0836 55.1392 23.1137 55.5517 20.9758C57.5316 20.235 57.6007 18.0967 55.9966 17.0513C56.3551 16.1716 56.8332 15.5857 56.274 14.4235C55.9202 13.6876 55.3537 13.2562 54.4284 12.9679C54.6761 11.0116 53.6624 9.11427 52.1559 8.80589C52.1559 7.42472 51.3158 6.56973 49.9687 6.39087C49.3246 4.02711 49.1934 2.49367 47.6129 1.35882C46.8187 0.788701 45.8988 0.40515 44.6809 0.54662C43.6622 0.664962 44.1522 0.750924 43.2153 0.388959C42.7688 0.21665 42.3232 0.1118 41.8381 0.0489671C40.6573 -0.104454 39.6868 0.104476 38.8074 0.649929C37.2094 1.64099 38.3655 1.70498 36.7483 2.2913C34.7301 3.02294 34.47 5.70433 36.7062 6.3978C36.1961 7.52649 34.6691 8.28434 32.9307 8.51909C31.8923 8.65941 31.0167 8.51524 30.0744 8.59465C28.1951 8.75347 30.2731 11.601 30.6895 12.3265C31.1996 13.2142 31.1252 13.4428 32.4063 13.4991C34.3759 13.5862 35.6508 13.2933 37.2079 12.5339C36.4619 14.198 34.6024 14.006 33.973 14.6066C33.9491 16.0637 37.8862 14.4767 37.6323 16.7202C37.5328 17.6006 35.8441 17.7197 34.2396 19.1622C33.9576 19.4158 32.5761 20.8968 32.9508 21.5699C30.3376 21.8389 27.6831 19.0149 26.5451 18.0269C24.4964 16.2487 23.3488 14.2288 20.1923 14.3568H20.1892Z" fill="#36261D"/>
<path fill-rule="evenodd" clip-rule="evenodd" d="M0 51.4302C1.4598 51.963 2.19839 52.5053 4.08343 52.6919C12.6748 53.5407 14.5 43.8652 24.0167 48.9828C25.835 49.9604 27.8844 50.8663 30.0612 50.9357C31.6742 50.9869 32.0184 51.007 32.1106 50.3293C28.3521 49.9777 26.9652 48.9308 24.1383 47.493C13.2289 41.9444 11.1617 54.4801 0.946961 51.5817C0.637482 51.4938 0.28131 51.2899 0 51.4306L0 51.4302Z" fill="#36261D"/>
<path fill-rule="evenodd" clip-rule="evenodd" d="M1.2854 55.7977C2.68964 56.3605 3.31593 56.8254 5.10219 57.0551C6.57743 57.2448 8.18965 57.0767 9.52559 56.5987C15.0592 54.6193 16.5464 49.8544 24.1132 53.4628C25.2543 54.0071 26.327 54.6227 27.6653 54.9835C28.5184 55.2133 31.435 55.7044 32.0725 55.1073C31.9706 54.5757 31.7444 54.7245 31.1606 54.6601C30.0095 54.5333 29.1579 54.2812 28.0847 53.8711C26.7978 53.3792 25.7852 52.7836 24.6214 52.1715C17.2707 48.3059 14.2608 53.0296 9.74554 55.2565C4.97253 57.6106 1.81831 55.5298 1.2854 55.7981V55.7977Z" fill="#36261D"/>
<path fill-rule="evenodd" clip-rule="evenodd" d="M10.7615 59.6671C15.1409 60.1178 17.0248 56.0035 22.0467 57.0732C24.798 57.6592 26.8027 59.7161 30.2587 59.7485C31.1428 59.7566 32.6288 59.5869 33.1783 59.1063C30.2054 59.0153 29.8392 59.0808 26.9802 57.7999C25.2098 57.0066 23.8507 55.9877 21.672 55.6998C17.9397 55.2064 15.9316 57.4344 13.504 58.7162C12.1055 59.4543 11.1856 59.4204 10.7615 59.6671Z" fill="#36261D"/>
<path d="M87.6672 24.2145C86.9759 24.2145 86.3621 24.143 85.8258 24C85.2895 23.8451 84.8247 23.6365 84.4314 23.3743C84.038 23.1002 83.7162 22.8022 83.466 22.4804C83.2157 22.1467 83.0309 21.7951 82.9118 21.4256L84.3598 20.9251C84.5386 21.4495 84.8962 21.9083 85.4325 22.3016C85.9807 22.683 86.6482 22.8737 87.4348 22.8737C88.4002 22.8737 89.157 22.683 89.7052 22.3016C90.2535 21.9203 90.5276 21.4137 90.5276 20.782C90.5276 20.198 90.2833 19.7273 89.7946 19.3697C89.306 19.0002 88.6624 18.7142 87.8638 18.5116L86.4873 18.154C85.9271 18.011 85.4087 17.8024 84.9319 17.5283C84.4671 17.2423 84.0917 16.8847 83.8056 16.4557C83.5315 16.0147 83.3945 15.4903 83.3945 14.8824C83.3945 13.7502 83.758 12.8682 84.485 12.2366C85.2239 11.593 86.2847 11.2712 87.6672 11.2712C88.4896 11.2712 89.1987 11.4082 89.7946 11.6824C90.3905 11.9446 90.8732 12.2842 91.2427 12.7014C91.6241 13.1066 91.8923 13.5476 92.0472 14.0243L90.617 14.5249C90.3905 13.929 90.0092 13.4642 89.4728 13.1304C88.9365 12.7848 88.287 12.612 87.5242 12.612C86.7256 12.612 86.088 12.8086 85.6113 13.202C85.1465 13.5833 84.914 14.1077 84.914 14.7752C84.914 15.3473 85.0988 15.7882 85.4683 16.0981C85.8377 16.3961 86.3204 16.6166 86.9163 16.7596L88.2929 17.0993C89.5086 17.3853 90.4382 17.862 91.0818 18.5295C91.7373 19.185 92.0651 19.8941 92.0651 20.6569C92.0651 21.3124 91.8982 21.9143 91.5645 22.4625C91.2308 22.9989 90.7362 23.4279 90.0807 23.7497C89.4371 24.0596 88.6326 24.2145 87.6672 24.2145ZM94.5725 24L99.6677 11.4857H101.241L106.336 24H104.745L103.297 20.4424H97.6296L96.1815 24H94.5725ZM98.1481 19.0837H102.76L100.454 13.3807L98.1481 19.0837ZM109.603 24V11.4857H111.123V22.6234H117.022V24H109.603ZM125.335 24.2145C124.131 24.2145 123.064 23.9404 122.135 23.3922C121.205 22.8439 120.478 22.0811 119.954 21.1038C119.429 20.1265 119.167 19.0062 119.167 17.7429C119.167 16.4676 119.423 15.3473 119.936 14.3819C120.46 13.4046 121.181 12.6418 122.099 12.0935C123.017 11.5453 124.077 11.2712 125.281 11.2712C126.485 11.2712 127.546 11.5513 128.463 12.1114C129.393 12.6597 130.114 13.4224 130.626 14.3997C131.139 15.3651 131.395 16.4795 131.395 17.7429C131.395 19.0062 131.139 20.1265 130.626 21.1038C130.114 22.0811 129.399 22.8439 128.481 23.3922C127.575 23.9404 126.527 24.2145 125.335 24.2145ZM125.335 22.838C126.229 22.838 127.015 22.6234 127.695 22.1944C128.374 21.7534 128.904 21.1515 129.286 20.3887C129.679 19.626 129.876 18.744 129.876 17.7429C129.876 16.7536 129.679 15.8776 129.286 15.1149C128.892 14.3402 128.35 13.7383 127.659 13.3092C126.979 12.8682 126.187 12.6477 125.281 12.6477C124.387 12.6477 123.595 12.8682 122.903 13.3092C122.212 13.7383 121.67 14.3402 121.276 15.1149C120.883 15.8776 120.687 16.7536 120.687 17.7429C120.687 18.744 120.883 19.626 121.276 20.3887C121.67 21.1515 122.218 21.7534 122.921 22.1944C123.624 22.6234 124.429 22.838 125.335 22.838ZM135.317 24V11.4857H136.854L144.309 21.5329V11.4857H145.829V24H144.309L136.837 13.8992V24H135.317ZM156.439 24V11.4857H160.515C161.326 11.4857 162.041 11.6526 162.66 11.9863C163.292 12.32 163.781 12.7848 164.126 13.3807C164.484 13.9766 164.663 14.6679 164.663 15.4545C164.663 16.2173 164.502 16.8967 164.18 17.4926C163.858 18.0885 163.417 18.5593 162.857 18.9049C162.297 19.2386 161.647 19.4055 160.908 19.4055H157.959V24H156.439ZM157.959 18.0289H160.908C161.564 18.0289 162.1 17.7905 162.517 17.3138C162.946 16.8251 163.161 16.2054 163.161 15.4545C163.161 14.6798 162.911 14.0541 162.41 13.5774C161.91 13.1006 161.272 12.8623 160.497 12.8623H157.959V18.0289ZM168.222 24V11.4857H172.298C173.109 11.4857 173.824 11.6466 174.444 11.9684C175.075 12.2902 175.564 12.7371 175.91 13.3092C176.267 13.8813 176.446 14.5368 176.446 15.2757C176.446 16.0981 176.208 16.8192 175.731 17.4389C175.266 18.0468 174.652 18.4937 173.889 18.7798L176.946 24H175.284L172.406 19.0658C172.322 19.0777 172.239 19.0837 172.155 19.0837C172.072 19.0837 171.988 19.0837 171.905 19.0837H169.742V24H168.222ZM169.742 17.6892H172.513C172.966 17.6892 173.371 17.5879 173.728 17.3853C174.086 17.1708 174.372 16.8847 174.587 16.5272C174.813 16.1577 174.926 15.7406 174.926 15.2757C174.926 14.5606 174.676 13.9826 174.175 13.5416C173.687 13.0887 173.049 12.8623 172.263 12.8623H169.742V17.6892ZM186.171 24.2145C184.967 24.2145 183.9 23.9404 182.971 23.3922C182.041 22.8439 181.314 22.0811 180.79 21.1038C180.265 20.1265 180.003 19.0062 180.003 17.7429C180.003 16.4676 180.259 15.3473 180.772 14.3819C181.296 13.4046 182.017 12.6418 182.935 12.0935C183.853 11.5453 184.913 11.2712 186.117 11.2712C187.321 11.2712 188.382 11.5513 189.299 12.1114C190.229 12.6597 190.95 13.4224 191.463 14.3997C191.975 15.3651 192.231 16.4795 192.231 17.7429C192.231 19.0062 191.975 20.1265 191.463 21.1038C190.95 22.0811 190.235 22.8439 189.317 23.3922C188.412 23.9404 187.363 24.2145 186.171 24.2145ZM186.171 22.838C187.065 22.838 187.851 22.6234 188.531 22.1944C189.21 21.7534 189.74 21.1515 190.122 20.3887C190.515 19.626 190.712 18.744 190.712 17.7429C190.712 16.7536 190.515 15.8776 190.122 15.1149C189.728 14.3402 189.186 13.7383 188.495 13.3092C187.816 12.8682 187.023 12.6477 186.117 12.6477C185.223 12.6477 184.431 12.8682 183.74 13.3092C183.048 13.7383 182.506 14.3402 182.113 15.1149C181.719 15.8776 181.523 16.7536 181.523 17.7429C181.523 18.744 181.719 19.626 182.113 20.3887C182.506 21.1515 183.054 21.7534 183.757 22.1944C184.461 22.6234 185.265 22.838 186.171 22.838ZM202 24V11.4857H206.076C206.887 11.4857 207.602 11.6526 208.222 11.9863C208.853 12.32 209.342 12.7848 209.688 13.3807C210.045 13.9766 210.224 14.6679 210.224 15.4545C210.224 16.2173 210.063 16.8967 209.741 17.4926C209.42 18.0885 208.979 18.5593 208.418 18.9049C207.858 19.2386 207.209 19.4055 206.47 19.4055H203.52V24H202ZM203.52 18.0289H206.47C207.125 18.0289 207.662 17.7905 208.079 17.3138C208.508 16.8251 208.722 16.2054 208.722 15.4545C208.722 14.6798 208.472 14.0541 207.971 13.5774C207.471 13.1006 206.833 12.8623 206.059 12.8623H203.52V18.0289ZM217.788 24.2145C217.097 24.2145 216.483 24.143 215.947 24C215.41 23.8451 214.946 23.6365 214.552 23.3743C214.159 23.1002 213.837 22.8022 213.587 22.4804C213.337 22.1467 213.152 21.7951 213.033 21.4256L214.481 20.9251C214.659 21.4495 215.017 21.9083 215.553 22.3016C216.102 22.683 216.769 22.8737 217.556 22.8737C218.521 22.8737 219.278 22.683 219.826 22.3016C220.374 21.9203 220.648 21.4137 220.648 20.782C220.648 20.198 220.404 19.7273 219.915 19.3697C219.427 19.0002 218.783 18.7142 217.985 18.5116L216.608 18.154C216.048 18.011 215.53 17.8024 215.053 17.5283C214.588 17.2423 214.213 16.8847 213.927 16.4557C213.652 16.0147 213.515 15.4903 213.515 14.8824C213.515 13.7502 213.879 12.8682 214.606 12.2366C215.345 11.593 216.406 11.2712 217.788 11.2712C218.61 11.2712 219.32 11.4082 219.915 11.6824C220.511 11.9446 220.994 12.2842 221.364 12.7014C221.745 13.1066 222.013 13.5476 222.168 14.0243L220.738 14.5249C220.511 13.929 220.13 13.4642 219.594 13.1304C219.057 12.7848 218.408 12.612 217.645 12.612C216.847 12.612 216.209 12.8086 215.732 13.202C215.267 13.5833 215.035 14.1077 215.035 14.7752C215.035 15.3473 215.22 15.7882 215.589 16.0981C215.959 16.3961 216.441 16.6166 217.037 16.7596L218.414 17.0993C219.629 17.3853 220.559 17.862 221.203 18.5295C221.858 19.185 222.186 19.8941 222.186 20.6569C222.186 21.3124 222.019 21.9143 221.685 22.4625C221.352 22.9989 220.857 23.4279 220.202 23.7497C219.558 24.0596 218.753 24.2145 217.788 24.2145ZM229.181 24V18.7619L224.693 11.4857H226.445L229.932 17.2244L233.436 11.4857H235.17L230.682 18.7619V24H229.181Z" fill="#36261D"/>
<path d="M90.882 57.3084C89.0787 57.3084 87.5138 56.9561 86.1872 56.2513C84.8606 55.5466 83.8346 54.562 83.1091 53.2977C82.4044 52.0125 82.052 50.4994 82.052 48.7583V35.1092H86.3116V48.7583C86.3116 49.691 86.4981 50.5098 86.8712 51.2145C87.265 51.8985 87.804 52.4271 88.488 52.8002C89.1927 53.1733 90.0114 53.3598 90.9442 53.3598C91.8769 53.3598 92.6853 53.1733 93.3693 52.8002C94.0741 52.4271 94.613 51.8985 94.9861 51.2145C95.3799 50.5098 95.5768 49.691 95.5768 48.7583V35.1092H99.8363V48.7583C99.8363 50.4994 99.4632 52.0125 98.7171 53.2977C97.9916 54.562 96.9552 55.5466 95.6079 56.2513C94.2813 56.9561 92.706 57.3084 90.882 57.3084ZM111.663 56.8732V35.1092H119.747C121.281 35.1092 122.638 35.4201 123.82 36.0419C125.001 36.643 125.924 37.4928 126.587 38.5914C127.25 39.6692 127.582 40.9233 127.582 42.3535C127.582 43.7629 127.261 45.017 126.618 46.1155C125.975 47.2141 125.095 48.0847 123.975 48.7272C122.856 49.349 121.56 49.66 120.089 49.66H115.923V56.8732H111.663ZM115.923 45.7424H119.996C120.949 45.7424 121.726 45.4315 122.327 44.8097C122.949 44.1671 123.26 43.3484 123.26 42.3535C123.26 41.3585 122.918 40.5502 122.234 39.9283C121.571 39.3065 120.711 38.9956 119.653 38.9956H115.923V45.7424ZM140.346 57.2463C138.149 57.2463 136.201 56.7695 134.501 55.8161C132.822 54.8419 131.506 53.5153 130.552 51.8364C129.599 50.1367 129.122 48.1987 129.122 46.0223C129.122 43.8044 129.599 41.856 130.552 40.1771C131.506 38.4774 132.812 37.1508 134.47 36.1974C136.149 35.2439 138.076 34.7671 140.253 34.7671C142.45 34.7671 144.378 35.2542 146.036 36.2284C147.715 37.1819 149.031 38.5085 149.984 40.2082C150.938 41.8871 151.415 43.8251 151.415 46.0223C151.415 48.1987 150.938 50.1367 149.984 51.8364C149.052 53.5153 147.746 54.8419 146.067 55.8161C144.409 56.7695 142.502 57.2463 140.346 57.2463ZM140.346 53.3598C141.673 53.3598 142.833 53.0489 143.828 52.4271C144.844 51.7845 145.632 50.914 146.191 49.8154C146.772 48.7168 147.062 47.4525 147.062 46.0223C147.062 44.5713 146.772 43.2966 146.191 42.198C145.611 41.0994 144.813 40.2392 143.797 39.6174C142.782 38.9749 141.6 38.6536 140.253 38.6536C138.947 38.6536 137.776 38.9749 136.739 39.6174C135.724 40.2392 134.926 41.0994 134.345 42.198C133.765 43.2966 133.475 44.5713 133.475 46.0223C133.475 47.4525 133.765 48.7168 134.345 49.8154C134.926 50.914 135.734 51.7845 136.771 52.4271C137.807 53.0489 138.999 53.3598 140.346 53.3598ZM158.863 56.8732V38.9956H152.334V35.1092H169.621V38.9956H163.123V56.8732H158.863ZM182.368 57.2463C180.171 57.2463 178.223 56.7695 176.523 55.8161C174.844 54.8419 173.528 53.5153 172.574 51.8364C171.621 50.1367 171.144 48.1987 171.144 46.0223C171.144 43.8044 171.621 41.856 172.574 40.1771C173.528 38.4774 174.834 37.1508 176.492 36.1974C178.171 35.2439 180.098 34.7671 182.275 34.7671C184.472 34.7671 186.4 35.2542 188.058 36.2284C189.737 37.1819 191.053 38.5085 192.006 40.2082C192.96 41.8871 193.437 43.8251 193.437 46.0223C193.437 48.1987 192.96 50.1367 192.006 51.8364C191.074 53.5153 189.768 54.8419 188.089 55.8161C186.431 56.7695 184.524 57.2463 182.368 57.2463ZM182.368 53.3598C183.695 53.3598 184.855 53.0489 185.85 52.4271C186.866 51.7845 187.654 50.914 188.213 49.8154C188.794 48.7168 189.084 47.4525 189.084 46.0223C189.084 44.5713 188.794 43.2966 188.213 42.198C187.633 41.0994 186.835 40.2392 185.819 39.6174C184.804 38.9749 183.622 38.6536 182.275 38.6536C180.969 38.6536 179.798 38.9749 178.761 39.6174C177.746 40.2392 176.948 41.0994 176.367 42.198C175.787 43.2966 175.497 44.5713 175.497 46.0223C175.497 47.4525 175.787 48.7168 176.367 49.8154C176.948 50.914 177.756 51.7845 178.793 52.4271C179.829 53.0489 181.021 53.3598 182.368 53.3598ZM196.891 56.8732V35.1092H201.089V43.6904L209.141 35.1092H214.644L205.441 44.9341L214.986 56.8732H209.732L202.674 47.9188L201.089 49.5978V56.8732H196.891ZM215.484 56.8732L224.066 35.1092H228.605L237.186 56.8732H232.678L230.812 52.0851H221.858L219.993 56.8732H215.484ZM223.257 48.323H229.413L226.335 40.4258L223.257 48.323Z" fill="#36261D"/>
</svg>
