<svg width="50" height="50" viewBox="0 0 50 50" fill="none" xmlns="http://www.w3.org/2000/svg">
<circle cx="25" cy="25" r="25" fill="#D89E52"/>
<path d="M25 13C20.5771 13 17 16.5995 17 21.05C17 27.0875 25 36 25 36C25 36 33 27.0875 33 21.05C33 16.5995 29.4229 13 25 13ZM25 23.925C24.2422 23.925 23.5155 23.6221 22.9797 23.0829C22.4439 22.5438 22.1429 21.8125 22.1429 21.05C22.1429 20.2875 22.4439 19.5562 22.9797 19.0171C23.5155 18.4779 24.2422 18.175 25 18.175C25.7578 18.175 26.4845 18.4779 27.0203 19.0171C27.5561 19.5562 27.8571 20.2875 27.8571 21.05C27.8571 21.8125 27.5561 22.5438 27.0203 23.0829C26.4845 23.6221 25.7578 23.925 25 23.925Z" fill="white"/>
</svg>
