<svg width="24" height="24" viewBox="0 0 24 24" fill="none" xmlns="http://www.w3.org/2000/svg">
<path d="M9.09837 15.712C10.6604 17.274 14.4594 16.008 17.5834 12.8835C20.7079 9.75948 21.9739 5.96048 20.4119 4.39848M13.6944 3.33748L14.4014 4.04498M11.2199 5.81248L11.9269 6.51948M9.09787 8.64098L9.80487 9.34798M8.39087 12.1765L9.09787 12.8835M17.5834 2.27698L18.2904 2.98398M16.8764 6.51998L18.2904 7.93398M14.4019 8.99498L15.8159 10.409M11.5734 11.116L12.9874 12.53" stroke="#D4973B" stroke-width="2" stroke-linecap="round" stroke-linejoin="round"/>
<path d="M9.09801 17.8335C9.6838 17.2477 9.6838 16.2979 9.09801 15.7121C8.51223 15.1264 7.56248 15.1264 6.97669 15.7122L4.14827 18.5406C3.56248 19.1264 3.56248 20.0761 4.14827 20.6619C4.73405 21.2477 5.6838 21.2477 6.26959 20.6619L9.09801 17.8335Z" stroke="#D4973B" stroke-width="2" stroke-linecap="round" stroke-linejoin="round"/>
</svg>
