<svg width="50" height="50" viewBox="0 0 50 50" fill="none" xmlns="http://www.w3.org/2000/svg">
<circle cx="25" cy="25" r="25" fill="#D89E52"/>
<path d="M25 13C25.7296 13 26.452 13.1416 27.126 13.4169C27.8001 13.6921 28.4125 14.0954 28.9284 14.6039C29.4443 15.1125 29.8535 15.7161 30.1327 16.3805C30.4119 17.0449 30.5556 17.757 30.5556 18.4762V20.6667H33.8889C34.1836 20.6667 34.4662 20.7821 34.6746 20.9875C34.8829 21.1929 35 21.4714 35 21.7619V34.9048C35 35.1952 34.8829 35.4738 34.6746 35.6792C34.4662 35.8846 34.1836 36 33.8889 36H16.1111C15.8164 36 15.5338 35.8846 15.3254 35.6792C15.1171 35.4738 15 35.1952 15 34.9048V21.7619C15 21.4714 15.1171 21.1929 15.3254 20.9875C15.5338 20.7821 15.8164 20.6667 16.1111 20.6667H19.4444V18.4762C19.4444 17.0238 20.0298 15.6309 21.0716 14.6039C22.1135 13.577 23.5266 13 25 13ZM30.5556 23.9524H28.3333V25.0476C28.3339 25.3267 28.4426 25.595 28.6371 25.7978C28.8316 26.0005 29.0973 26.1225 29.3799 26.1387C29.6625 26.1549 29.9408 26.0642 30.1578 25.885C30.3749 25.7059 30.5143 25.4518 30.5478 25.1747L30.5556 25.0476V23.9524ZM21.6667 23.9524H19.4444V25.0476C19.445 25.3267 19.5537 25.595 19.7482 25.7978C19.9427 26.0005 20.2084 26.1225 20.491 26.1387C20.7736 26.1549 21.0519 26.0642 21.2689 25.885C21.486 25.7059 21.6255 25.4518 21.6589 25.1747L21.6667 25.0476V23.9524ZM25 15.1905C24.1499 15.1904 23.332 15.5105 22.7134 16.0852C22.0948 16.6599 21.7224 17.4459 21.6722 18.2823L21.6667 18.4762V20.6667H28.3333V18.4762C28.3334 17.6381 28.0085 16.8317 27.4252 16.2219C26.842 15.6121 26.0443 15.2451 25.1956 15.196L25 15.1905Z" fill="white"/>
</svg>
