<svg width="240" height="44" viewBox="0 0 240 44" fill="none" xmlns="http://www.w3.org/2000/svg">
<path d="M10.6792 38.5001L13.6584 25.6209L3.66675 16.9584L16.8667 15.8126L22.0001 3.66675L27.1334 15.8126L40.3334 16.9584L30.3417 25.6209L33.3209 38.5001L22.0001 31.6709L10.6792 38.5001Z" fill="#D89E52"/>
<path d="M59.6792 38.5001L62.6584 25.6209L52.6667 16.9584L65.8667 15.8126L71.0001 3.66675L76.1334 15.8126L89.3334 16.9584L79.3417 25.6209L82.3209 38.5001L71.0001 31.6709L59.6792 38.5001Z" fill="#D89E52"/>
<path d="M108.679 38.5001L111.658 25.6209L101.667 16.9584L114.867 15.8126L120 3.66675L125.133 15.8126L138.333 16.9584L128.342 25.6209L131.321 38.5001L120 31.6709L108.679 38.5001Z" fill="#D89E52"/>
<path d="M157.679 38.5001L160.658 25.6209L150.667 16.9584L163.867 15.8126L169 3.66675L174.133 15.8126L187.333 16.9584L177.342 25.6209L180.321 38.5001L169 31.6709L157.679 38.5001Z" fill="#D89E52"/>
<path d="M206.679 38.5001L209.658 25.6209L199.667 16.9584L212.867 15.8126L218 3.66675L223.133 15.8126L236.333 16.9584L226.342 25.6209L229.321 38.5001L218 31.6709L206.679 38.5001Z" fill="#D89E52"/>
</svg>
