<svg width="22" height="22" viewBox="0 0 22 22" fill="none" xmlns="http://www.w3.org/2000/svg">
<path d="M19.5002 6.599L1.00024 17M19.5002 15.401L1.00024 5M18.0002 0.999999C18.7959 0.999999 19.559 1.31607 20.1216 1.87868C20.6842 2.44129 21.0002 3.20435 21.0002 4C21.0002 4.79565 20.6842 5.55871 20.1216 6.12132C19.559 6.68393 18.7959 7 18.0002 7C17.2046 7 16.4415 6.68393 15.8789 6.12132C15.3163 5.55871 15.0002 4.79565 15.0002 4C15.0002 3.20435 15.3163 2.44129 15.8789 1.87868C16.4415 1.31607 17.2046 0.999999 18.0002 0.999999ZM18.0002 21C18.7959 21 19.559 20.6839 20.1216 20.1213C20.6842 19.5587 21.0002 18.7956 21.0002 18C21.0002 17.2043 20.6842 16.4413 20.1216 15.8787C19.559 15.3161 18.7959 15 18.0002 15C17.2046 15 16.4415 15.3161 15.8789 15.8787C15.3163 16.4413 15.0002 17.2043 15.0002 18C15.0002 18.7956 15.3163 19.5587 15.8789 20.1213C16.4415 20.6839 17.2046 21 18.0002 21Z" stroke="#D4973B" stroke-width="2" stroke-linecap="round"/>
</svg>
