<svg width="857" height="9" viewBox="0 0 857 9" fill="none" xmlns="http://www.w3.org/2000/svg">
<path d="M218.538 8.99442C216.38 9.02575 215.719 8.92115 215.232 8.78213C214.926 8.68812 215.808 8.58043 214.663 8.5001C215.719 8.48245 216.383 8.42375 217.133 8.37123C217.748 8.32974 218.495 8.30149 219.377 8.25957C218.232 8.20396 217.305 8.16247 216.38 8.11701C216.092 8.09273 215.9 8.06714 215.823 8.0411C213.274 8.14084 210.69 8.03801 208.144 8.03448C207.59 8.16379 205.839 8.20351 204.45 8.27016C200.532 8.2525 196.565 8.22161 192.647 8.24941C192.338 8.23176 192.072 8.21455 191.766 8.1938C191.191 8.14172 188.114 8.2247 190.315 8.023C191.105 7.95018 190.226 7.94665 189.654 7.93605C188.32 7.91575 186.982 7.89854 185.645 7.87868L185.47 7.88751C185.011 7.95989 184.151 7.98549 183.276 8.00888C184.028 8.22514 181.063 8.28119 180.053 8.40256C178.115 8.62854 176.441 8.96661 171.553 8.92821V8.92468C172.52 8.80287 173.405 8.68459 174.418 8.5663C176.484 8.31915 174.461 8.1938 172.171 8.07508C171.072 8.04066 169.264 8.10289 169.132 7.93959C168.869 7.66815 171.862 7.70258 173.757 7.63991C174.092 7.62962 174.433 7.6243 174.776 7.62402C173.662 7.56046 172.664 7.4872 172.217 7.36495C172.03 7.31154 171.633 7.2855 171.143 7.27226C171.501 7.32875 171.574 7.39716 171.375 7.4797C170.76 7.72376 168.954 7.84867 165.829 7.86632C164.731 7.8522 164.115 7.79306 163.366 7.73392C162.178 7.64344 160.767 7.67831 159.491 7.73392C157.951 7.80012 158.872 7.88398 159.267 7.96342C159.399 7.99167 159.05 8.03359 158.961 8.07199C157.315 8.07199 155.631 8.12672 154.196 8.02079C154.462 8.08126 154.352 8.17085 154.073 8.31209C154.159 8.32931 154.205 8.35001 154.205 8.37123C153.06 8.41316 151.915 8.46877 150.725 8.5001C148.435 8.55571 146.412 8.57337 149.449 8.1938C145.31 8.42728 141.742 8.35048 138.745 8.47186C138.181 8.49486 137.587 8.49805 137.012 8.48116C136.438 8.46427 135.899 8.42778 135.443 8.37476C137.38 8.28781 140.202 8.37476 141.653 8.18321C142.473 8.08876 142.954 7.95371 144.028 7.88662C143.669 7.90621 143.341 7.93609 143.064 7.97445C142.008 8.12054 139.627 8.05831 137.778 8.0614C136.765 8.0614 135.752 8.01285 135.62 7.91575C135.601 7.90306 135.602 7.88991 135.622 7.87725C135.642 7.86458 135.681 7.85271 135.737 7.84249C134.852 7.87162 134.038 7.90648 133.551 7.97048C132.186 8.1479 128.798 8.00226 126.686 8.12407C125.012 8.28428 123.249 8.35357 120.828 8.20087C119.946 8.14481 118.624 8.1276 117.433 8.1276C116.335 8.1276 115.325 8.10995 115.104 8.00579C114.927 7.91531 115.41 7.84161 116.381 7.79659C117.446 7.74583 118.483 7.68713 119.64 7.64962C117.143 7.71361 114.765 7.83145 111.973 7.7754C112.542 7.88398 114.266 7.96342 113.298 8.11039L108.674 8.12054C106.651 8.16909 106.996 8.00579 106.204 7.94312C105.062 7.93605 103.917 7.92899 103.651 8.05787C103.477 8.15143 102.947 8.22823 101.671 8.25295C100.352 8.23529 99.6446 8.34298 98.5428 8.35357C96.4737 8.37123 93.7466 8.43037 94.5394 8.12407C93.7895 8.03359 92.7305 8.06846 91.7633 8.07861C90.135 8.10289 88.8127 8.06493 88.372 7.93605C87.9313 7.81424 89.2994 7.77584 90.2238 7.70302L90.4073 7.6889C87.2028 7.77143 87.3008 8.00446 86.4315 8.20087C84.0105 8.3955 81.063 8.42022 77.8922 8.3677H77.3351L77.3229 8.37123H77.2739V8.50363C73.4877 8.5385 69.7017 8.55924 66.3563 8.3677C65.7809 8.31209 64.4158 8.38138 63.7119 8.34563C61.7377 8.40698 59.6473 8.30723 57.6823 8.36461C54.1166 8.40609 51.2517 8.1276 47.5972 8.23176C45.923 8.16203 44.8671 8.10995 44.7783 7.90472C44.6467 7.62269 42.0941 7.76216 40.2882 7.84558C39.673 7.90825 38.9232 7.94974 37.8672 7.94621C32.1866 7.63991 25.6642 7.67831 19.2795 7.61563C15.9342 7.58077 12.0623 7.50397 9.24646 7.29521C7.70392 7.18046 7.48352 7.03746 8.31909 6.88475C9.06586 6.84945 9.59546 6.76956 10.7401 6.80752L10.6973 6.81193C12.194 6.85651 12.5031 6.6963 13.7335 6.69983L13.7795 6.70424C15.166 6.71395 16.7054 6.79031 17.7399 6.64731C17.7655 6.64662 17.7911 6.64589 17.8165 6.6451L17.7859 6.64378C18.444 6.54668 18.8846 6.43502 19.809 6.3516C22.8911 6.07664 20.6017 5.89171 18.2695 5.7037C19.1846 5.63529 20.4426 5.65824 21.4924 5.63176L21.5169 5.6375L21.5261 5.63087L21.4924 5.63176L21.4833 5.63043L21.5261 5.63087L21.5291 5.62734C21.5291 5.5682 21.572 5.50862 21.6179 5.45301C19.5917 5.28971 19.5917 5.122 21.6179 4.95517C24.0511 4.91059 24.7307 4.74729 25.5081 4.59237L25.4499 4.58575C23.9838 4.42113 24.8102 4.2543 25.1591 4.08703L25.2723 4.01509L25.0582 3.9789C24.4736 3.90122 23.384 3.86768 22.4995 3.81295C21.6179 3.76087 19.3254 3.79882 20.0294 3.64568C20.6906 3.50312 22.4137 3.52033 23.9104 3.5936L23.938 3.59624L23.9502 3.5936C25.2541 3.60066 25.9611 3.52298 26.7813 3.46428C24.1491 3.37513 21.4741 3.41926 18.7531 3.43692C17.1041 3.44953 15.4521 3.42238 13.8651 3.35659C13.6478 3.30451 13.957 3.26655 14.3947 3.22816C14.3058 3.19329 13.6049 3.13106 14.2202 3.13106C15.6091 3.13236 16.994 3.15306 18.3552 3.19285C23.8155 3.3535 23.9042 3.34644 23.5094 2.9042C23.3748 2.74399 21.7067 2.83094 21.0027 2.76827C20.4273 2.71972 19.0591 2.68132 19.102 2.64292C19.1938 2.55598 20.2957 2.52111 21.4404 2.52464C22.4963 2.62924 23.7328 2.55995 24.9204 2.54583L24.9602 2.54627C25.4836 2.5039 26.0988 2.49419 25.8845 2.38915C25.2693 2.10006 27.7791 1.81407 26.5915 1.51086C26.512 1.49011 27.4302 1.44465 27.9107 1.41023C28.5718 1.50733 29.0585 1.6159 29.9828 1.69578C31.2162 1.80745 33.9404 1.76905 33.7261 1.68254C33.1537 1.45569 36.0124 1.48658 36.5419 1.36124L36.3491 1.34712C35.3054 1.28268 33.3374 1.3096 33.4629 1.10349C33.5027 0.988738 30.5093 1.18735 29.3646 1.04479C32.4895 0.967995 35.6207 0.888109 38.7916 0.811315C39.8047 0.859863 39.8444 0.934894 39.9178 1.00948C41.6747 0.933569 44.0131 1.07215 45.7241 0.988738L45.7485 0.982118C45.574 0.88502 45.3506 0.787041 45.1732 0.689502C45.3935 0.68244 45.6139 0.675378 45.8771 0.668317C48.0349 0.692591 50.1071 0.633892 52.222 0.609176C53.278 0.599025 53.939 0.609176 54.6001 0.668317C56.4059 0.699653 58.3862 0.811315 59.3963 0.57475C59.485 0.554007 60.8073 0.567688 61.5571 0.564157C61.571 0.562886 61.5853 0.561708 61.6 0.560627C61.5602 0.563717 61.5296 0.56813 61.496 0.570778C61.5457 0.568966 61.5948 0.566756 61.6429 0.564157C62.3346 0.533263 62.9835 0.486038 63.8833 0.504134C64.1373 0.497955 64.3882 0.494424 64.6392 0.487803C66.4451 0.400857 68.2938 0.31347 70.3199 0.257859C72.2115 0.469708 74.5896 0.459558 77.1882 0.362019C78.9052 0.188126 81.4181 0.295815 83.53 0.247267L85.0573 0.302436L85.1154 0.299346C86.0398 0.118392 88.2863 0.264921 89.6085 0.188127C91.1022 0.320532 91.8949 0.184596 92.9509 0.135606C94.5822 0.181065 97.2266 0.034977 97.7103 0.295815C99.6017 0.334213 100.046 0.198719 100.967 0.121923C101.585 0.0799952 102.243 0.0455694 103.125 0.0698442C104.973 0.0243855 106.779 -0.0519695 108.674 0.0521898H110.259V0.0561619C110.568 0.285666 113.47 0.305966 114.526 0.236674C118.753 -0.0382881 123.423 0.142667 126.769 0.243736C130.686 0.362019 131.436 0.264481 132.492 0.0314465C133.417 0.104711 131.485 0.324062 134.873 0.226523C137.469 0.153701 137.959 0.428663 139.498 0.543414H139.847L140.677 0.482949C144.68 0.203573 146.666 0.226965 151.123 0.550476C151.925 0.604762 152.959 0.647573 152.925 0.719514C153.311 0.657284 154.162 0.587109 153.369 0.494425C153.798 0.442345 154.376 0.431311 155.01 0.434842L155.662 0.442345L156.868 0.454702C158.068 0.462206 159.224 0.451613 160.28 0.386292C161.339 0.32009 162.129 0.355398 162.701 0.438813H162.747L162.689 0.441462L162.701 0.442345C164.333 0.51561 166.096 0.550476 167.856 0.505017C171.201 0.418071 174.109 0.494425 177.013 0.609176L177.032 0.613588L177.059 0.606087C178.776 0.672289 180.276 0.898261 182.434 0.630361C182.96 0.567688 184.234 0.665228 184.983 0.724369L184.922 0.727458H184.94C186.789 0.762766 188.463 0.675819 190.226 0.675819C193.042 0.637422 194.628 0.742023 195.335 0.94725C195.641 1.03773 195.378 1.13174 194.233 1.14586C188.598 1.20456 190.444 1.53204 190.358 1.79332L190.49 1.79685C193.967 1.69976 197.226 1.85246 200.617 1.86306L200.529 1.85908C199.69 1.6821 197.401 1.66754 194.845 1.55279C198.307 1.49673 201.312 1.65739 204.015 1.57574C203.452 1.53469 202.898 1.49409 202.203 1.46275C197.358 1.26061 197.095 1.18735 199.604 0.783068C202.114 0.870456 205.417 0.773358 207.443 0.985648C207.969 1.04126 208.588 0.985648 209.114 0.95034C212.946 0.713776 216.87 0.797192 220.788 0.932687C224.191 1.07215 224.381 1.23722 221.357 1.427C220.619 1.47334 220.564 1.55764 219.83 1.60354C219.964 1.66533 219.453 1.7258 219.419 1.78626H219.377L219.358 1.7867C219.392 1.78935 219.432 1.79112 219.462 1.79332C220.255 1.80038 221.005 1.80745 221.798 1.81098C222.382 1.83722 223.006 1.83996 223.6 1.81892C222.97 1.81495 222.339 1.81186 221.712 1.80745C223.781 1.7589 225.584 1.70593 223.031 1.52189L223.83 1.4932C223.726 1.48658 223.616 1.47996 223.515 1.4729C225.186 1.11805 226.468 1.03773 230.343 1.0342C233.731 1.06244 236.899 1.28842 240.554 1.11805C245.94 1.00021 250.85 1.23722 256.099 1.23987L256.234 1.2359C257.556 1.25355 258.921 1.26767 260.243 1.28533L260.203 1.29504C264.868 1.09025 268.654 1.40317 272.924 1.43803C273.407 1.44201 273.631 1.52498 274.73 1.48349C279.642 1.29106 284.634 1.33873 289.589 1.4782C289.745 1.4782 289.898 1.47687 290.052 1.47643C294.982 1.53557 299.873 1.63664 304.85 1.53557V1.5391C308.284 1.54263 311.63 1.6362 315.106 1.60133C316.906 1.62914 318.749 1.66092 320.548 1.68872C322.388 1.67063 324.188 1.57441 326.116 1.66445C327.833 1.67504 329.421 1.69622 331.093 1.59516C333.336 1.45922 334.615 1.66136 336.244 1.7408C337.652 1.81098 339.24 1.78317 340.78 1.78626C344.257 1.79332 347.783 1.74477 351.042 1.89439C353.506 2.00914 355.092 1.77964 357.555 1.79332C360.947 1.81407 364.075 1.98796 367.598 1.90101L367.748 1.89704C369.768 1.74257 372.076 1.77214 374.683 1.98531L374.518 1.99811C375.1 2.01576 375.712 2.02547 376.272 2.00914C381.466 1.85953 386.798 1.99899 392.08 1.95706C394.413 1.93632 396.745 2.07535 399.212 1.97472C400.182 1.97781 401.079 2.01753 402 2.04622C402.068 2.04441 402.137 2.04264 402.205 2.04092H403.708C404.586 2.0268 405.599 2.02636 406.303 1.99149C409.428 1.83525 410.662 1.87674 411.675 2.17288C411.788 2.2069 411.952 2.23684 412.155 2.26051C412.358 2.28419 412.596 2.301 412.85 2.3097C413.554 2.30352 414.274 2.29293 414.987 2.28234C415.147 2.2747 415.305 2.26616 415.461 2.25674C416.698 2.1795 417.215 2.19672 417.527 2.24924C417.807 2.24688 418.087 2.24349 418.366 2.23909C421.359 2.20775 424.401 2.12434 427.263 2.2947C428.188 2.35031 429.464 2.33265 430.609 2.29823C430.829 2.29823 431.052 2.29823 431.27 2.29117L431.34 2.28764C432.809 2.15611 432.809 2.03695 431.138 1.90454C430.036 1.81407 429.201 1.68872 430.783 1.5775C433.03 1.42082 435.5 1.48702 437.7 1.58412C439.24 1.65386 439.769 1.7792 438.625 1.90101C437.149 2.05902 437.642 2.2307 437.654 2.39886L438.202 2.40195C439.451 2.40195 440.513 2.36223 441.471 2.29602L441.443 2.2947C442.294 2.13714 443.702 2.07093 445.67 2.09609C445.93 2.1901 443.868 2.13802 444.262 2.23909C447.299 2.3993 450.203 2.17642 453.2 2.22541C453.197 2.22541 453.194 2.22541 453.19 2.22629L453.246 2.22541L453.344 2.22982C453.809 2.23247 454.275 2.23689 454.739 2.24306C456.808 2.28102 456.943 2.16935 456.854 2.06122C456.723 1.92882 455.578 1.92573 454.256 1.96722C453.42 1.99193 452.539 2.05107 452.012 1.94294C451.749 1.88733 452.187 1.8454 452.759 1.81407C455.709 1.64326 459.453 1.67151 462.709 1.57397C462.798 1.57397 463.015 1.57397 463.061 1.58412C465.045 1.90454 468.568 1.78626 472.048 1.73021C471.518 1.90807 469.801 1.87674 468.522 1.96766C473.468 1.92352 471.619 2.23865 472.73 2.39753C472.782 2.3993 472.831 2.4015 472.883 2.40283C475.953 2.70118 479.072 2.52244 482.185 2.40415C484.18 2.06828 479.837 2.03342 477.946 1.86659C480.764 1.71697 484.245 1.86659 486.975 1.73418C488.162 1.74124 489.833 1.68916 490.274 1.82157C490.758 1.97075 488.909 1.95 487.853 1.99899C485.328 2.11948 486.335 2.35605 485.42 2.5295L485.432 2.5317C488.239 2.4858 490.39 2.73737 493.258 2.67117L493.846 2.65352L493.506 2.616C492.016 2.42799 493.151 2.22276 493.316 2.0268C493.405 1.90498 494.636 1.94647 495.385 1.97428C497.497 2.04401 499.701 2.04048 501.945 2.04401C503.046 2.04401 504.632 2.00561 504.984 2.12389C505.293 2.22496 503.971 2.28057 503.004 2.3331C502.257 2.37105 501.418 2.40283 500.76 2.48316C505.425 2.46903 509.875 2.31544 514.542 2.31235C514.542 2.49463 515.773 2.58952 518.24 2.59702V2.59393L518.246 2.59482L518.24 2.59702H518.292L518.246 2.59482C519.828 2.00208 521.285 1.9681 527.134 2.37458C529.072 2.51052 531.71 2.45844 531.493 2.26689C531.184 2.01974 533.433 2.06828 534.535 2.07888C536.381 2.09256 537.568 2.24659 537.216 2.37193C536.864 2.48978 536.515 2.58025 538.009 2.62218C539.552 2.6672 541.183 2.62218 542.239 2.52111C543.12 2.43417 543.647 2.3225 544.308 2.22541C545.982 1.98487 548.14 1.97119 550.123 2.20113C550.781 2.27749 551.354 2.35693 552.452 2.39886C554.521 2.47565 556.416 2.4964 556.502 2.24924C556.502 2.14508 556.768 2.06828 558.133 2.03695C558.574 1.91867 559.544 1.85599 561.218 1.8529C562.715 1.8529 564.3 1.84893 565.402 1.73771H567.646C568.044 1.76199 568.484 1.78979 569.011 1.78626C573.981 1.73462 574.979 1.9937 575.469 2.29293C577.951 2.28102 580.635 2.19142 582.607 2.40724L582.793 2.40636L582.662 2.40989H583.412L583.467 2.41033C585.003 2.32957 587.035 2.30706 588.125 2.16935V2.16582L588.177 2.172C588.177 2.17024 588.168 2.16759 588.165 2.16582C586.579 1.97075 584.422 2.05107 582.31 2.08947C580.152 2.12787 577.902 2.17288 577.198 1.9222C585.389 1.85599 593.451 1.98134 601.552 2.04754C604.898 2.07535 608.292 2.08947 611.637 2.10668V2.11065C611.645 2.12959 611.674 2.14822 611.723 2.16582V2.16715C617.829 2.28764 624.199 2.22894 630.393 2.27042C634.991 2.29999 639.741 2.36222 644.467 2.35251C643.157 2.20643 642.217 2.03254 639.294 2.02371C638.544 2.02371 637.794 1.94294 638.409 1.85908C641.492 1.66798 645.235 1.84893 648.449 1.74433C648.975 1.96413 651.093 2.11065 652.544 2.28455C656.067 2.2638 658.267 1.95706 662.715 2.05107C661.307 1.85246 658.705 1.90454 657.695 1.77214C663.682 1.55632 670.905 1.79685 677.023 2.40945L676.699 2.41651C678.021 2.62174 680.078 2.61115 682.355 2.53877C682.279 2.36929 684.161 2.1645 680.947 2.05107C685.306 1.89439 687.418 1.93985 689.444 2.23556C690.194 2.34678 690.766 2.4655 692.881 2.4377C694.818 2.40989 695.476 2.3331 695.917 2.17288C696.753 1.85953 698.338 2.1795 699.615 2.16935C702.299 2.1592 701.993 2.28411 701.466 2.42004C701.388 2.43523 701.298 2.44901 701.197 2.46109L701.246 2.46197C702.4 2.41121 703.762 2.39268 704.9 2.33663C705.956 2.28411 706.4 2.23512 705.917 2.14155C705.924 2.12835 705.907 2.1151 705.868 2.10315C706.265 2.01929 707.147 1.99193 708.163 1.98178C709.657 2.0268 711.199 2.02327 712.739 2.01267C714.147 2.00561 715.38 2.01621 715.291 2.16582C718.11 2.44079 719.742 2.46197 722.824 2.22188C724.761 2.06873 726.129 2.11772 728.679 2.15567C734.139 2.23953 739.688 2.44785 745.106 2.38518C749.198 2.33972 752.853 2.33001 756.685 2.41695C759.326 2.5423 762.852 2.39224 765.582 2.5701C763.908 2.7056 761.836 2.52464 760.339 2.64646C761.043 2.78195 763.155 2.72325 764.125 2.82035C761.707 2.9351 760.648 2.93201 757.214 2.80667C755.497 2.74399 754.04 2.64646 752.412 2.86228C751.445 2.99115 749.066 2.86228 747.303 2.86228C745.608 2.86228 743.018 2.73693 742.829 3.01234L742.951 3.02249C747.352 3.00483 751.8 2.99865 756.204 3.04014L756.498 3.04632C764.734 3.01763 772.931 3.16063 781.21 3.09531C790.239 3.05691 799.357 3.1827 808.34 3.04676C812.564 2.98453 816.705 2.88346 821.064 2.90729L821.281 2.90376H821.018C825.07 2.78239 829.297 2.83138 833.349 2.86625C836.343 2.89405 838.5 3.15136 838.458 3.32216C838.326 3.76087 841.586 3.77808 845.46 3.79176C848.408 3.97625 850.039 4.24856 852.549 4.46438L852.518 4.46703L852.592 4.46791C858.667 4.80202 858.407 5.04917 852.154 5.35547C849.644 5.47728 845.91 5.48479 844.809 5.76593C846.385 5.84846 848.399 5.93232 847.658 6.10445C846.78 6.30967 846.425 6.5811 842.375 6.57448C841.659 6.61112 840.952 6.63407 840.199 6.58773C840.165 6.71572 838.699 6.72719 837.49 6.75897C835.994 6.79737 834.362 6.76912 832.954 6.82164C831.118 6.87681 829.713 7.01804 827.494 7.00966C825.557 7.15221 823.133 7.12441 820.8 7.13544C818.159 7.14206 815.426 7.10764 812.83 7.17693C813.271 7.34376 815.248 7.278 815.955 7.36495C812.304 7.5075 810.982 7.4691 807.899 7.25328C806.008 7.12088 803.275 7.13544 800.768 7.13544L800.799 7.13235C799.44 7.12882 798.12 7.14206 796.89 7.19414L796.884 7.19503C798.215 7.35965 800.869 7.28241 802.702 7.35833C802.695 7.38649 802.666 7.41446 802.617 7.44174C798.962 7.44174 795.347 7.43821 791.693 7.44174C790.463 7.44174 789.226 7.39628 789.315 7.60857C789.446 7.81733 786.321 7.76525 784.295 7.7476C782.183 7.59092 780.068 7.7092 777.953 7.7476C775.973 7.76172 773.772 7.69905 772.365 7.88353C771.924 7.94267 770.779 7.94621 770.338 7.8906C768.93 7.71317 766.77 7.75113 764.789 7.75113C759.99 7.75113 755.099 7.77584 752.944 7.31949C752.608 7.25373 751.527 7.25637 750.627 7.25108L750.566 7.25328L749.109 7.26432V7.2599C748.099 7.45145 743.566 7.4691 744.928 7.79659C745.149 7.84514 743.698 7.83101 743.037 7.79659C738.323 7.55958 733.478 7.58033 728.505 7.73038C726.347 7.79659 724.189 7.76878 722.077 7.69552C717.584 7.53884 713.048 7.44527 708.117 7.58077C705.779 7.64609 703.526 7.63682 701.99 7.4541L701.864 7.44836H699.544C698.718 7.60195 699.409 7.73965 700.322 7.87338C700.459 7.89413 701.729 7.89457 700.762 7.92899C698.562 8.00932 699.483 8.30194 696.447 8.30856H687.069C688.874 8.26001 690.723 8.21146 692.615 8.1585C692.615 8.14834 692.789 8.13069 692.792 8.11348C691.911 7.57415 686.23 7.76525 682.312 7.68184L682.273 7.67742L682.266 7.68537C681.122 7.69905 679.977 7.71626 678.832 7.72685C677.645 7.73745 675.75 7.80321 675.487 7.68184C675.224 7.54281 677.293 7.58783 678.434 7.57062L678.459 7.5715L678.48 7.57062C678.811 7.51854 678.548 7.48764 678.137 7.46248L677.688 7.43821C674.605 7.55296 670.997 7.51809 668.089 7.73745C666.198 7.88 662.583 7.74804 659.764 7.73745C658.225 7.73038 656.682 7.69552 655.142 7.73745C653.382 7.786 650.692 7.79306 653.027 8.03315C653.597 8.09273 653.119 8.17924 652.504 8.23176C651.754 8.29796 650.781 8.26265 649.988 8.23176C646.952 8.10995 643.867 7.99475 641.14 7.83454C639.6 7.74407 638.1 7.63329 635.988 7.62976V7.62225L636.05 7.61828C636.016 7.62005 635.976 7.62049 635.943 7.62225C634.535 7.62225 633.212 7.62225 632.068 7.53178C630.13 7.38172 628.943 7.46955 628.15 7.62623L628.11 7.6302L628.141 7.6324C627.192 7.79791 627.764 7.90472 630.13 7.93959C631.759 7.96386 633.436 8.00888 635.067 7.99873C639.597 7.97092 639.643 8.17968 639.156 8.4339H637.571C634.884 8.15188 630.614 8.14526 626.874 8.04772C625.815 8.01991 625.683 8.10333 625.068 8.13466C623.042 8.24941 620.97 8.35401 618.285 8.23926C617.493 8.20396 616.173 8.17306 615.864 8.2525C614.41 8.59058 611.809 8.34695 609.917 8.32268C607.76 8.29487 607.322 8.17262 607.368 7.98151C607.453 7.65403 603.71 7.79306 601.461 7.7551L601.439 7.74892C599.863 7.79438 598.29 7.85794 597.72 7.6505C597.414 7.53575 596.184 7.58077 595.26 7.57062V7.57415C595.247 7.57194 595.244 7.56973 595.235 7.56753L595.211 7.57062C594.118 7.68095 595.89 7.82969 594.406 7.93385L594.461 7.93959C591.115 8.11348 588.648 7.9184 586.007 7.81071H585.964L586.016 7.80806L585.921 7.80718L585.964 7.81071C584.819 7.86279 582.135 7.85264 584.596 8.04021C585.3 8.09273 585.171 8.15541 584.379 8.19733C583.586 8.23882 582.616 8.21455 582.353 8.15894C580.987 7.87691 577.596 8.13069 575.527 7.9846C572.445 7.76569 570.991 8.15894 569.317 8.14834C565.751 8.1276 563.9 8.18674 562.669 8.45155C562.446 8.50319 560.995 8.38888 560.465 8.32268C559.364 8.18674 557.956 8.11701 555.887 8.13069C551.791 8.10995 547.699 8.20749 543.515 8.13069C540.742 8.08214 539.989 8.30856 538.89 8.44405C537.7 8.59058 536.423 8.67444 534.575 8.54203C533.124 8.44096 532.065 8.29796 534.97 8.21808C536.278 8.18499 537.515 8.10871 538.584 7.9952H538.615C539.356 7.90913 540.191 7.81954 538.89 7.72685C536.996 7.59445 534.973 7.70611 532.947 7.70302C533.344 7.84514 535.104 7.77584 535.897 7.86985C533.314 8.08788 529.944 7.96916 526.96 8.00226C527.621 8.10333 529.072 8.10686 530.039 8.15232C530.036 8.23882 525.552 8.14526 528.894 8.36417C529.815 8.42375 528.894 8.48245 528.016 8.47892C526.387 8.47892 525.46 8.55262 524.315 8.62545C522.907 8.71283 521.319 8.79228 519.385 8.69871C520.615 8.5663 517.27 8.34342 520.835 8.25648C521.496 8.23882 522.026 8.17968 523.523 8.07552C519.562 8.06846 516.826 8.08876 514.493 8.25648L514.451 8.25295C514.16 8.25295 513.869 8.24986 513.539 8.24632L513.523 8.25295C511.592 8.2631 511.941 8.15894 512.072 8.06846C512.018 8.0646 511.962 8.06121 511.904 8.05831C510.323 8.05834 508.745 8.07812 507.188 8.11745C502.609 8.23926 501.241 8.2322 496.004 8.07243C496.301 7.96165 498.146 7.98328 498.633 7.89148C495.909 7.89148 493.978 7.82483 494.063 7.57459L493.956 7.56929C489.965 7.67301 489.411 7.78114 492.172 7.97842C489.794 8.0689 487.633 8.13864 484.948 8.15585C480.722 8.18718 476.36 8.24986 473.587 8.55615H466.719C466.63 8.46612 467.818 8.48686 468.127 8.43831C467.952 8.38226 469.887 8.37211 468.216 8.26398C466.89 8.17571 467.218 8.00049 466.694 7.85176C466.737 7.94135 466.336 8.00314 464.901 8.00535L464.913 8.01285C464.736 8.15894 463.416 8.20484 461.874 8.23617C459.278 8.23617 457.381 8.15938 456.634 7.94665C455.973 7.801 455.269 7.90163 454.608 7.94665C453.772 8.05831 452.848 8.16291 450.867 8.13113L450.818 8.12804C445.989 8.10686 441.113 8.08656 436.807 8.31429L436.819 8.31562C436.51 8.33327 436.246 8.35093 435.937 8.37167C432.332 8.44493 429.96 8.35093 428.901 8.06316L428.892 8.06537C422.727 8.01682 417.356 8.28119 411.412 8.33018C409.826 8.34386 408.372 8.36814 406.919 8.31253L406.876 8.30944L405.979 8.309C403.938 8.30149 402.306 8.24324 401.152 8.07552C400.448 7.97842 399.827 7.84955 398.202 7.80409L398.189 7.80144C397.675 7.82174 397.118 7.84558 396.601 7.86941L396.613 7.87382C396.659 7.91575 396.745 7.95768 396.791 7.99917H396.69C396.059 8.21234 393.828 8.29178 391.551 8.34342C389.702 8.38535 389.88 8.25692 389.396 8.15938C388.867 8.05125 387.544 8.0027 386.357 8.15232C385.432 8.2706 384.946 8.41713 383.36 8.50098C378.87 8.41007 373.936 8.52129 369.667 8.31915C368.785 8.27766 367.647 8.31959 366.765 8.36814C365.807 8.35534 364.727 8.37741 364.118 8.29487C365.262 8.08964 368.568 8.16997 369.976 8.0027C367.613 7.97887 365.293 7.95724 362.973 7.93297C362.955 7.93385 362.939 7.93561 362.918 7.9365H362.927C360.861 8.0998 361.562 8.403 358.217 8.50054C356.105 8.62589 352.888 8.55615 351.214 8.75432C349.145 8.72652 347.428 8.60867 345.138 8.61176C344.171 8.61176 344.477 8.55218 344.918 8.50716C344.919 8.50033 344.939 8.49385 344.973 8.48907L344.918 8.48642C342.582 8.25339 340.471 8.31297 338.533 8.52526C337.211 8.56719 335.935 8.62589 334.438 8.63295L334.612 8.61883C333.119 8.61883 331.665 8.61529 330.168 8.61176C327.264 8.50761 328.274 8.27413 327.438 8.10377C327.04 8.02344 327.349 7.8981 325.807 7.88044C324.488 7.86279 324.356 7.97445 323.741 8.03712C321.935 8.21808 317.307 8.20793 314.403 8.01991C314.271 8.00976 314.182 7.99564 314.051 7.98196C314.314 8.01285 314.488 8.04816 314.271 8.08611C313.224 8.20616 311.844 8.1938 310.463 8.17659C311.519 8.21631 312.624 8.2525 312.333 8.37873C311.804 8.61529 308.768 8.52482 307.094 8.61176C305.07 8.63295 303.041 8.74064 300.972 8.61883C301.104 8.60117 301.235 8.58043 301.453 8.57337C304.425 8.44979 305.793 8.2834 304.238 8.03183C304.157 8.02291 304.08 8.01317 304.008 8.0027C304.275 7.98196 304.498 7.95062 304.804 7.9365C309.074 7.74495 308.985 7.74495 304.715 7.51501C302.998 7.42453 302.597 7.19458 299.472 7.25726C295.778 7.33052 299.867 7.58827 297.67 7.69243C297.318 7.71008 297.186 7.7626 297.008 7.80056C295.775 8.05125 293.645 8.12186 290.621 8.01241C289.963 8.12054 288.555 8.11745 287.413 8.15938C285.298 8.23926 282.262 8.23926 282.611 8.53497C282.743 8.62589 281.157 8.63295 280.318 8.67488C280.098 8.67488 279.878 8.6815 279.703 8.68503C277.105 8.73358 275.654 8.66737 275.17 8.44449C274.73 8.22514 273.322 8.0027 276.753 7.85308C277.059 7.83896 277.105 7.79703 276.93 7.76922C276.621 7.72421 276.092 7.7348 275.562 7.74495C274.2 7.77629 273.582 7.87029 272.789 7.95018C271.121 8.10642 269.407 8.26972 266.297 8.21499C265.893 8.23485 265.397 8.24456 264.862 8.24986C261.516 8.22205 258.48 8.21896 257.115 8.54556C256.102 8.7861 252.622 8.7477 250.727 8.73402C247.471 8.7093 245.267 8.82405 242.757 8.92865C241.876 8.97411 241.218 8.9772 241.218 8.87304V8.8139C239.853 8.4414 240.425 8.38579 245.267 8.45553C246.632 8.47627 247.734 8.45862 248.527 8.36108C250.115 8.03227 250.957 7.95768 253.393 8.02697C253.399 7.97269 253.525 7.91708 253.546 7.8597C253.586 7.76613 253.739 7.64344 251.952 7.6505C252.227 7.77408 250.997 7.86235 249.892 7.89457C246.984 7.97136 245.136 8.15585 242.669 8.27766C239.764 8.48995 237.031 8.43081 233.906 8.20131C234.304 8.37167 235.314 8.52835 232.672 8.56675C231.748 8.60161 230.867 8.64707 229.899 8.67135C226.202 8.76535 226.028 8.74064 226.334 8.4414C226.465 8.31915 226.245 8.16644 224.133 8.12098C222.945 7.98416 223.861 7.94665 224.858 7.91134C224.271 7.91046 223.735 7.90207 223.426 7.87382C220.494 7.59136 218.921 7.78908 217.243 7.96386C221.556 8.06096 222.223 8.14305 220.916 8.37873C220.607 8.50761 218.85 8.59499 219.377 8.74417C219.949 8.84524 219.946 8.93572 218.538 8.99486V8.99442ZM55.0715 1.24031C55.3815 1.21678 55.6669 1.18707 55.9193 1.15204C55.5795 1.15866 55.2429 1.16528 54.9092 1.17278C55.0684 1.1922 55.1144 1.21515 55.0715 1.24031ZM145.889 1.68254C146.113 1.67002 146.348 1.66157 146.587 1.65739C146.978 1.65384 147.37 1.65075 147.762 1.64812C148.093 1.62384 148.38 1.59516 148.656 1.56559C147.891 1.54043 147.566 1.48923 147.291 1.43539C146.887 1.51968 146.149 1.59604 145.889 1.68254ZM185.179 1.67813C185.503 1.66674 185.836 1.66242 186.168 1.66533C185.749 1.61016 185.286 1.55058 184.589 1.49056C184.775 1.57 185.149 1.62517 185.179 1.67813ZM235.54 1.7739C237.187 1.6415 239.112 1.55411 241.218 1.49629C238.85 1.52573 236.533 1.61242 234.365 1.75272L234.392 1.75139C234.845 1.75139 235.253 1.75713 235.54 1.7739ZM156.702 1.52057L156.644 1.53292H156.666C156.678 1.52851 156.687 1.52454 156.702 1.52057ZM211.627 1.66092C211.974 1.60116 212.456 1.56099 212.989 1.54749C212.26 1.53425 211.563 1.55632 210.892 1.64282C211.142 1.64351 211.39 1.64961 211.627 1.66092ZM136.376 1.60001C136.168 1.58677 136.012 1.58986 136.294 1.60619C136.376 1.60884 136.465 1.61149 136.548 1.61502L136.376 1.60001ZM515.598 2.64028C516.492 2.6425 517.383 2.62841 518.252 2.59835C517.371 2.61733 516.486 2.63057 515.598 2.64028ZM95.0199 6.82738C96.1677 6.8393 97.4318 6.79737 98.6254 6.78766L98.5917 6.77971C99.7732 6.62083 99.0233 6.5533 97.5664 6.51799C97.3919 6.67291 96.8349 6.79737 95.0199 6.82738ZM816.88 6.68571C817.232 6.68571 817.584 6.67202 817.939 6.66805C817.541 6.67202 817.143 6.68615 816.794 6.68262C815.784 6.6707 815.325 6.63627 815.664 6.57051L815.533 6.56742H806.351C809.831 6.64931 813.353 6.68888 816.88 6.68571ZM244.514 6.89755C244.496 6.89491 244.487 6.89138 244.471 6.88873L244.303 6.90197L244.514 6.89755ZM267.283 6.97832C267.347 6.95184 267.28 6.92448 267.203 6.89755C267.05 6.89844 266.9 6.89755 266.75 6.89579L266.799 6.90153C267.02 6.9258 266.845 6.9642 267.283 6.97832ZM276.483 6.97611C276.883 6.98639 277.292 6.98669 277.692 6.977C277.288 6.9792 276.887 6.9792 276.483 6.97611ZM225.816 7.3186C225.556 7.30074 225.334 7.27281 225.177 7.2379C225.02 7.203 224.933 7.16249 224.926 7.12088C225.495 7.04099 226.272 7.01054 227.083 6.99862C226.125 7.00304 225.223 7.02952 224.748 7.14868C224.748 7.22857 224.972 7.28815 225.816 7.3186ZM291.637 7.06527C291.551 7.1072 292.295 7.05159 291.766 7.06218C291.722 7.04316 291.726 7.02253 291.778 7.00392C291.631 7.00436 291.481 7.00392 291.334 7.00215C291.443 7.02237 291.544 7.04344 291.637 7.06527ZM24.6082 8.03006C22.3188 8.05081 20.0753 7.92237 17.6971 8.00226C12.194 7.93297 6.64185 7.88044 1.27032 7.7551V7.7476C1.3476 7.74042 1.4212 7.73246 1.49066 7.72376C2.28339 7.59136 -1.45685 7.51103 0.655029 7.38569C2.54962 7.27094 4.26672 7.43424 6.07257 7.46602C12.0165 7.56664 17.6114 7.84558 24.0848 7.70302H24.4796C26.5486 7.72376 29.6308 7.72376 29.588 7.90119C29.588 8.06449 26.3712 8.01241 24.6082 8.03006ZM229.315 7.79306C230.025 7.77217 230.711 7.73696 231.353 7.68846C232.737 7.58695 234.252 7.55164 235.892 7.55473C234.613 7.43291 232.984 7.38481 230.692 7.37863C230.11 7.37774 229.422 7.38216 228.727 7.38304C229.563 7.4157 230.208 7.4691 230.386 7.56708C230.567 7.67213 230.077 7.74009 229.315 7.79306ZM139.954 7.50618C140.332 7.47809 140.729 7.45576 141.139 7.43953C140.551 7.44704 139.905 7.4541 139.939 7.48014C139.951 7.48897 139.948 7.49735 139.954 7.50618ZM202.586 7.80277C200.865 7.68007 199.072 7.56311 197.147 7.46248C197.832 7.52459 198.534 7.5826 199.252 7.63638C200.161 7.70567 201.19 7.80409 202.586 7.80277ZM579.359 7.57238C579.176 7.55163 578.969 7.53564 578.747 7.52516C578.309 7.5 577.749 7.48676 577.159 7.47661L577.067 7.48014C576.672 7.49779 576.231 7.51103 575.836 7.52516L575.708 7.52825C576.35 7.52869 576.993 7.53089 577.645 7.53531C578.221 7.54193 578.793 7.55738 579.359 7.57238ZM93.7007 7.49823L93.5293 7.50132L93.4895 7.50574L93.7007 7.49823ZM60.7613 7.62976V7.63285L60.4062 7.61872L60.2716 7.61916C60.4686 7.62848 60.6677 7.63687 60.8685 7.64432L60.7613 7.62976ZM58.3281 7.77805C58.8912 7.72465 59.6473 7.67522 60.1492 7.62005C59.9442 7.62225 59.739 7.62446 59.5339 7.62534C59.332 7.67654 58.4658 7.72597 58.3281 7.77805ZM628.141 7.6324L628.15 7.62976V7.63285L628.141 7.6324ZM400.17 7.66506C400.118 7.66153 400.072 7.65712 400.023 7.65271C400.009 7.65882 399.986 7.6644 399.956 7.66904L400.17 7.66506ZM404.455 7.72023C404.167 7.68272 403.751 7.67389 403.279 7.67433C403.729 7.68841 404.168 7.70897 404.589 7.73568C404.547 7.73038 404.495 7.72553 404.455 7.72023ZM559.869 7.74539C560.509 7.75056 561.152 7.74671 561.788 7.73392C562.231 7.72332 562.681 7.7145 563.128 7.70434C562.369 7.71317 561.613 7.722 560.863 7.73392C560.542 7.73921 560.208 7.74274 559.869 7.74539ZM137.646 7.78953C138.219 7.79703 139.015 7.77893 138.969 7.7476C138.959 7.73877 138.966 7.72906 138.963 7.72068C138.537 7.74936 138.011 7.77055 137.447 7.78864C137.514 7.78899 137.58 7.78899 137.646 7.78953ZM429.155 8.01241C431.123 7.90869 433.155 7.85529 435.221 7.92679C434.86 7.89015 434.606 7.85043 434.603 7.80321C433.296 7.8928 432.056 7.8906 430.807 7.78644C430.501 7.88353 429.442 7.93826 428.438 7.99564C428.876 7.99167 429.02 8.01329 428.901 8.06007L429.155 8.01241ZM374.313 7.84646L374.359 7.85661C374.965 7.8672 375.562 7.88221 376.162 7.89633C375.543 7.88089 374.928 7.86323 374.313 7.84646ZM350.139 8.24765C349.555 8.12098 348.407 8.00932 348.04 7.87691C346.913 7.92679 345.398 7.89633 344.036 7.98151C347.085 7.97534 349.126 8.0614 350.139 8.24765ZM153.262 7.94047C152.984 7.92281 152.693 7.91619 152.39 7.91531C152.684 7.92109 152.975 7.9295 153.262 7.94047ZM321.32 8.70886C319.997 8.82714 318.541 8.92115 317.396 8.69121C316.958 8.6047 316.074 8.57646 315.018 8.55571H315.061C316.248 8.38888 319.156 8.40565 320.389 8.22823C320.83 8.16203 322.728 8.16556 323.563 8.23176C324.751 8.32886 323.649 8.42022 322.945 8.50363C322.415 8.57337 321.978 8.64928 321.32 8.70886ZM294.101 8.86245C292.913 8.80993 292.65 8.69518 292.647 8.58749C292.647 8.49701 293.265 8.44802 294.321 8.45155C295.245 8.45155 296.653 8.39947 296.874 8.52085C297.005 8.58705 297.357 8.6356 297.798 8.68459C297.051 8.70886 296.259 8.7296 295.512 8.75388C294.808 8.77153 295.157 8.90747 294.101 8.86245Z" fill="#D89E52"/>
</svg>
