<svg width="271" height="9" viewBox="0 0 271 9" fill="none" xmlns="http://www.w3.org/2000/svg">
<path d="M69.1059 8.99442C68.4236 9.02575 68.2145 8.92115 68.0607 8.78213C67.9639 8.68812 68.2426 8.58043 67.8806 8.5001C68.2145 8.48245 68.4246 8.42375 68.6617 8.37123C68.8562 8.32974 69.0924 8.30149 69.3711 8.25957C69.0092 8.20396 68.7159 8.16247 68.4236 8.11701C68.3326 8.09273 68.2717 8.06714 68.2475 8.0411C67.4412 8.14084 66.6244 8.03801 65.8191 8.03448C65.6439 8.16379 65.0903 8.20351 64.6509 8.27016C63.412 8.2525 62.1577 8.22161 60.9188 8.24941C60.8211 8.23176 60.7369 8.21455 60.6401 8.1938C60.4581 8.14172 59.4854 8.2247 60.1813 8.023C60.431 7.95018 60.1533 7.94665 59.9723 7.93605C59.5503 7.91575 59.1273 7.89854 58.7044 7.87868L58.6492 7.88751C58.504 7.95989 58.2321 7.98549 57.9553 8.00888C58.1934 8.22514 57.2555 8.28119 56.9361 8.40256C56.3235 8.62854 55.7941 8.96661 54.2484 8.92821V8.92468C54.5542 8.80287 54.8339 8.68459 55.1543 8.5663C55.8076 8.31915 55.1678 8.1938 54.4439 8.07508C54.0964 8.04066 53.5244 8.10289 53.4828 7.93959C53.3996 7.66815 54.3461 7.70258 54.9452 7.63991C55.0512 7.62962 55.1592 7.6243 55.2675 7.62402C54.9152 7.56046 54.5997 7.4872 54.4584 7.36495C54.3994 7.31154 54.2735 7.2855 54.1187 7.27226C54.2319 7.32875 54.2552 7.39716 54.1922 7.4797C53.9977 7.72376 53.4267 7.84867 52.4385 7.86632C52.091 7.8522 51.8965 7.79306 51.6594 7.73392C51.2838 7.64344 50.8376 7.67831 50.4341 7.73392C49.9472 7.80012 50.2386 7.88398 50.3634 7.96342C50.405 7.99167 50.2947 8.03359 50.2666 8.07199C49.7459 8.07199 49.2136 8.12672 48.7597 8.02079C48.8439 8.08126 48.809 8.17085 48.7209 8.31209C48.7482 8.32931 48.7627 8.35001 48.7626 8.37123C48.4006 8.41316 48.0386 8.46877 47.6621 8.5001C46.9382 8.55571 46.2984 8.57337 47.2585 8.1938C45.95 8.42728 44.8214 8.35048 43.8739 8.47186C43.6955 8.49486 43.5076 8.49805 43.3259 8.48116C43.1442 8.46427 42.974 8.42778 42.8296 8.37476C43.4423 8.28781 44.3346 8.37476 44.7934 8.18321C45.0528 8.08876 45.2047 7.95371 45.5444 7.88662C45.4309 7.90621 45.3271 7.93609 45.2396 7.97445C44.9057 8.12054 44.1527 8.05831 43.5681 8.0614C43.2477 8.0614 42.9274 8.01285 42.8857 7.91575C42.8797 7.90306 42.8798 7.88991 42.8862 7.87725C42.8925 7.86458 42.905 7.85271 42.9225 7.84249C42.6428 7.87162 42.3854 7.90648 42.2315 7.97048C41.7998 8.1479 40.7284 8.00226 40.0606 8.12407C39.5312 8.28428 38.9737 8.35357 38.2081 8.20087C37.9294 8.14481 37.5112 8.1276 37.1347 8.1276C36.7873 8.1276 36.4679 8.10995 36.3982 8.00579C36.3421 7.91531 36.495 7.84161 36.8018 7.79659C37.1386 7.74583 37.4667 7.68713 37.8326 7.64962C37.0428 7.71361 36.2908 7.83145 35.4081 7.7754C35.5881 7.88398 36.133 7.96342 35.8272 8.11039L34.3647 8.12054C33.725 8.16909 33.8344 8.00579 33.5837 7.94312C33.2227 7.93605 32.8607 7.92899 32.7765 8.05787C32.7213 8.15143 32.5539 8.22823 32.1503 8.25295C31.7331 8.23529 31.5096 8.34298 31.1611 8.35357C30.5069 8.37123 29.6445 8.43037 29.8952 8.12407C29.6581 8.03359 29.3232 8.06846 29.0173 8.07861C28.5024 8.10289 28.0843 8.06493 27.9449 7.93605C27.8056 7.81424 28.2382 7.77584 28.5305 7.70302L28.5886 7.6889C27.5752 7.77143 27.6062 8.00446 27.3313 8.20087C26.5658 8.3955 25.6337 8.42022 24.631 8.3677H24.4548L24.451 8.37123H24.4355V8.50363C23.2383 8.5385 22.041 8.55924 20.9832 8.3677C20.8012 8.31209 20.3696 8.38138 20.1469 8.34563C19.5227 8.40698 18.8616 8.30723 18.2403 8.36461C17.1127 8.40609 16.2068 8.1276 15.0512 8.23176C14.5218 8.16203 14.1879 8.10995 14.1598 7.90472C14.1182 7.62269 13.311 7.76216 12.7399 7.84558C12.5454 7.90825 12.3083 7.94974 11.9744 7.94621C10.178 7.63991 8.11551 7.67831 6.09656 7.61563C5.0387 7.58077 3.81436 7.50397 2.92392 7.29521C2.43613 7.18046 2.36642 7.03746 2.63065 6.88475C2.86679 6.84945 3.03427 6.76956 3.39624 6.80752L3.38269 6.81193C3.85596 6.85651 3.95374 6.6963 4.3428 6.69983L4.35733 6.70424C4.79578 6.71395 5.28256 6.79031 5.60971 6.64731C5.6178 6.64662 5.62589 6.64589 5.63394 6.6451L5.62424 6.64378C5.83234 6.54668 5.97168 6.43502 6.26398 6.3516C7.23862 6.07664 6.51468 5.89171 5.77716 5.7037C6.06656 5.63529 6.46436 5.65824 6.79633 5.63176L6.80405 5.6375L6.80695 5.63087L6.79633 5.63176L6.79343 5.63043L6.80695 5.63087L6.80792 5.62734C6.80792 5.5682 6.82147 5.50862 6.836 5.45301C6.19528 5.28971 6.19528 5.122 6.836 4.95517C7.60544 4.91059 7.82031 4.74729 8.06616 4.59237L8.04776 4.58575C7.58417 4.42113 7.84549 4.2543 7.95581 4.08703L7.99161 4.01509L7.92389 3.9789C7.73901 3.90122 7.39447 3.86768 7.11475 3.81295C6.836 3.76087 6.11108 3.79882 6.33368 3.64568C6.54272 3.50312 7.08768 3.52033 7.56094 3.5936L7.56964 3.59624L7.57352 3.5936C7.98581 3.60066 8.20938 3.52298 8.46878 3.46428C7.63641 3.37513 6.79053 3.41926 5.93011 3.43692C5.40869 3.44953 4.88626 3.42238 4.38443 3.35659C4.3157 3.30451 4.41345 3.26655 4.55185 3.22816C4.52377 3.19329 4.30215 3.13106 4.4967 3.13106C4.93591 3.13236 5.37384 3.15306 5.80429 3.19285C7.53094 3.3535 7.55899 3.34644 7.43414 2.9042C7.39157 2.74399 6.86404 2.83094 6.64145 2.76827C6.4595 2.71972 6.02689 2.68132 6.04044 2.64292C6.06946 2.55598 6.41791 2.52111 6.77988 2.52464C7.1138 2.62924 7.50479 2.55995 7.88031 2.54583L7.89291 2.54627C8.05841 2.5039 8.25293 2.49419 8.18518 2.38915C7.99063 2.10006 8.78427 1.81407 8.40875 1.51086C8.38358 1.49011 8.67395 1.44465 8.8259 1.41023C9.03494 1.50733 9.18884 1.6159 9.48114 1.69578C9.87119 1.80745 10.7326 1.76905 10.6649 1.68254C10.4839 1.45569 11.3878 1.48658 11.5553 1.36124L11.4943 1.34712C11.1642 1.28268 10.5419 1.3096 10.5816 1.10349C10.5942 0.988738 9.64761 1.18735 9.28564 1.04479C10.2738 0.967995 11.264 0.88811 12.2667 0.811315C12.587 0.859863 12.5996 0.934894 12.6228 1.00948C13.1783 0.933569 13.9178 1.07215 14.4588 0.988738L14.4666 0.982118C14.4114 0.88502 14.3408 0.787041 14.2846 0.689502C14.3543 0.68244 14.424 0.675379 14.5072 0.668317C15.1896 0.692591 15.8448 0.633891 16.5136 0.609176C16.8475 0.599025 17.0565 0.609176 17.2656 0.668317C17.8366 0.699653 18.4629 0.811315 18.7823 0.57475C18.8103 0.554007 19.2284 0.567688 19.4656 0.564157C19.47 0.562886 19.4745 0.561708 19.4791 0.560627C19.4665 0.563717 19.4569 0.56813 19.4462 0.570778C19.462 0.568966 19.4775 0.566755 19.4927 0.564157C19.7114 0.533263 19.9166 0.486039 20.2011 0.504134C20.2815 0.497955 20.3608 0.494424 20.4402 0.487803C21.0112 0.400857 21.5958 0.31347 22.2365 0.257859C22.8347 0.469708 23.5867 0.459558 24.4084 0.362019C24.9514 0.188126 25.746 0.295815 26.4138 0.247267L26.8968 0.302436L26.9152 0.299346C27.2075 0.118392 27.9178 0.264922 28.336 0.188127C28.8083 0.320532 29.059 0.184596 29.3929 0.135606C29.9087 0.181065 30.7449 0.034977 30.8979 0.295815C31.496 0.334213 31.6364 0.198719 31.9277 0.121923C32.1232 0.0799952 32.3313 0.0455704 32.61 0.0698442C33.1946 0.0243855 33.7656 -0.0519695 34.3647 0.0521898H34.8661V0.0561619C34.9638 0.285665 35.8814 0.305966 36.2153 0.236674C37.5519 -0.0382881 39.0288 0.142667 40.0867 0.243736C41.3256 0.362019 41.5627 0.264481 41.8966 0.0314465C42.1889 0.104711 41.5782 0.324062 42.6496 0.226523C43.4703 0.153701 43.6252 0.428662 44.112 0.543414H44.2224L44.4846 0.482949C45.7506 0.203573 46.3787 0.226965 47.7879 0.550476C48.0415 0.604762 48.3687 0.647573 48.358 0.719514C48.4799 0.657284 48.749 0.587109 48.4983 0.494425C48.6338 0.442346 48.8168 0.431312 49.0171 0.434842L49.2233 0.442345L49.6046 0.454702C49.984 0.462205 50.3499 0.451612 50.6838 0.386292C51.0186 0.320089 51.2684 0.355398 51.4493 0.438813H51.4639L51.4455 0.441462L51.4493 0.442345C51.9652 0.515609 52.5227 0.550476 53.0792 0.505017C54.1371 0.418071 55.0565 0.494424 55.975 0.609176L55.9808 0.613588L55.9895 0.606087C56.5325 0.67229 57.0068 0.898261 57.6891 0.630361C57.8556 0.567689 58.2582 0.665228 58.4953 0.724369L58.476 0.727458H58.4818C59.0664 0.762766 59.5958 0.675819 60.1533 0.675819C61.0437 0.637422 61.5451 0.742022 61.7686 0.94725C61.8654 1.03773 61.7822 1.13174 61.4202 1.14586C59.6384 1.20456 60.222 1.53204 60.1949 1.79332L60.2365 1.79685C61.336 1.69976 62.3668 1.85246 63.4391 1.86306L63.4111 1.85908C63.1459 1.6821 62.4219 1.66754 61.6138 1.55279C62.7084 1.49673 63.6589 1.65739 64.5135 1.57574C64.3354 1.53469 64.1602 1.49409 63.9405 1.46275C62.4084 1.26061 62.3251 1.18735 63.1188 0.783068C63.9124 0.870456 64.9567 0.773358 65.5975 0.985648C65.7639 1.04126 65.9594 0.985648 66.1259 0.95034C67.3377 0.713776 68.5785 0.797192 69.8173 0.932687C70.8936 1.07215 70.9536 1.23722 69.9973 1.427C69.7641 1.47334 69.7467 1.55764 69.5144 1.60354C69.557 1.66533 69.3953 1.7258 69.3847 1.78626H69.3711L69.3653 1.7867C69.376 1.78935 69.3886 1.79112 69.3982 1.79332C69.6489 1.80038 69.886 1.80745 70.1367 1.81098C70.3216 1.83722 70.5187 1.83996 70.7068 1.81892C70.5074 1.81495 70.308 1.81186 70.1096 1.80745C70.7639 1.7589 71.3339 1.70593 70.5267 1.52189L70.7794 1.4932C70.7465 1.48658 70.7116 1.47996 70.6797 1.4729C71.2081 1.11805 71.6136 1.03773 72.839 1.0342C73.9104 1.06244 74.9121 1.28842 76.0677 1.11805C77.7711 1.00021 79.3236 1.23722 80.9835 1.23987L81.026 1.2359C81.4442 1.25355 81.8758 1.26767 82.2939 1.28533L82.2814 1.29504C83.7564 1.09025 84.9536 1.40317 86.3038 1.43803C86.4567 1.44201 86.5273 1.52498 86.8748 1.48349C88.4282 1.29106 90.0068 1.33873 91.5738 1.4782C91.6231 1.4782 91.6715 1.47687 91.7199 1.47643C93.2791 1.53557 94.8258 1.63664 96.3995 1.53557V1.5391C97.4854 1.54263 98.5433 1.6362 99.6428 1.60133C100.212 1.62914 100.795 1.66092 101.364 1.68872C101.945 1.67063 102.514 1.57441 103.124 1.66445C103.667 1.67504 104.169 1.69622 104.698 1.59516C105.407 1.45922 105.812 1.66136 106.327 1.7408C106.772 1.81098 107.274 1.78317 107.761 1.78626C108.861 1.79332 109.976 1.74477 111.006 1.89439C111.785 2.00914 112.287 1.77964 113.066 1.79332C114.138 1.81407 115.128 1.98796 116.242 1.90101L116.289 1.89704C116.928 1.74257 117.657 1.77214 118.482 1.98531L118.43 1.99811C118.614 2.01576 118.807 2.02547 118.984 2.00914C120.627 1.85953 122.313 1.99899 123.983 1.95706C124.721 1.93632 125.458 2.07535 126.238 1.97472C126.545 1.97781 126.829 2.01753 127.12 2.04622C127.142 2.04441 127.163 2.04264 127.185 2.04092H127.66C127.938 2.0268 128.258 2.02636 128.481 1.99149C129.469 1.83525 129.859 1.87674 130.18 2.17288C130.215 2.2069 130.267 2.23684 130.331 2.26051C130.396 2.28419 130.471 2.301 130.551 2.3097C130.774 2.30352 131.001 2.29293 131.227 2.28234C131.278 2.2747 131.328 2.26616 131.377 2.25674C131.768 2.1795 131.931 2.19672 132.03 2.24924C132.119 2.24688 132.207 2.24349 132.295 2.23909C133.242 2.20775 134.204 2.12434 135.109 2.2947C135.401 2.35031 135.805 2.33265 136.167 2.29823C136.236 2.29823 136.307 2.29823 136.376 2.29117L136.398 2.28764C136.863 2.15611 136.863 2.03695 136.334 1.90454C135.986 1.81407 135.722 1.68872 136.222 1.5775C136.932 1.42082 137.713 1.48702 138.409 1.58412C138.896 1.65386 139.064 1.7792 138.702 1.90101C138.235 2.05902 138.391 2.2307 138.395 2.39886L138.568 2.40195C138.963 2.40195 139.299 2.36223 139.602 2.29602L139.593 2.2947C139.862 2.13714 140.307 2.07093 140.93 2.09609C141.012 2.1901 140.36 2.13802 140.484 2.23909C141.444 2.3993 142.363 2.17642 143.311 2.22541C143.31 2.22541 143.309 2.22541 143.308 2.22629L143.325 2.22541L143.356 2.22982C143.503 2.23247 143.651 2.23689 143.797 2.24306C144.452 2.28102 144.494 2.16935 144.466 2.06122C144.425 1.92882 144.063 1.92573 143.644 1.96722C143.38 1.99193 143.101 2.05107 142.935 1.94294C142.852 1.88733 142.99 1.8454 143.171 1.81407C144.104 1.64326 145.288 1.67151 146.318 1.57397C146.346 1.57397 146.414 1.57397 146.429 1.58412C147.056 1.90454 148.17 1.78626 149.271 1.73021C149.103 1.90807 148.56 1.87674 148.156 1.96766C149.72 1.92352 149.135 2.23865 149.486 2.39753C149.503 2.3993 149.518 2.4015 149.535 2.40283C150.506 2.70118 151.492 2.52244 152.476 2.40415C153.107 2.06828 151.734 2.03342 151.136 1.86659C152.027 1.71697 153.127 1.86659 153.991 1.73418C154.366 1.74124 154.895 1.68916 155.034 1.82157C155.187 1.97075 154.602 1.95 154.269 1.99899C153.47 2.11948 153.789 2.35605 153.499 2.5295L153.503 2.5317C154.391 2.4858 155.071 2.73737 155.978 2.67117L156.164 2.65352L156.056 2.616C155.585 2.42799 155.944 2.22276 155.996 2.0268C156.024 1.90498 156.413 1.94647 156.65 1.97428C157.318 2.04401 158.015 2.04048 158.725 2.04401C159.073 2.04401 159.574 2.00561 159.686 2.12389C159.783 2.22496 159.365 2.28057 159.059 2.3331C158.823 2.37105 158.558 2.40283 158.35 2.48316C159.825 2.46903 161.232 2.31544 162.708 2.31235C162.708 2.49463 163.097 2.58952 163.877 2.59702V2.59393L163.879 2.59482L163.877 2.59702H163.894L163.879 2.59482C164.38 2.00208 164.84 1.9681 166.69 2.37458C167.303 2.51052 168.137 2.45844 168.068 2.26689C167.971 2.01974 168.682 2.06828 169.03 2.07888C169.614 2.09256 169.989 2.24659 169.878 2.37193C169.767 2.48978 169.657 2.58025 170.129 2.62218C170.617 2.6672 171.133 2.62218 171.466 2.52111C171.745 2.43416 171.912 2.3225 172.121 2.22541C172.65 1.98487 173.332 1.97119 173.96 2.20113C174.168 2.27749 174.349 2.35693 174.696 2.39886C175.35 2.47565 175.95 2.4964 175.977 2.24924C175.977 2.14508 176.061 2.06828 176.493 2.03695C176.632 1.91867 176.939 1.85599 177.468 1.8529C177.941 1.8529 178.443 1.84893 178.791 1.73771H179.501C179.626 1.76199 179.766 1.78979 179.932 1.78626C181.504 1.73462 181.82 1.9937 181.974 2.29293C182.759 2.28102 183.608 2.19142 184.231 2.40724L184.291 2.40636L184.249 2.40989H184.486L184.503 2.41033C184.989 2.32957 185.632 2.30706 185.977 2.16935V2.16582L185.993 2.172C185.993 2.17024 185.99 2.16759 185.989 2.16582C185.488 1.97075 184.805 2.05107 184.138 2.08947C183.455 2.12787 182.744 2.17288 182.521 1.9222C185.111 1.85599 187.661 1.98134 190.223 2.04754C191.28 2.07535 192.354 2.08947 193.412 2.10668V2.11065C193.414 2.12959 193.423 2.14822 193.439 2.16582V2.16715C195.37 2.28764 197.384 2.22894 199.343 2.27042C200.796 2.29999 202.298 2.36222 203.793 2.35251C203.379 2.20643 203.081 2.03254 202.157 2.02371C201.92 2.02371 201.683 1.94294 201.877 1.85908C202.852 1.66798 204.036 1.84893 205.052 1.74433C205.218 1.96413 205.888 2.11065 206.347 2.28455C207.461 2.2638 208.157 1.95706 209.563 2.05107C209.118 1.85246 208.295 1.90454 207.976 1.77214C209.869 1.55632 212.153 1.79685 214.088 2.40945L213.985 2.41651C214.403 2.62174 215.054 2.61115 215.774 2.53877C215.75 2.36929 216.345 2.1645 215.329 2.05107C216.707 1.89439 217.375 1.93985 218.015 2.23556C218.253 2.34678 218.434 2.4655 219.102 2.4377C219.715 2.40989 219.923 2.3331 220.062 2.17288C220.327 1.85953 220.828 2.1795 221.232 2.16935C222.08 2.1592 221.984 2.28411 221.817 2.42004C221.793 2.43523 221.764 2.44901 221.732 2.46109L221.748 2.46197C222.112 2.41121 222.543 2.39268 222.903 2.33663C223.237 2.28411 223.377 2.23512 223.224 2.14155C223.227 2.12835 223.221 2.1151 223.209 2.10315C223.335 2.01929 223.614 1.99193 223.935 1.98178C224.407 2.0268 224.895 2.02327 225.382 2.01267C225.827 2.00561 226.217 2.01621 226.189 2.16582C227.08 2.44079 227.596 2.46197 228.571 2.22188C229.184 2.06873 229.616 2.11772 230.422 2.15567C232.149 2.23953 233.904 2.44785 235.617 2.38518C236.911 2.33972 238.067 2.33001 239.278 2.41695C240.114 2.5423 241.229 2.39224 242.092 2.5701C241.562 2.7056 240.907 2.52464 240.434 2.64646C240.657 2.78195 241.324 2.72325 241.631 2.82035C240.867 2.9351 240.532 2.93201 239.446 2.80667C238.903 2.74399 238.442 2.64646 237.927 2.86228C237.621 2.99115 236.869 2.86228 236.312 2.86228C235.776 2.86228 234.957 2.73693 234.897 3.01234L234.936 3.02249C236.327 3.00483 237.734 2.99865 239.126 3.04014L239.219 3.04632C241.824 3.01763 244.416 3.16063 247.034 3.09531C249.889 3.05691 252.772 3.1827 255.613 3.04676C256.948 2.98453 258.258 2.88346 259.636 2.90729L259.705 2.90376H259.622C260.903 2.78239 262.24 2.83138 263.521 2.86625C264.468 2.89405 265.15 3.15136 265.137 3.32216C265.095 3.76087 266.126 3.77808 267.351 3.79176C268.283 3.97625 268.799 4.24856 269.593 4.46438L269.583 4.46703L269.606 4.46791C271.527 4.80202 271.445 5.04917 269.468 5.35547C268.674 5.47728 267.493 5.48479 267.145 5.76593C267.643 5.84846 268.28 5.93232 268.046 6.10445C267.768 6.30967 267.656 6.5811 266.375 6.57448C266.149 6.61112 265.925 6.63407 265.687 6.58773C265.677 6.71572 265.213 6.72719 264.831 6.75897C264.357 6.79737 263.842 6.76912 263.396 6.82164C262.816 6.87681 262.371 7.01804 261.67 7.00966C261.057 7.15221 260.29 7.12441 259.553 7.13544C258.718 7.14206 257.853 7.10764 257.033 7.17693C257.172 7.34376 257.797 7.278 258.021 7.36495C256.866 7.5075 256.448 7.4691 255.473 7.25328C254.875 7.12088 254.011 7.13544 253.218 7.13544L253.228 7.13235C252.798 7.12882 252.381 7.14206 251.992 7.19414L251.99 7.19503C252.411 7.35965 253.25 7.28241 253.83 7.35833C253.828 7.38649 253.818 7.41446 253.803 7.44174C252.647 7.44174 251.504 7.43821 250.349 7.44174C249.96 7.44174 249.569 7.39628 249.597 7.60857C249.638 7.81733 248.65 7.76525 248.009 7.7476C247.342 7.59092 246.673 7.7092 246.004 7.7476C245.378 7.76172 244.682 7.69905 244.237 7.88353C244.097 7.94267 243.735 7.94621 243.596 7.8906C243.151 7.71317 242.467 7.75113 241.841 7.75113C240.324 7.75113 238.777 7.77584 238.096 7.31949C237.989 7.25372 237.647 7.25637 237.363 7.25108L237.344 7.25328L236.883 7.26432V7.2599C236.563 7.45145 235.13 7.4691 235.561 7.79659C235.63 7.84514 235.172 7.83101 234.963 7.79659C233.472 7.55958 231.94 7.58033 230.367 7.73038C229.685 7.79659 229.003 7.76878 228.335 7.69552C226.914 7.53884 225.48 7.44527 223.92 7.58077C223.181 7.64609 222.469 7.63682 221.983 7.4541L221.943 7.44836H221.209C220.948 7.60195 221.167 7.73965 221.455 7.87338C221.499 7.89413 221.9 7.89457 221.595 7.92899C220.899 8.00932 221.19 8.30194 220.23 8.30856H217.264C217.835 8.26001 218.42 8.21146 219.018 8.1585C219.018 8.14834 219.073 8.13069 219.074 8.11348C218.796 7.57415 216.999 7.76525 215.76 7.68184L215.748 7.67742L215.746 7.68537C215.384 7.69905 215.022 7.71626 214.66 7.72685C214.284 7.73745 213.685 7.80321 213.602 7.68184C213.519 7.54281 214.173 7.58783 214.534 7.57062L214.542 7.5715L214.549 7.57062C214.653 7.51854 214.57 7.48764 214.44 7.46248L214.298 7.43821C213.323 7.55296 212.182 7.51809 211.263 7.73745C210.665 7.88 209.522 7.74804 208.63 7.73745C208.143 7.73038 207.656 7.69552 207.169 7.73745C206.612 7.786 205.761 7.79306 206.5 8.03315C206.68 8.09273 206.529 8.17924 206.334 8.23176C206.097 8.29796 205.79 8.26265 205.539 8.23176C204.579 8.10995 203.603 7.99475 202.741 7.83454C202.254 7.74407 201.78 7.63329 201.112 7.62976V7.62225L201.131 7.61828C201.121 7.62005 201.108 7.62049 201.097 7.62225C200.652 7.62225 200.234 7.62225 199.872 7.53178C199.259 7.38172 198.884 7.46955 198.633 7.62623L198.621 7.6302L198.63 7.6324C198.33 7.79791 198.511 7.90472 199.259 7.93959C199.774 7.96386 200.305 8.00888 200.821 7.99873C202.253 7.97092 202.267 8.17968 202.114 8.4339H201.612C200.762 8.15188 199.412 8.14526 198.23 8.04772C197.895 8.01991 197.853 8.10333 197.659 8.13466C197.018 8.24941 196.363 8.35401 195.514 8.23926C195.263 8.20396 194.846 8.17306 194.748 8.2525C194.288 8.59058 193.466 8.34695 192.868 8.32268C192.185 8.29487 192.047 8.17262 192.061 7.98151C192.089 7.65403 190.905 7.79306 190.193 7.7551L190.187 7.74892C189.688 7.79438 189.191 7.85794 189.011 7.6505C188.914 7.53575 188.525 7.58077 188.233 7.57062V7.57415C188.229 7.57194 188.228 7.56973 188.225 7.56753L188.217 7.57062C187.872 7.68095 188.432 7.82969 187.963 7.93385L187.98 7.93959C186.922 8.11348 186.142 7.9184 185.307 7.81071H185.293L185.31 7.80806L185.28 7.80718L185.293 7.81071C184.931 7.86279 184.082 7.85264 184.861 8.04021C185.083 8.09273 185.043 8.15541 184.792 8.19733C184.541 8.23882 184.234 8.21455 184.151 8.15894C183.719 7.87691 182.647 8.13069 181.993 7.9846C181.018 7.76569 180.558 8.15894 180.029 8.14834C178.901 8.1276 178.316 8.18674 177.927 8.45155C177.856 8.50319 177.397 8.38888 177.23 8.32268C176.882 8.18674 176.436 8.11701 175.782 8.13069C174.487 8.10995 173.193 8.20749 171.87 8.13069C170.993 8.08214 170.755 8.30856 170.408 8.44405C170.031 8.59058 169.628 8.67444 169.043 8.54203C168.584 8.44096 168.249 8.29796 169.168 8.21808C169.581 8.18499 169.973 8.10871 170.311 7.9952H170.32C170.555 7.90913 170.819 7.81954 170.408 7.72685C169.808 7.59445 169.169 7.70611 168.528 7.70302C168.654 7.84514 169.21 7.77584 169.461 7.86985C168.644 8.08788 167.579 7.96916 166.635 8.00226C166.844 8.10333 167.303 8.10686 167.609 8.15232C167.608 8.23882 166.19 8.14526 167.247 8.36417C167.538 8.42375 167.247 8.48245 166.969 8.47892C166.454 8.47892 166.161 8.55262 165.799 8.62545C165.353 8.71283 164.851 8.79228 164.239 8.69871C164.629 8.5663 163.571 8.34342 164.698 8.25648C164.907 8.23882 165.075 8.17968 165.548 8.07552C164.296 8.06846 163.43 8.08876 162.693 8.25648L162.679 8.25295C162.587 8.25295 162.495 8.24986 162.391 8.24632L162.386 8.25295C161.775 8.2631 161.886 8.15894 161.927 8.06846C161.91 8.0646 161.892 8.06121 161.874 8.05831C161.374 8.05834 160.875 8.07812 160.383 8.11745C158.935 8.23926 158.502 8.2322 156.846 8.07243C156.94 7.96165 157.523 7.98328 157.677 7.89148C156.816 7.89148 156.205 7.82483 156.232 7.57459L156.198 7.56929C154.936 7.67301 154.761 7.78114 155.634 7.97842C154.882 8.0689 154.199 8.13864 153.35 8.15585C152.013 8.18718 150.634 8.24986 149.757 8.55615H147.586C147.557 8.46612 147.933 8.48686 148.031 8.43831C147.976 8.38226 148.587 8.37211 148.059 8.26398C147.64 8.17571 147.743 8.00049 147.578 7.85176C147.591 7.94135 147.465 8.00314 147.011 8.00535L147.015 8.01285C146.958 8.15894 146.541 8.20484 146.053 8.23617C145.233 8.23617 144.633 8.15938 144.396 7.94665C144.187 7.801 143.965 7.90163 143.756 7.94665C143.492 8.05831 143.199 8.16291 142.573 8.13113L142.558 8.12804C141.03 8.10686 139.488 8.08656 138.127 8.31429L138.131 8.31562C138.033 8.33327 137.95 8.35093 137.852 8.37167C136.712 8.44493 135.962 8.35093 135.627 8.06316L135.624 8.06537C133.675 8.01682 131.976 8.28119 130.096 8.33018C129.595 8.34386 129.135 8.36814 128.676 8.31253L128.662 8.30944L128.378 8.309C127.733 8.30149 127.217 8.24324 126.852 8.07552C126.63 7.97842 126.433 7.84955 125.919 7.80409L125.915 7.80144C125.753 7.82174 125.576 7.84558 125.413 7.86941L125.417 7.87382C125.431 7.91575 125.458 7.95768 125.473 7.99917H125.441C125.242 8.21234 124.536 8.29178 123.816 8.34342C123.231 8.38535 123.288 8.25692 123.135 8.15938C122.967 8.05125 122.549 8.0027 122.174 8.15232C121.881 8.2706 121.727 8.41713 121.226 8.50098C119.806 8.41007 118.246 8.52129 116.896 8.31915C116.617 8.27766 116.257 8.31959 115.978 8.36814C115.675 8.35534 115.334 8.37741 115.141 8.29487C115.503 8.08965 116.548 8.16997 116.994 8.0027C116.246 7.97887 115.513 7.95724 114.779 7.93297C114.773 7.93385 114.768 7.93561 114.762 7.9365H114.765C114.111 8.0998 114.333 8.403 113.275 8.50054C112.607 8.62589 111.59 8.55615 111.061 8.75432C110.406 8.72652 109.863 8.60867 109.139 8.61176C108.834 8.61176 108.93 8.55218 109.07 8.50716C109.07 8.50033 109.076 8.49385 109.087 8.48907L109.07 8.48642C108.331 8.25339 107.663 8.31297 107.051 8.52526C106.633 8.56719 106.229 8.62589 105.756 8.63295L105.811 8.61883C105.339 8.61883 104.879 8.61529 104.406 8.61176C103.487 8.50761 103.806 8.27413 103.542 8.10377C103.416 8.02344 103.514 7.8981 103.026 7.88044C102.609 7.86279 102.568 7.97445 102.373 8.03712C101.802 8.21808 100.339 8.20793 99.4202 8.01991C99.3786 8.00976 99.3505 7.99564 99.3089 7.98196C99.3921 8.01285 99.4473 8.04816 99.3786 8.08611C99.0475 8.20616 98.611 8.1938 98.1745 8.17659C98.5084 8.21631 98.8578 8.2525 98.7659 8.37873C98.5985 8.61529 97.6384 8.52482 97.1089 8.61176C96.4692 8.63295 95.8275 8.74064 95.1732 8.61883C95.2148 8.60117 95.2565 8.58043 95.3252 8.57337C96.265 8.44979 96.6976 8.2834 96.2059 8.03183C96.1803 8.02291 96.156 8.01317 96.1333 8.0027C96.2175 7.98196 96.2882 7.95062 96.385 7.9365C97.7351 7.74495 97.7071 7.74495 96.3569 7.51501C95.8139 7.42453 95.6871 7.19458 94.699 7.25726C93.5308 7.33052 94.8238 7.58827 94.1289 7.69243C94.0176 7.71008 93.976 7.7626 93.9198 7.80056C93.5298 8.05125 92.8562 8.12186 91.8999 8.01241C91.6918 8.12054 91.2466 8.11745 90.8856 8.15938C90.2168 8.23926 89.2567 8.23926 89.3671 8.53497C89.4087 8.62589 88.9073 8.63295 88.6421 8.67488C88.5724 8.67488 88.5027 8.6815 88.4476 8.68503C87.6259 8.73358 87.1671 8.66737 87.0142 8.44449C86.8748 8.22514 86.4296 8.0027 87.5146 7.85308C87.6114 7.83896 87.6259 7.79703 87.5707 7.76922C87.473 7.72421 87.3055 7.7348 87.1381 7.74495C86.7074 7.77629 86.5119 7.87029 86.2612 7.95018C85.7337 8.10642 85.1917 8.26972 84.2084 8.21499C84.0806 8.23485 83.9238 8.24456 83.7544 8.24986C82.6966 8.22205 81.7365 8.21896 81.3048 8.54556C80.9845 8.7861 79.884 8.7477 79.2849 8.73402C78.2551 8.7093 77.5582 8.82405 76.7646 8.92865C76.4858 8.97411 76.2778 8.9772 76.2778 8.87304V8.8139C75.8461 8.4414 76.0271 8.38579 77.5582 8.45553C77.9899 8.47627 78.3383 8.45862 78.589 8.36108C79.0913 8.03227 79.3575 7.95768 80.1279 8.02697C80.1298 7.97269 80.1695 7.91708 80.1763 7.8597C80.1889 7.76613 80.2372 7.64344 79.672 7.6505C79.7591 7.77408 79.3701 7.86235 79.0207 7.89457C78.1012 7.97136 77.5166 8.15585 76.7365 8.27766C75.818 8.48995 74.9537 8.43081 73.9655 8.20131C74.0914 8.37167 74.4108 8.52835 73.5755 8.56675C73.2832 8.60161 73.0045 8.64707 72.6986 8.67135C71.5294 8.76535 71.4743 8.74064 71.5711 8.4414C71.6127 8.31915 71.543 8.16644 70.8752 8.12098C70.4996 7.98416 70.789 7.94665 71.1046 7.91134C70.9187 7.91046 70.7494 7.90207 70.6516 7.87382C69.7244 7.59136 69.2269 7.78908 68.6965 7.96386C70.0602 8.06096 70.2712 8.14305 69.858 8.37873C69.7602 8.50761 69.2047 8.59499 69.3711 8.74417C69.5521 8.84524 69.5512 8.93527 69.1059 8.99442ZM17.4147 1.24031C17.5127 1.21678 17.603 1.18707 17.6828 1.15204C17.5753 1.15866 17.4689 1.16528 17.3634 1.17278C17.4137 1.1922 17.4282 1.21515 17.4147 1.24031ZM46.1329 1.68254C46.2039 1.67002 46.278 1.66157 46.3536 1.65739C46.4774 1.65384 46.6013 1.65075 46.7252 1.64812C46.8297 1.62384 46.9207 1.59516 47.0078 1.56559C46.7659 1.54043 46.6633 1.48923 46.5762 1.43539C46.4484 1.51968 46.2152 1.59604 46.1329 1.68254ZM58.5573 1.67813C58.6595 1.66674 58.7649 1.66242 58.8699 1.66533C58.7373 1.61016 58.5912 1.55058 58.3705 1.49056C58.4295 1.57 58.5476 1.62517 58.5573 1.67813ZM74.4824 1.7739C75.0031 1.6415 75.6119 1.55411 76.2778 1.49629C75.529 1.52573 74.7964 1.61242 74.1107 1.75272L74.1194 1.75139C74.2627 1.75139 74.3914 1.75713 74.4824 1.7739ZM49.5523 1.52057L49.534 1.53292H49.5407C49.5446 1.52851 49.5475 1.52454 49.5523 1.52057ZM66.9205 1.66092C67.0303 1.60116 67.1828 1.56099 67.3512 1.54749C67.1209 1.53425 66.9002 1.55632 66.6882 1.64282C66.7672 1.64351 66.8455 1.64961 66.9205 1.66092ZM43.1248 1.60001C43.059 1.58677 43.0096 1.58986 43.0987 1.60619C43.1248 1.60884 43.1529 1.61149 43.179 1.61502L43.1248 1.60001ZM163.042 2.64028C163.325 2.6425 163.607 2.62841 163.881 2.59835C163.603 2.61733 163.323 2.63057 163.042 2.64028ZM30.0471 6.82738C30.4101 6.8393 30.8098 6.79737 31.1873 6.78766L31.1766 6.77971C31.5502 6.62083 31.3131 6.5533 30.8524 6.51799C30.7972 6.67291 30.6211 6.79737 30.0471 6.82738ZM258.313 6.68571C258.424 6.68571 258.536 6.67202 258.648 6.66805C258.522 6.67202 258.396 6.68615 258.286 6.68262C257.967 6.6707 257.821 6.63627 257.929 6.57051L257.887 6.56742H254.984C256.084 6.64931 257.198 6.68888 258.313 6.68571ZM77.3201 6.89755C77.3143 6.89491 77.3114 6.89138 77.3066 6.88873L77.2534 6.90197L77.3201 6.89755ZM84.52 6.97832C84.5403 6.95184 84.519 6.92448 84.4948 6.89755C84.4465 6.89844 84.399 6.89755 84.3516 6.89579L84.3671 6.90153C84.4368 6.9258 84.3816 6.9642 84.52 6.97832ZM87.4294 6.97611C87.5558 6.98639 87.6851 6.98669 87.8117 6.977C87.6839 6.9792 87.5571 6.9792 87.4294 6.97611ZM71.4075 7.3186C71.3251 7.30074 71.2551 7.27281 71.2054 7.2379C71.1556 7.203 71.1281 7.16249 71.1259 7.12088C71.3059 7.04099 71.5517 7.01054 71.8082 6.99862C71.5052 7.00304 71.2197 7.02952 71.0697 7.14868C71.0697 7.22857 71.1404 7.28815 71.4075 7.3186ZM92.2213 7.06527C92.1942 7.1072 92.4293 7.05159 92.2619 7.06218C92.2481 7.04316 92.2495 7.02253 92.2658 7.00392C92.2193 7.00436 92.1719 7.00392 92.1254 7.00215C92.1599 7.02237 92.1919 7.04344 92.2213 7.06527ZM7.78162 8.03006C7.05765 8.05081 6.34821 7.92237 5.59619 8.00226C3.85599 7.93297 2.10028 7.88044 0.401703 7.7551V7.7476C0.426147 7.74042 0.449432 7.73246 0.471375 7.72376C0.722046 7.59136 -0.460663 7.51103 0.207153 7.38569C0.806244 7.27094 1.34921 7.43424 1.92026 7.46602C3.79984 7.56664 5.56906 7.84558 7.61609 7.70302H7.74094C8.3952 7.72376 9.36984 7.72376 9.35629 7.90119C9.35629 8.06449 8.33911 8.01241 7.78162 8.03006ZM72.5138 7.79306C72.7383 7.77217 72.9553 7.73696 73.1584 7.68846C73.5958 7.58695 74.0749 7.55164 74.5937 7.55473C74.1891 7.43291 73.6742 7.38481 72.9493 7.37863C72.7654 7.37774 72.5476 7.38216 72.3279 7.38304C72.5921 7.4157 72.7964 7.4691 72.8525 7.56708C72.9096 7.67213 72.7548 7.74009 72.5138 7.79306ZM44.2562 7.50618C44.3757 7.47809 44.5012 7.45576 44.6308 7.43953C44.445 7.44704 44.2407 7.4541 44.2514 7.48014C44.2553 7.48897 44.2543 7.49735 44.2562 7.50618ZM64.0615 7.80277C63.5175 7.68007 62.9504 7.56311 62.3416 7.46248C62.5582 7.52459 62.7804 7.5826 63.0075 7.63638C63.2949 7.70567 63.6201 7.80409 64.0615 7.80277ZM183.205 7.57238C183.147 7.55163 183.081 7.53564 183.011 7.52516C182.873 7.5 182.695 7.48676 182.509 7.47661L182.48 7.48014C182.355 7.49779 182.215 7.51103 182.091 7.52516L182.05 7.52825C182.253 7.52869 182.456 7.53089 182.663 7.53531C182.845 7.54193 183.026 7.55738 183.205 7.57238ZM29.63 7.49823L29.5758 7.50132L29.5632 7.50574L29.63 7.49823ZM19.2139 7.62976V7.63285L19.1016 7.61872L19.0591 7.61916C19.1214 7.62848 19.1843 7.63687 19.2478 7.64432L19.2139 7.62976ZM18.4445 7.77805C18.6226 7.72465 18.8616 7.67522 19.0204 7.62005C18.9555 7.62225 18.8906 7.62446 18.8258 7.62534C18.7619 7.67654 18.488 7.72597 18.4445 7.77805ZM198.63 7.6324L198.633 7.62976V7.63285L198.63 7.6324ZM126.541 7.66506C126.525 7.66153 126.51 7.65712 126.495 7.65271C126.491 7.65882 126.483 7.6644 126.474 7.66904L126.541 7.66506ZM127.896 7.72023C127.805 7.68272 127.674 7.67389 127.525 7.67433C127.667 7.68841 127.806 7.70897 127.939 7.73568C127.925 7.73038 127.909 7.72553 127.896 7.72023ZM177.041 7.74539C177.244 7.75056 177.447 7.74671 177.648 7.73392C177.788 7.72332 177.931 7.7145 178.072 7.70434C177.832 7.71317 177.593 7.722 177.356 7.73392C177.254 7.73921 177.149 7.74274 177.041 7.74539ZM43.5265 7.78953C43.7074 7.79703 43.9591 7.77893 43.9446 7.7476C43.9417 7.73877 43.9436 7.72906 43.9426 7.72068C43.8081 7.74936 43.6416 7.77055 43.4635 7.78864C43.4845 7.78899 43.5055 7.78899 43.5265 7.78953ZM135.707 8.01241C136.329 7.90869 136.972 7.85529 137.625 7.92679C137.511 7.89015 137.431 7.85043 137.43 7.80321C137.017 7.8928 136.625 7.8906 136.23 7.78644C136.133 7.88353 135.798 7.93826 135.481 7.99564C135.619 7.99167 135.664 8.01329 135.627 8.06007L135.707 8.01241ZM118.365 7.84646L118.38 7.85661C118.571 7.8672 118.76 7.88221 118.95 7.89633C118.754 7.88089 118.56 7.86323 118.365 7.84646ZM110.721 8.24765C110.536 8.12098 110.173 8.00932 110.057 7.87691C109.701 7.92679 109.222 7.89633 108.791 7.98151C109.755 7.97533 110.4 8.0614 110.721 8.24765ZM48.4645 7.94047C48.3764 7.92281 48.2845 7.91619 48.1886 7.91531C48.2816 7.92109 48.3738 7.9295 48.4645 7.94047ZM101.608 8.70886C101.189 8.82714 100.729 8.92115 100.367 8.69121C100.228 8.6047 99.9486 8.57646 99.6147 8.55571H99.6283C100.004 8.38888 100.923 8.40565 101.313 8.22823C101.453 8.16203 102.053 8.16556 102.317 8.23176C102.692 8.32886 102.344 8.42022 102.121 8.50363C101.954 8.57337 101.816 8.64928 101.608 8.70886ZM93.0004 8.86245C92.6248 8.80993 92.5416 8.69518 92.5406 8.58749C92.5406 8.49701 92.7361 8.44802 93.0701 8.45155C93.3624 8.45155 93.8076 8.39947 93.8772 8.52085C93.9189 8.58705 94.0302 8.6356 94.1695 8.68459C93.9334 8.70886 93.6827 8.7296 93.4466 8.75388C93.224 8.77153 93.3343 8.90747 93.0004 8.86245Z" fill="#D89E52" fill-opacity="0.5"/>
</svg>
