<svg width="697" height="9" viewBox="0 0 697 9" fill="none" xmlns="http://www.w3.org/2000/svg">
<path d="M177.737 8.99442C175.982 9.02575 175.445 8.92115 175.049 8.78213C174.8 8.68812 175.517 8.58043 174.586 8.5001C175.445 8.48245 175.985 8.42375 176.595 8.37123C177.095 8.32974 177.703 8.30149 178.419 8.25957C177.488 8.20396 176.734 8.16247 175.982 8.11701C175.748 8.09273 175.592 8.06714 175.529 8.0411C173.456 8.14084 171.355 8.03801 169.284 8.03448C168.833 8.16379 167.409 8.20351 166.279 8.27016C163.093 8.2525 159.867 8.22161 156.681 8.24941C156.429 8.23176 156.213 8.21455 155.964 8.1938C155.496 8.14172 152.994 8.2247 154.784 8.023C155.426 7.95018 154.712 7.94665 154.246 7.93605C153.161 7.91575 152.073 7.89854 150.985 7.87868L150.843 7.88751C150.47 7.95989 149.77 7.98549 149.058 8.00888C149.671 8.22514 147.259 8.28119 146.437 8.40256C144.861 8.62854 143.5 8.96661 139.524 8.92821V8.92468C140.311 8.80287 141.03 8.68459 141.854 8.5663C143.535 8.31915 141.889 8.1938 140.027 8.07508C139.134 8.04066 137.662 8.10289 137.555 7.93959C137.341 7.66815 139.776 7.70258 141.317 7.63991C141.589 7.62962 141.867 7.6243 142.146 7.62402C141.24 7.56046 140.428 7.4872 140.065 7.36495C139.913 7.31154 139.589 7.2855 139.191 7.27226C139.482 7.32875 139.542 7.39716 139.38 7.4797C138.88 7.72376 137.411 7.84867 134.869 7.86632C133.976 7.8522 133.475 7.79306 132.866 7.73392C131.9 7.64344 130.752 7.67831 129.714 7.73392C128.462 7.80012 129.211 7.88398 129.532 7.96342C129.639 7.99167 129.356 8.03359 129.284 8.07199C127.944 8.07199 126.575 8.12672 125.408 8.02079C125.624 8.08126 125.535 8.17085 125.308 8.31209C125.378 8.32931 125.416 8.35001 125.415 8.37123C124.484 8.41316 123.553 8.46877 122.585 8.5001C120.723 8.55571 119.077 8.57337 121.547 8.1938C118.181 8.42728 115.279 8.35048 112.842 8.47186C112.383 8.49486 111.9 8.49805 111.432 8.48116C110.965 8.46427 110.527 8.42778 110.156 8.37476C111.732 8.28781 114.027 8.37476 115.207 8.18321C115.874 8.08876 116.265 7.95371 117.138 7.88662C116.846 7.90621 116.579 7.93609 116.354 7.97445C115.495 8.12054 113.559 8.05831 112.055 8.0614C111.231 8.0614 110.407 8.01285 110.3 7.91575C110.285 7.90306 110.285 7.88991 110.301 7.87725C110.318 7.86458 110.35 7.85271 110.395 7.84249C109.675 7.87162 109.013 7.90648 108.617 7.97048C107.507 8.1479 104.752 8.00226 103.034 8.12407C101.672 8.28428 100.239 8.35357 98.2695 8.20087C97.5526 8.14481 96.4772 8.1276 95.5089 8.1276C94.6152 8.1276 93.7938 8.10995 93.6146 8.00579C93.4702 7.91531 93.8635 7.84161 94.6526 7.79659C95.5189 7.74583 96.3627 7.68713 97.3037 7.64962C95.2725 7.71361 93.3383 7.83145 91.068 7.7754C91.531 7.88398 92.9325 7.96342 92.1459 8.11039L88.3846 8.12054C86.7391 8.16909 87.0204 8.00579 86.3757 7.94312C85.4472 7.93605 84.5162 7.92899 84.2997 8.05787C84.1578 8.15143 83.7271 8.22823 82.6891 8.25295C81.6162 8.23529 81.0412 8.34298 80.145 8.35357C78.4623 8.37123 76.2443 8.43037 76.889 8.12407C76.2792 8.03359 75.4179 8.06846 74.6313 8.07861C73.307 8.10289 72.2316 8.06493 71.8732 7.93605C71.5147 7.81424 72.6274 7.77584 73.3792 7.70302L73.5285 7.6889C70.9222 7.77143 71.0019 8.00446 70.2949 8.20087C68.3259 8.3955 65.9288 8.42022 63.3499 8.3677H62.8968L62.8868 8.37123H62.847V8.50363C59.7678 8.5385 56.6885 8.55924 53.9677 8.3677C53.4998 8.31209 52.3895 8.38138 51.817 8.34563C50.2114 8.40698 48.5112 8.30723 46.9131 8.36461C44.0131 8.40609 41.6831 8.1276 38.7109 8.23176C37.3492 8.16203 36.4905 8.10995 36.4183 7.90472C36.3113 7.62269 34.2352 7.76216 32.7665 7.84558C32.2662 7.90825 31.6563 7.94974 30.7975 7.94621C26.1774 7.63991 20.8727 7.67831 15.6801 7.61563C12.9593 7.58077 9.8103 7.50397 7.5202 7.29521C6.26556 7.18046 6.08636 7.03746 6.76593 6.88475C7.37329 6.84945 7.80396 6.76956 8.73499 6.80752L8.70013 6.81193C9.91736 6.85651 10.1688 6.6963 11.1695 6.69983L11.2068 6.70424C12.3345 6.71395 13.5865 6.79031 14.4279 6.64731C14.4487 6.64662 14.4695 6.64589 14.4902 6.6451L14.4653 6.64378C15.0005 6.54668 15.3589 6.43502 16.1107 6.3516C18.6174 6.07664 16.7554 5.89171 14.8586 5.7037C15.6029 5.63529 16.626 5.65824 17.4799 5.63176L17.4998 5.6375L17.5072 5.63087L17.4799 5.63176L17.4724 5.63043L17.5072 5.63087L17.5097 5.62734C17.5097 5.5682 17.5445 5.50862 17.5818 5.45301C15.934 5.28971 15.934 5.122 17.5818 4.95517C19.5609 4.91059 20.1135 4.74729 20.7458 4.59237L20.6985 4.58575C19.5061 4.42113 20.1782 4.2543 20.462 4.08703L20.5541 4.01509L20.3799 3.9789C19.9044 3.90122 19.0182 3.86768 18.2988 3.81295C17.5819 3.76087 15.7174 3.79882 16.29 3.64568C16.8276 3.50312 18.2291 3.52033 19.4464 3.5936L19.4688 3.59624L19.4788 3.5936C20.5392 3.60066 21.1142 3.52298 21.7813 3.46428C19.6405 3.37513 17.4649 3.41926 15.252 3.43692C13.9108 3.44953 12.5672 3.42238 11.2766 3.35659C11.0998 3.30451 11.3512 3.26655 11.7072 3.22816C11.635 3.19329 11.0649 3.13106 11.5652 3.13106C12.6949 3.13236 13.8212 3.15306 14.9283 3.19285C19.3692 3.3535 19.4413 3.34644 19.1202 2.9042C19.0107 2.74399 17.6541 2.83094 17.0815 2.76827C16.6135 2.71972 15.5009 2.68132 15.5357 2.64292C15.6104 2.55598 16.5065 2.52111 17.4375 2.52464C18.2963 2.62924 19.3019 2.55995 20.2678 2.54583L20.3002 2.54627C20.7258 2.5039 21.2262 2.49419 21.0519 2.38915C20.5516 2.10006 22.5928 1.81407 21.627 1.51086C21.5622 1.49011 22.309 1.44465 22.6998 1.41023C23.2375 1.50733 23.6333 1.6159 24.3851 1.69578C25.3882 1.80745 27.6038 1.76905 27.4295 1.68254C26.9641 1.45569 29.2889 1.48658 29.7196 1.36124L29.5628 1.34712C28.714 1.28268 27.1134 1.3096 27.2155 1.10349C27.2478 0.988738 24.8132 1.18735 23.8823 1.04479C26.4238 0.967995 28.9704 0.888109 31.5493 0.811315C32.3732 0.859863 32.4055 0.934894 32.4653 1.00948C33.8942 0.933569 35.796 1.07215 37.1874 0.988738L37.2074 0.982118C37.0655 0.88502 36.8838 0.787041 36.7394 0.689502C36.9186 0.68244 37.0979 0.675378 37.312 0.668317C39.0669 0.692591 40.7521 0.633892 42.4722 0.609176C43.3311 0.599025 43.8687 0.609176 44.4064 0.668317C45.8751 0.699653 47.4857 0.811315 48.3071 0.57475C48.3793 0.554007 49.4547 0.567688 50.0645 0.564157C50.0759 0.562886 50.0875 0.561708 50.0994 0.560627C50.0671 0.563717 50.0422 0.56813 50.0148 0.570778C50.0553 0.568966 50.0952 0.566756 50.1343 0.564157C50.6968 0.533263 51.2245 0.486038 51.9564 0.504134C52.163 0.497955 52.3671 0.494424 52.5712 0.487803C54.0399 0.400857 55.5435 0.31347 57.1914 0.257859C58.7297 0.469708 60.6639 0.459558 62.7773 0.362019C64.1738 0.188126 66.2175 0.295815 67.9351 0.247267L69.1772 0.302436L69.2245 0.299346C69.9763 0.118392 71.8035 0.264921 72.8788 0.188127C74.0936 0.320532 74.7383 0.184596 75.5971 0.135606C76.924 0.181065 79.0746 0.034977 79.468 0.295815C81.0063 0.334213 81.3673 0.198719 82.1166 0.121923C82.6194 0.0799952 83.1545 0.0455694 83.8715 0.0698442C85.375 0.0243855 86.8437 -0.0519695 88.3846 0.0521898H89.674V0.0561619C89.9254 0.285666 92.2853 0.305966 93.1441 0.236674C96.5818 -0.0382881 100.38 0.142667 103.101 0.243736C106.287 0.362019 106.897 0.264481 107.756 0.0314465C108.508 0.104711 106.937 0.324062 109.693 0.226523C111.804 0.153701 112.202 0.428663 113.454 0.543414H113.738L114.413 0.482949C117.669 0.203573 119.284 0.226965 122.908 0.550476C123.561 0.604762 124.402 0.647573 124.375 0.719514C124.688 0.657284 125.38 0.587109 124.736 0.494425C125.084 0.442345 125.555 0.431311 126.07 0.434842L126.6 0.442345L127.581 0.454702C128.557 0.462206 129.498 0.451613 130.356 0.386292C131.218 0.32009 131.86 0.355398 132.325 0.438813H132.363L132.315 0.441462L132.325 0.442345C133.652 0.51561 135.086 0.550476 136.517 0.505017C139.238 0.418071 141.603 0.494425 143.965 0.609176L143.98 0.613588L144.003 0.606087C145.399 0.672289 146.619 0.898261 148.374 0.630361C148.802 0.567688 149.838 0.665228 150.447 0.724369L150.398 0.727458H150.413C151.916 0.762766 153.278 0.675819 154.712 0.675819C157.002 0.637422 158.291 0.742023 158.866 0.94725C159.115 1.03773 158.901 1.13174 157.97 1.14586C153.387 1.20456 154.888 1.53204 154.819 1.79332L154.926 1.79685C157.753 1.69976 160.405 1.85246 163.163 1.86306L163.09 1.85908C162.408 1.6821 160.546 1.66754 158.468 1.55279C161.283 1.49673 163.728 1.65739 165.926 1.57574C165.468 1.53469 165.017 1.49409 164.452 1.46275C160.512 1.26061 160.297 1.18735 162.339 0.783068C164.38 0.870456 167.066 0.773358 168.714 0.985648C169.142 1.04126 169.645 0.985648 170.073 0.95034C173.19 0.713776 176.381 0.797192 179.567 0.932687C182.335 1.07215 182.489 1.23722 180.03 1.427C179.43 1.47334 179.385 1.55764 178.788 1.60354C178.897 1.66533 178.482 1.7258 178.454 1.78626H178.419L178.405 1.7867C178.432 1.78935 178.464 1.79112 178.489 1.79332C179.134 1.80038 179.744 1.80745 180.388 1.81098C180.864 1.83722 181.371 1.83996 181.855 1.81892C181.342 1.81495 180.829 1.81186 180.319 1.80745C182.002 1.7589 183.468 1.70593 181.392 1.52189L182.041 1.4932C181.957 1.48658 181.867 1.47996 181.785 1.4729C183.144 1.11805 184.187 1.03773 187.339 1.0342C190.094 1.06244 192.671 1.28842 195.643 1.11805C200.024 1.00021 204.017 1.23722 208.286 1.23987L208.395 1.2359C209.471 1.25355 210.581 1.26767 211.656 1.28533L211.624 1.29504C215.418 1.09025 218.497 1.40317 221.969 1.43803C222.363 1.44201 222.544 1.52498 223.438 1.48349C227.433 1.29106 231.493 1.33873 235.524 1.4782C235.651 1.4782 235.775 1.47687 235.9 1.47643C239.91 1.53557 243.888 1.63664 247.935 1.53557V1.5391C250.728 1.54263 253.449 1.6362 256.277 1.60133C257.74 1.62914 259.239 1.66092 260.703 1.68872C262.199 1.67063 263.662 1.57441 265.231 1.66445C266.627 1.67504 267.919 1.69622 269.278 1.59516C271.103 1.45922 272.143 1.66136 273.468 1.7408C274.613 1.81098 275.905 1.78317 277.157 1.78626C279.985 1.79332 282.852 1.74477 285.503 1.89439C287.507 2.00914 288.797 1.77964 290.801 1.79332C293.559 1.81407 296.103 1.98796 298.968 1.90101L299.09 1.89704C300.733 1.74257 302.61 1.77214 304.731 1.98531L304.596 1.99811C305.069 2.01576 305.567 2.02547 306.023 2.00914C310.247 1.85953 314.583 1.99899 318.88 1.95706C320.777 1.93632 322.673 2.07535 324.68 1.97472C325.469 1.97781 326.198 2.01753 326.948 2.04622C327.003 2.04441 327.059 2.04264 327.114 2.04092H328.337C329.051 2.0268 329.875 2.02636 330.447 1.99149C332.989 1.83525 333.992 1.87674 334.816 2.17288C334.908 2.2069 335.041 2.23684 335.207 2.26051C335.372 2.28419 335.565 2.301 335.772 2.3097C336.345 2.30352 336.93 2.29293 337.51 2.28234C337.64 2.2747 337.769 2.26616 337.895 2.25674C338.901 2.1795 339.322 2.19672 339.576 2.24924C339.803 2.24688 340.031 2.24349 340.258 2.23909C342.692 2.20775 345.167 2.12434 347.494 2.2947C348.246 2.35031 349.284 2.33265 350.215 2.29823C350.394 2.29823 350.576 2.29823 350.753 2.29117L350.81 2.28764C352.005 2.15611 352.005 2.03695 350.646 1.90454C349.749 1.81407 349.07 1.68872 350.357 1.5775C352.184 1.42082 354.193 1.48702 355.983 1.58412C357.235 1.65386 357.665 1.7792 356.734 1.90101C355.534 2.05902 355.935 2.2307 355.945 2.39886L356.391 2.40195C357.406 2.40195 358.27 2.36223 359.049 2.29602L359.027 2.2947C359.719 2.13714 360.864 2.07093 362.465 2.09609C362.676 2.1901 360.998 2.13802 361.32 2.23909C363.789 2.3993 366.151 2.17642 368.588 2.22541C368.586 2.22541 368.583 2.22541 368.581 2.22629L368.626 2.22541L368.705 2.22982C369.084 2.23247 369.463 2.23689 369.84 2.24306C371.523 2.28102 371.633 2.16935 371.561 2.06122C371.453 1.92882 370.522 1.92573 369.447 1.96722C368.767 1.99193 368.051 2.05107 367.622 1.94294C367.408 1.88733 367.764 1.8454 368.23 1.81407C370.629 1.64326 373.674 1.67151 376.323 1.57397C376.395 1.57397 376.571 1.57397 376.609 1.58412C378.222 1.90454 381.087 1.78626 383.917 1.73021C383.487 1.90807 382.09 1.87674 381.05 1.96766C385.072 1.92352 383.569 2.23865 384.472 2.39753C384.515 2.3993 384.555 2.4015 384.597 2.40283C387.094 2.70118 389.63 2.52244 392.162 2.40415C393.785 2.06828 390.253 2.03342 388.714 1.86659C391.007 1.71697 393.837 1.86659 396.058 1.73418C397.023 1.74124 398.383 1.68916 398.741 1.82157C399.134 1.97075 397.631 1.95 396.772 1.99899C394.718 2.11948 395.537 2.35605 394.793 2.5295L394.803 2.5317C397.086 2.4858 398.836 2.73737 401.168 2.67117L401.646 2.65352L401.37 2.616C400.157 2.42799 401.081 2.22276 401.215 2.0268C401.288 1.90498 402.288 1.94647 402.898 1.97428C404.616 2.04401 406.408 2.04048 408.233 2.04401C409.129 2.04401 410.418 2.00561 410.704 2.12389C410.956 2.22496 409.881 2.28057 409.094 2.3331C408.487 2.37105 407.804 2.40283 407.269 2.48316C411.063 2.46903 414.682 2.31544 418.479 2.31235C418.479 2.49463 419.479 2.58952 421.486 2.59702V2.59393L421.491 2.59482L421.486 2.59702H421.528L421.491 2.59482C422.778 2.00208 423.962 1.9681 428.719 2.37458C430.295 2.51052 432.441 2.45844 432.264 2.26689C432.013 2.01974 433.842 2.06828 434.739 2.07888C436.24 2.09256 437.205 2.24659 436.919 2.37193C436.633 2.48978 436.349 2.58025 437.564 2.62218C438.818 2.6672 440.145 2.62218 441.004 2.52111C441.721 2.43417 442.149 2.3225 442.687 2.22541C444.048 1.98487 445.803 1.97119 447.416 2.20113C447.952 2.27749 448.417 2.35693 449.311 2.39886C450.994 2.47565 452.534 2.4964 452.604 2.24924C452.604 2.14508 452.821 2.06828 453.931 2.03695C454.289 1.91867 455.078 1.85599 456.44 1.8529C457.657 1.8529 458.947 1.84893 459.843 1.73771H461.668C461.991 1.76199 462.35 1.78979 462.778 1.78626C466.82 1.73462 467.632 1.9937 468.03 2.29293C470.049 2.28102 472.232 2.19142 473.835 2.40724L473.987 2.40636L473.88 2.40989H474.49L474.535 2.41033C475.784 2.32957 477.437 2.30706 478.323 2.16935V2.16582L478.366 2.172C478.366 2.17024 478.358 2.16759 478.356 2.16582C477.066 1.97075 475.311 2.05107 473.594 2.08947C471.839 2.12787 470.009 2.17288 469.437 1.9222C476.098 1.85599 482.655 1.98134 489.244 2.04754C491.965 2.07535 494.725 2.08947 497.446 2.10668V2.11065C497.452 2.12959 497.476 2.14822 497.516 2.16582V2.16715C502.482 2.28764 507.662 2.22894 512.7 2.27042C516.439 2.29999 520.303 2.36222 524.146 2.35251C523.081 2.20643 522.317 2.03254 519.939 2.02371C519.329 2.02371 518.719 1.94294 519.22 1.85908C521.727 1.66798 524.771 1.84893 527.385 1.74433C527.813 1.96413 529.535 2.11065 530.715 2.28455C533.581 2.2638 535.37 1.95706 538.987 2.05107C537.842 1.85246 535.726 1.90454 534.905 1.77214C539.774 1.55632 545.649 1.79685 550.625 2.40945L550.361 2.41651C551.436 2.62174 553.109 2.61115 554.961 2.53877C554.899 2.36929 556.43 2.1645 553.816 2.05107C557.361 1.89439 559.078 1.93985 560.726 2.23556C561.336 2.34678 561.802 2.4655 563.522 2.4377C565.097 2.40989 565.633 2.3331 565.991 2.17288C566.671 1.85953 567.96 2.1795 568.998 2.16935C571.181 2.1592 570.932 2.28411 570.504 2.42004C570.441 2.43523 570.367 2.44901 570.285 2.46109L570.325 2.46197C571.263 2.41121 572.371 2.39268 573.297 2.33663C574.156 2.28411 574.517 2.23512 574.123 2.14155C574.13 2.12835 574.116 2.1151 574.084 2.10315C574.407 2.01929 575.124 1.99193 575.951 1.98178C577.165 2.0268 578.42 2.02327 579.672 2.01267C580.817 2.00561 581.82 2.01621 581.748 2.16582C584.041 2.44079 585.368 2.46197 587.874 2.22188C589.45 2.06873 590.563 2.11772 592.636 2.15567C597.077 2.23953 601.59 2.44785 605.996 2.38518C609.324 2.33972 612.297 2.33001 615.413 2.41695C617.561 2.5423 620.429 2.39224 622.65 2.5701C621.288 2.7056 619.603 2.52464 618.385 2.64646C618.958 2.78195 620.676 2.72325 621.465 2.82035C619.498 2.9351 618.637 2.93201 615.844 2.80667C614.447 2.74399 613.262 2.64646 611.938 2.86228C611.152 2.99115 609.217 2.86228 607.784 2.86228C606.404 2.86228 604.299 2.73693 604.144 3.01234L604.244 3.02249C607.823 3.00483 611.44 2.99865 615.022 3.04014L615.261 3.04632C621.96 3.01763 628.626 3.16063 635.36 3.09531C642.703 3.05691 650.119 3.1827 657.425 3.04676C660.86 2.98453 664.228 2.88346 667.773 2.90729L667.95 2.90376H667.735C671.031 2.78239 674.469 2.83138 677.765 2.86625C680.199 2.89405 681.954 3.15136 681.919 3.32216C681.812 3.76087 684.463 3.77808 687.615 3.79176C690.012 3.97625 691.339 4.24856 693.38 4.46438L693.355 4.46703L693.415 4.46791C698.356 4.80202 698.145 5.04917 693.059 5.35547C691.018 5.47728 687.981 5.48479 687.085 5.76593C688.367 5.84846 690.005 5.93232 689.402 6.10445C688.688 6.30967 688.399 6.5811 685.106 6.57448C684.523 6.61112 683.948 6.63407 683.336 6.58773C683.308 6.71572 682.116 6.72719 681.133 6.75897C679.916 6.79737 678.589 6.76912 677.444 6.82164C675.95 6.87681 674.808 7.01804 673.003 7.00966C671.427 7.15221 669.456 7.12441 667.559 7.13544C665.41 7.14206 663.188 7.10764 661.077 7.17693C661.435 7.34376 663.043 7.278 663.618 7.36495C660.648 7.5075 659.573 7.4691 657.066 7.25328C655.528 7.12088 653.305 7.13544 651.266 7.13544L651.291 7.13235C650.186 7.12882 649.113 7.14206 648.112 7.19414L648.107 7.19503C649.19 7.35965 651.349 7.28241 652.84 7.35833C652.833 7.38649 652.81 7.41446 652.77 7.44174C649.798 7.44174 646.858 7.43821 643.886 7.44174C642.885 7.44174 641.879 7.39628 641.951 7.60857C642.058 7.81733 639.517 7.76525 637.869 7.7476C636.151 7.59092 634.431 7.7092 632.711 7.7476C631.101 7.76172 629.311 7.69905 628.166 7.88353C627.807 7.94267 626.876 7.94621 626.518 7.8906C625.373 7.71317 623.615 7.75113 622.005 7.75113C618.102 7.75113 614.124 7.77584 612.371 7.31949C612.097 7.25373 611.219 7.25637 610.487 7.25108L610.437 7.25328L609.252 7.26432V7.2599C608.431 7.45145 604.744 7.4691 605.852 7.79659C606.031 7.84514 604.851 7.83101 604.313 7.79659C600.48 7.55958 596.539 7.58033 592.494 7.73038C590.739 7.79659 588.984 7.76878 587.267 7.69552C583.613 7.53884 579.923 7.44527 575.913 7.58077C574.011 7.64609 572.179 7.63682 570.93 7.4541L570.828 7.44836H568.941C568.269 7.60195 568.831 7.73965 569.573 7.87338C569.685 7.89413 570.718 7.89457 569.932 7.92899C568.142 8.00932 568.891 8.30194 566.422 8.30856H558.794C560.263 8.26001 561.767 8.21146 563.305 8.1585C563.305 8.14834 563.447 8.13069 563.449 8.11348C562.732 7.57415 558.112 7.76525 554.926 7.68184L554.894 7.67742L554.889 7.68537C553.958 7.69905 553.027 7.71626 552.096 7.72685C551.13 7.73745 549.589 7.80321 549.375 7.68184C549.161 7.54281 550.844 7.58783 551.772 7.57062L551.792 7.5715L551.81 7.57062C552.078 7.51854 551.864 7.48764 551.531 7.46248L551.165 7.43821C548.658 7.55296 545.723 7.51809 543.358 7.73745C541.82 7.88 538.88 7.74804 536.588 7.73745C535.335 7.73038 534.081 7.69552 532.829 7.73745C531.397 7.786 529.209 7.79306 531.109 8.03315C531.572 8.09273 531.183 8.17924 530.683 8.23176C530.073 8.29796 529.282 8.26265 528.637 8.23176C526.167 8.10995 523.658 7.99475 521.44 7.83454C520.188 7.74407 518.968 7.63329 517.251 7.62976V7.62225L517.301 7.61828C517.273 7.62005 517.241 7.62049 517.213 7.62225C516.068 7.62225 514.993 7.62225 514.062 7.53178C512.486 7.38172 511.52 7.46955 510.876 7.62623L510.843 7.6302L510.868 7.6324C510.097 7.79791 510.562 7.90472 512.486 7.93959C513.811 7.96386 515.175 8.00888 516.502 7.99873C520.186 7.97092 520.223 8.17968 519.827 8.4339H518.538C516.352 8.15188 512.88 8.14526 509.838 8.04772C508.976 8.01991 508.869 8.10333 508.369 8.13466C506.721 8.24941 505.036 8.35401 502.853 8.23926C502.208 8.20396 501.135 8.17306 500.884 8.2525C499.701 8.59058 497.585 8.34695 496.047 8.32268C494.292 8.29487 493.936 8.17262 493.974 7.98151C494.043 7.65403 490.999 7.79306 489.169 7.7551L489.152 7.74892C487.87 7.79438 486.59 7.85794 486.127 7.6505C485.878 7.53575 484.878 7.58077 484.126 7.57062V7.57415C484.116 7.57194 484.113 7.56973 484.106 7.56753L484.086 7.57062C483.197 7.68095 484.639 7.82969 483.431 7.93385L483.476 7.93959C480.755 8.11348 478.749 7.9184 476.601 7.81071H476.566L476.608 7.80806L476.531 7.80718L476.566 7.81071C475.635 7.86279 473.452 7.85264 475.453 8.04021C476.026 8.09273 475.921 8.15541 475.277 8.19733C474.632 8.23882 473.843 8.21455 473.629 8.15894C472.518 7.87691 469.76 8.13069 468.078 7.9846C465.571 7.76569 464.388 8.15894 463.027 8.14834C460.127 8.1276 458.621 8.18674 457.62 8.45155C457.438 8.50319 456.258 8.38888 455.828 8.32268C454.932 8.18674 453.787 8.11701 452.104 8.13069C448.773 8.10995 445.445 8.20749 442.042 8.13069C439.787 8.08214 439.174 8.30856 438.281 8.44405C437.312 8.59058 436.274 8.67444 434.771 8.54203C433.591 8.44096 432.73 8.29796 435.092 8.21808C436.156 8.18499 437.162 8.10871 438.032 7.9952H438.057C438.659 7.90913 439.339 7.81954 438.281 7.72685C436.74 7.59445 435.094 7.70611 433.447 7.70302C433.77 7.84514 435.202 7.77584 435.846 7.86985C433.745 8.08788 431.005 7.96916 428.578 8.00226C429.115 8.10333 430.295 8.10686 431.082 8.15232C431.079 8.23882 427.432 8.14526 430.151 8.36417C430.9 8.42375 430.151 8.48245 429.436 8.47892C428.112 8.47892 427.358 8.55262 426.427 8.62545C425.282 8.71283 423.99 8.79228 422.417 8.69871C423.417 8.5663 420.696 8.34342 423.596 8.25648C424.134 8.23882 424.565 8.17968 425.782 8.07552C422.561 8.06846 420.336 8.08876 418.439 8.25648L418.404 8.25295C418.167 8.25295 417.931 8.24986 417.662 8.24632L417.65 8.25295C416.079 8.2631 416.363 8.15894 416.47 8.06846C416.425 8.0646 416.379 8.06121 416.333 8.05831C415.047 8.05834 413.763 8.07812 412.497 8.11745C408.773 8.23926 407.66 8.2322 403.401 8.07243C403.642 7.96165 405.143 7.98328 405.539 7.89148C403.324 7.89148 401.753 7.82483 401.823 7.57459L401.736 7.56929C398.49 7.67301 398.039 7.78114 400.284 7.97842C398.35 8.0689 396.593 8.13864 394.41 8.15585C390.972 8.18718 387.425 8.24986 385.169 8.55615H379.583C379.511 8.46612 380.477 8.48686 380.729 8.43831C380.587 8.38226 382.16 8.37211 380.801 8.26398C379.723 8.17571 379.989 8.00049 379.564 7.85176C379.598 7.94135 379.272 8.00314 378.105 8.00535L378.115 8.01285C377.97 8.15894 376.898 8.20484 375.643 8.23617C373.532 8.23617 371.989 8.15938 371.381 7.94665C370.844 7.801 370.271 7.90163 369.733 7.94665C369.054 8.05831 368.302 8.16291 366.691 8.13113L366.652 8.12804C362.724 8.10686 358.758 8.08656 355.256 8.31429L355.266 8.31562C355.014 8.33327 354.8 8.35093 354.549 8.37167C351.616 8.44493 349.687 8.35093 348.826 8.06316L348.818 8.06537C343.805 8.01682 339.436 8.28119 334.602 8.33018C333.313 8.34386 332.13 8.36814 330.948 8.31253L330.913 8.30944L330.184 8.309C328.523 8.30149 327.196 8.24324 326.258 8.07552C325.685 7.97842 325.18 7.84955 323.858 7.80409L323.848 7.80144C323.43 7.82174 322.977 7.84558 322.556 7.86941L322.566 7.87382C322.604 7.91575 322.673 7.95768 322.711 7.99917H322.629C322.116 8.21234 320.301 8.29178 318.449 8.34342C316.946 8.38535 317.09 8.25692 316.697 8.15938C316.266 8.05125 315.191 8.0027 314.225 8.15232C313.473 8.2706 313.077 8.41713 311.788 8.50098C308.136 8.41007 304.123 8.52129 300.651 8.31915C299.934 8.27766 299.008 8.31959 298.291 8.36814C297.512 8.35534 296.633 8.37741 296.138 8.29487C297.069 8.08964 299.757 8.16997 300.902 8.0027C298.98 7.97887 297.094 7.95724 295.207 7.93297C295.192 7.93385 295.179 7.93561 295.162 7.9365H295.169C293.489 8.0998 294.059 8.403 291.338 8.50054C289.621 8.62589 287.004 8.55615 285.643 8.75432C283.96 8.72652 282.564 8.60867 280.702 8.61176C279.915 8.61176 280.164 8.55218 280.522 8.50716C280.524 8.50033 280.54 8.49385 280.567 8.48907L280.522 8.48642C278.623 8.25339 276.905 8.31297 275.33 8.52526C274.254 8.56719 273.216 8.62589 271.999 8.63295L272.141 8.61883C270.926 8.61883 269.744 8.61529 268.527 8.61176C266.164 8.50761 266.986 8.27413 266.306 8.10377C265.983 8.02344 266.234 7.8981 264.979 7.88044C263.906 7.86279 263.799 7.97445 263.299 8.03712C261.83 8.21808 258.067 8.20793 255.704 8.01991C255.597 8.00976 255.525 7.99564 255.418 7.98196C255.632 8.01285 255.774 8.04816 255.597 8.08611C254.746 8.20616 253.623 8.1938 252.501 8.17659C253.359 8.21631 254.258 8.2525 254.022 8.37873C253.591 8.61529 251.121 8.52482 249.76 8.61176C248.114 8.63295 246.464 8.74064 244.781 8.61883C244.888 8.60117 244.995 8.58043 245.172 8.57337C247.589 8.44979 248.702 8.2834 247.437 8.03183C247.371 8.02291 247.309 8.01317 247.251 8.0027C247.467 7.98196 247.649 7.95062 247.898 7.9365C251.37 7.74495 251.298 7.74495 247.826 7.51501C246.429 7.42453 246.103 7.19458 243.562 7.25726C240.557 7.33052 243.883 7.58827 242.095 7.69243C241.809 7.71008 241.702 7.7626 241.558 7.80056C240.554 8.05125 238.822 8.12186 236.363 8.01241C235.827 8.12054 234.682 8.11745 233.754 8.15938C232.034 8.23926 229.564 8.23926 229.848 8.53497C229.955 8.62589 228.666 8.63295 227.984 8.67488C227.804 8.67488 227.625 8.6815 227.483 8.68503C225.37 8.73358 224.19 8.66737 223.797 8.44449C223.438 8.22514 222.293 8.0027 225.084 7.85308C225.333 7.83896 225.37 7.79703 225.228 7.76922C224.977 7.72421 224.546 7.7348 224.115 7.74495C223.008 7.77629 222.505 7.87029 221.86 7.95018C220.503 8.10642 219.109 8.26972 216.58 8.21499C216.252 8.23485 215.848 8.24456 215.413 8.24986C212.692 8.22205 210.223 8.21896 209.112 8.54556C208.288 8.7861 205.458 8.7477 203.917 8.73402C201.269 8.7093 199.476 8.82405 197.435 8.92865C196.718 8.97411 196.183 8.9772 196.183 8.87304V8.8139C195.073 8.4414 195.538 8.38579 199.476 8.45553C200.587 8.47627 201.483 8.45862 202.127 8.36108C203.419 8.03227 204.104 7.95768 206.085 8.02697C206.09 7.97269 206.192 7.91708 206.21 7.8597C206.242 7.76613 206.367 7.64344 204.913 7.6505C205.137 7.77408 204.136 7.86235 203.238 7.89457C200.873 7.97136 199.369 8.15585 197.363 8.27766C195.001 8.48995 192.778 8.43081 190.236 8.20131C190.56 8.37167 191.381 8.52835 189.233 8.56675C188.481 8.60161 187.764 8.64707 186.978 8.67135C183.971 8.76535 183.829 8.74064 184.078 8.4414C184.185 8.31915 184.005 8.16644 182.288 8.12098C181.322 7.98416 182.066 7.94665 182.878 7.91134C182.4 7.91046 181.964 7.90207 181.713 7.87382C179.328 7.59136 178.049 7.78908 176.684 7.96386C180.192 8.06096 180.734 8.14305 179.672 8.37873C179.42 8.50761 177.991 8.59499 178.419 8.74417C178.885 8.84524 178.883 8.93572 177.737 8.99486V8.99442ZM44.7898 1.24031C45.0419 1.21678 45.274 1.18707 45.4792 1.15204C45.2029 1.15866 44.9291 1.16528 44.6578 1.17278C44.7873 1.1922 44.8246 1.21515 44.7898 1.24031ZM118.652 1.68254C118.834 1.67002 119.025 1.66157 119.219 1.65739C119.538 1.65384 119.856 1.65075 120.175 1.64812C120.444 1.62384 120.678 1.59516 120.902 1.56559C120.28 1.54043 120.016 1.48923 119.792 1.43539C119.463 1.51968 118.863 1.59604 118.652 1.68254ZM150.607 1.67813C150.87 1.66674 151.141 1.66242 151.411 1.66533C151.07 1.61016 150.694 1.55058 150.126 1.49056C150.278 1.57 150.582 1.62517 150.607 1.67813ZM191.565 1.7739C192.905 1.6415 194.47 1.55411 196.183 1.49629C194.257 1.52573 192.373 1.61242 190.609 1.75272L190.632 1.75139C191 1.75139 191.331 1.75713 191.565 1.7739ZM127.446 1.52057L127.399 1.53292H127.417C127.427 1.52851 127.434 1.52454 127.446 1.52057ZM172.117 1.66092C172.399 1.60116 172.791 1.56099 173.224 1.54749C172.632 1.53425 172.064 1.55632 171.519 1.64282C171.722 1.64351 171.924 1.64961 172.117 1.66092ZM110.915 1.60001C110.746 1.58677 110.619 1.58986 110.848 1.60619C110.915 1.60884 110.987 1.61149 111.055 1.61502L110.915 1.60001ZM419.337 2.64028C420.064 2.6425 420.789 2.62841 421.496 2.59835C420.779 2.61733 420.059 2.63057 419.337 2.64028ZM77.2798 6.82738C78.2134 6.8393 79.2415 6.79737 80.2123 6.78766L80.1849 6.77971C81.1458 6.62083 80.5359 6.5533 79.351 6.51799C79.209 6.67291 78.756 6.79737 77.2798 6.82738ZM664.37 6.68571C664.656 6.68571 664.942 6.67202 665.231 6.66805C664.908 6.67202 664.584 6.68615 664.3 6.68262C663.479 6.6707 663.105 6.63627 663.382 6.57051L663.275 6.56742H655.807C658.637 6.64931 661.502 6.68888 664.37 6.68571ZM198.864 6.89755C198.849 6.89491 198.842 6.89138 198.829 6.88873L198.692 6.90197L198.864 6.89755ZM217.382 6.97832C217.434 6.95184 217.379 6.92448 217.317 6.89755C217.193 6.89844 217.071 6.89755 216.949 6.89579L216.988 6.90153C217.168 6.9258 217.026 6.9642 217.382 6.97832ZM224.865 6.97611C225.19 6.98639 225.522 6.98669 225.848 6.977C225.519 6.9792 225.193 6.9792 224.865 6.97611ZM183.657 7.3186C183.445 7.30074 183.265 7.27281 183.137 7.2379C183.009 7.203 182.938 7.16249 182.933 7.12088C183.396 7.04099 184.028 7.01054 184.687 6.99862C183.908 7.00304 183.174 7.02952 182.788 7.14868C182.788 7.22857 182.97 7.28815 183.657 7.3186ZM237.189 7.06527C237.119 7.1072 237.724 7.05159 237.294 7.06218C237.258 7.04316 237.262 7.02253 237.303 7.00392C237.184 7.00436 237.062 7.00392 236.943 7.00215C237.031 7.02237 237.113 7.04344 237.189 7.06527ZM20.0139 8.03006C18.152 8.05081 16.3273 7.92237 14.3931 8.00226C9.91742 7.93297 5.40186 7.88044 1.03314 7.7551V7.7476C1.09601 7.74042 1.15588 7.73246 1.21234 7.72376C1.85706 7.59136 -1.18488 7.51103 0.532776 7.38569C2.07361 7.27094 3.47015 7.43424 4.93884 7.46602C9.77301 7.56664 14.3234 7.84558 19.5882 7.70302H19.9093C21.5921 7.72376 24.0988 7.72376 24.064 7.90119C24.064 8.06449 21.4478 8.01241 20.0139 8.03006ZM186.502 7.79306C187.08 7.77217 187.638 7.73696 188.16 7.68846C189.285 7.58695 190.517 7.55164 191.852 7.55473C190.811 7.43291 189.487 7.38481 187.622 7.37863C187.149 7.37774 186.589 7.38216 186.024 7.38304C186.704 7.4157 187.229 7.4691 187.373 7.56708C187.52 7.67213 187.122 7.74009 186.502 7.79306ZM113.825 7.50618C114.132 7.47809 114.455 7.45576 114.788 7.43953C114.31 7.44704 113.785 7.4541 113.813 7.48014C113.823 7.48897 113.82 7.49735 113.825 7.50618ZM164.763 7.80277C163.364 7.68007 161.906 7.56311 160.34 7.46248C160.897 7.52459 161.468 7.5826 162.052 7.63638C162.792 7.70567 163.628 7.80409 164.763 7.80277ZM471.194 7.57238C471.045 7.55163 470.876 7.53564 470.696 7.52516C470.34 7.5 469.885 7.48676 469.404 7.47661L469.33 7.48014C469.008 7.49779 468.65 7.51103 468.329 7.52516L468.224 7.52825C468.747 7.52869 469.27 7.53089 469.8 7.53531C470.268 7.54193 470.734 7.55738 471.194 7.57238ZM76.207 7.49823L76.0676 7.50132L76.0352 7.50574L76.207 7.49823ZM49.4173 7.62976V7.63285L49.1285 7.61872L49.019 7.61916C49.1792 7.62848 49.3411 7.63687 49.5045 7.64432L49.4173 7.62976ZM47.4384 7.77805C47.8964 7.72465 48.5112 7.67522 48.9195 7.62005C48.7527 7.62225 48.5859 7.62446 48.4191 7.62534C48.2548 7.67654 47.5504 7.72597 47.4384 7.77805ZM510.868 7.6324L510.876 7.62976V7.63285L510.868 7.6324ZM325.459 7.66506C325.417 7.66153 325.379 7.65712 325.339 7.65271C325.328 7.65882 325.31 7.6644 325.285 7.66904L325.459 7.66506ZM328.944 7.72023C328.71 7.68272 328.371 7.67389 327.988 7.67433C328.354 7.68841 328.711 7.70897 329.053 7.73568C329.019 7.73038 328.976 7.72553 328.944 7.72023ZM455.342 7.74539C455.863 7.75056 456.386 7.74671 456.903 7.73392C457.264 7.72332 457.63 7.7145 457.993 7.70434C457.376 7.71317 456.761 7.722 456.151 7.73392C455.89 7.73921 455.619 7.74274 455.342 7.74539ZM111.948 7.78953C112.414 7.79703 113.061 7.77893 113.023 7.7476C113.016 7.73877 113.021 7.72906 113.018 7.72068C112.672 7.74936 112.244 7.77055 111.786 7.78864C111.84 7.78899 111.894 7.78899 111.948 7.78953ZM349.033 8.01241C350.633 7.90869 352.286 7.85529 353.966 7.92679C353.672 7.89015 353.466 7.85043 353.463 7.80321C352.4 7.8928 351.392 7.8906 350.377 7.78644C350.128 7.88353 349.266 7.93826 348.45 7.99564C348.806 7.99167 348.923 8.01329 348.826 8.06007L349.033 8.01241ZM304.43 7.84646L304.467 7.85661C304.96 7.8672 305.445 7.88221 305.933 7.89633C305.43 7.88089 304.93 7.86323 304.43 7.84646ZM284.769 8.24765C284.294 8.12098 283.36 8.00932 283.061 7.87691C282.145 7.92679 280.913 7.89633 279.806 7.98151C282.285 7.97534 283.945 8.0614 284.769 8.24765ZM124.648 7.94047C124.422 7.92281 124.185 7.91619 123.939 7.91531C124.178 7.92109 124.415 7.9295 124.648 7.94047ZM261.33 8.70886C260.255 8.82714 259.07 8.92115 258.139 8.69121C257.783 8.6047 257.063 8.57646 256.205 8.55571H256.239C257.205 8.38888 259.57 8.40565 260.573 8.22823C260.932 8.16203 262.475 8.16556 263.155 8.23176C264.121 8.32886 263.224 8.42022 262.652 8.50363C262.221 8.57337 261.865 8.64928 261.33 8.70886ZM239.193 8.86245C238.227 8.80993 238.013 8.69518 238.01 8.58749C238.01 8.49701 238.513 8.44802 239.372 8.45155C240.124 8.45155 241.269 8.39947 241.448 8.52085C241.555 8.58705 241.841 8.6356 242.2 8.68459C241.592 8.70886 240.948 8.7296 240.34 8.75388C239.768 8.77153 240.052 8.90747 239.193 8.86245Z" fill="#D89E52"/>
</svg>
