<svg width="359" height="9" viewBox="0 0 359 9" fill="none" xmlns="http://www.w3.org/2000/svg">
<path d="M91.5463 8.99442C90.6423 9.02575 90.3654 8.92115 90.1615 8.78213C90.0333 8.68812 90.4026 8.58043 89.9231 8.5001C90.3654 8.48245 90.6436 8.42375 90.9578 8.37123C91.2155 8.32974 91.5283 8.30149 91.8976 8.25957C91.418 8.20396 91.0295 8.16247 90.6423 8.11701C90.5218 8.09273 90.4411 8.06714 90.409 8.0411C89.341 8.14084 88.2589 8.03801 87.1921 8.03448C86.9601 8.16379 86.2267 8.20351 85.6446 8.27016C84.0034 8.2525 82.3418 8.22161 80.7006 8.24941C80.5711 8.23176 80.4596 8.21455 80.3314 8.1938C80.0903 8.14172 78.8018 8.2247 79.7236 8.023C80.0544 7.95018 79.6865 7.94665 79.4467 7.93605C78.8877 7.91575 78.3274 7.89854 77.7671 7.87868L77.694 7.88751C77.5017 7.95989 77.1414 7.98549 76.7747 8.00888C77.0901 8.22514 75.8477 8.28119 75.4246 8.40256C74.613 8.62854 73.9117 8.96661 71.8641 8.92821V8.92468C72.2693 8.80287 72.6398 8.68459 73.0642 8.5663C73.9296 8.31915 73.0821 8.1938 72.1231 8.07508C71.6628 8.04066 70.9051 8.10289 70.8499 7.93959C70.7397 7.66815 71.9936 7.70258 72.7872 7.63991C72.9276 7.62962 73.0707 7.6243 73.2142 7.62402C72.7475 7.56046 72.3295 7.4872 72.1423 7.36495C72.0641 7.31154 71.8974 7.2855 71.6923 7.27226C71.8423 7.32875 71.8731 7.39716 71.7897 7.4797C71.532 7.72376 70.7755 7.84867 69.4665 7.86632C69.0062 7.8522 68.7485 7.79306 68.4344 7.73392C67.9369 7.64344 67.3458 7.67831 66.8112 7.73392C66.1663 7.80012 66.5522 7.88398 66.7176 7.96342C66.7727 7.99167 66.6266 8.03359 66.5894 8.07199C65.8996 8.07199 65.1944 8.12672 64.5931 8.02079C64.7046 8.08126 64.6585 8.17085 64.5418 8.31209C64.5778 8.32931 64.5971 8.35001 64.5969 8.37123C64.1174 8.41316 63.6379 8.46877 63.1391 8.5001C62.1801 8.55571 61.3326 8.57337 62.6045 8.1938C60.871 8.42728 59.376 8.35048 58.1208 8.47186C57.8844 8.49486 57.6355 8.49805 57.3948 8.48116C57.1541 8.46427 56.9287 8.42778 56.7374 8.37476C57.549 8.28781 58.7311 8.37476 59.3389 8.18321C59.6825 8.08876 59.8838 7.95371 60.3338 7.88662C60.1833 7.90621 60.0459 7.93609 59.9299 7.97445C59.4876 8.12054 58.4901 8.05831 57.7157 8.0614C57.2913 8.0614 56.8669 8.01285 56.8117 7.91575C56.8037 7.90306 56.8039 7.88991 56.8123 7.87725C56.8208 7.86458 56.8372 7.85271 56.8605 7.84249C56.4899 7.87162 56.1489 7.90648 55.945 7.97048C55.3732 8.1479 53.9539 8.00226 53.0692 8.12407C52.3679 8.28428 51.6293 8.35357 50.6152 8.20087C50.2459 8.14481 49.692 8.1276 49.1933 8.1276C48.733 8.1276 48.3099 8.10995 48.2176 8.00579C48.1432 7.91531 48.3458 7.84161 48.7522 7.79659C49.1984 7.74583 49.6331 7.68713 50.1177 7.64962C49.0715 7.71361 48.0752 7.83145 46.9059 7.7754C47.1444 7.88398 47.8662 7.96342 47.4611 8.11039L45.5238 8.12054C44.6763 8.16909 44.8212 8.00579 44.4891 7.94312C44.0109 7.93605 43.5313 7.92899 43.4198 8.05787C43.3467 8.15143 43.1249 8.22823 42.5902 8.25295C42.0376 8.23529 41.7415 8.34298 41.2799 8.35357C40.4131 8.37123 39.2708 8.43037 39.6028 8.12407C39.2887 8.03359 38.8451 8.06846 38.4399 8.07861C37.7578 8.10289 37.2039 8.06493 37.0193 7.93605C36.8347 7.81424 37.4078 7.77584 37.795 7.70302L37.8719 7.6889C36.5295 7.77143 36.5706 8.00446 36.2065 8.20087C35.1923 8.3955 33.9576 8.42022 32.6293 8.3677H32.3959L32.3908 8.37123H32.3703V8.50363C30.7843 8.5385 29.1983 8.55924 27.7969 8.3677C27.5558 8.31209 26.984 8.38138 26.6891 8.34563C25.8622 8.40698 24.9865 8.30723 24.1633 8.36461C22.6696 8.40609 21.4695 8.1276 19.9386 8.23176C19.2373 8.16203 18.795 8.10995 18.7578 7.90472C18.7027 7.62269 17.6333 7.76216 16.8769 7.84558C16.6192 7.90825 16.3051 7.94974 15.8627 7.94621C13.4831 7.63991 10.7508 7.67831 8.07629 7.61563C6.6749 7.58077 5.05298 7.50397 3.87341 7.29521C3.2272 7.18046 3.13489 7.03746 3.48489 6.88475C3.79773 6.84945 4.01956 6.76956 4.49908 6.80752L4.48114 6.81193C5.10809 6.85651 5.23761 6.6963 5.75302 6.69983L5.77228 6.70424C6.35309 6.71395 6.99799 6.79031 7.43134 6.64731C7.44205 6.64662 7.45276 6.64589 7.46341 6.6451L7.45059 6.64378C7.72626 6.54668 7.91086 6.43502 8.29807 6.3516C9.58917 6.07664 8.63016 5.89171 7.65314 5.7037C8.0365 5.63529 8.56348 5.65824 9.00327 5.63176L9.01352 5.6375L9.01733 5.63087L9.00327 5.63176L8.99942 5.63043L9.01733 5.63087L9.01865 5.62734C9.01865 5.5682 9.03656 5.50862 9.05582 5.45301C8.20703 5.28971 8.20703 5.122 9.05582 4.95517C10.0751 4.91059 10.3598 4.74729 10.6855 4.59237L10.6611 4.58575C10.0469 4.42113 10.3931 4.2543 10.5392 4.08703L10.5867 4.01509L10.4969 3.9789C10.2521 3.90122 9.79562 3.86768 9.42508 3.81295C9.05585 3.76087 8.09552 3.79882 8.39041 3.64568C8.66733 3.50312 9.38919 3.52033 10.0162 3.5936L10.0277 3.59624L10.0328 3.5936C10.579 3.60066 10.8752 3.52298 11.2188 3.46428C10.1161 3.37513 8.99557 3.41926 7.85574 3.43692C7.16501 3.44953 6.47296 3.42238 5.80817 3.35659C5.71713 3.30451 5.84662 3.26655 6.02997 3.22816C5.9928 3.19329 5.69916 3.13106 5.95688 3.13106C6.5387 3.13236 7.11884 3.15306 7.68906 3.19285C9.97641 3.3535 10.0136 3.34644 9.84818 2.9042C9.79178 2.74399 9.09302 2.83094 8.7981 2.76827C8.55707 2.71972 7.98395 2.68132 8.00189 2.64292C8.04037 2.55598 8.50195 2.52111 8.98148 2.52464C9.4238 2.62924 9.94177 2.55995 10.4392 2.54583L10.4559 2.54627C10.6752 2.5039 10.9329 2.49419 10.8431 2.38915C10.5854 2.10006 11.6367 1.81407 11.1393 1.51086C11.106 1.49011 11.4906 1.44465 11.6919 1.41023C11.9688 1.50733 12.1727 1.6159 12.5599 1.69578C13.0766 1.80745 14.2177 1.76905 14.128 1.68254C13.8882 1.45569 15.0857 1.48658 15.3075 1.36124L15.2268 1.34712C14.7896 1.28268 13.9651 1.3096 14.0177 1.10349C14.0344 0.988738 12.7804 1.18735 12.3009 1.04479C13.61 0.967995 14.9216 0.888109 16.2499 0.811315C16.6743 0.859863 16.691 0.934894 16.7217 1.00948C17.4577 0.933569 18.4373 1.07215 19.154 0.988738L19.1642 0.982118C19.0911 0.88502 18.9976 0.787041 18.9232 0.689502C19.0155 0.68244 19.1078 0.675378 19.2181 0.668317C20.122 0.692591 20.99 0.633892 21.876 0.609176C22.3183 0.599025 22.5952 0.609176 22.8722 0.668317C23.6286 0.699653 24.4582 0.811315 24.8813 0.57475C24.9185 0.554007 25.4724 0.567688 25.7865 0.564157C25.7923 0.562886 25.7983 0.561708 25.8044 0.560627C25.7878 0.563717 25.775 0.56813 25.7609 0.570778C25.7817 0.568966 25.8023 0.566756 25.8224 0.564157C26.1122 0.533263 26.384 0.486038 26.7609 0.504134C26.8673 0.497955 26.9724 0.494424 27.0776 0.487803C27.834 0.400857 28.6085 0.31347 29.4573 0.257859C30.2496 0.469708 31.2458 0.459558 32.3344 0.362019C33.0536 0.188126 34.1063 0.295815 34.991 0.247267L35.6308 0.302436L35.6552 0.299346C36.0424 0.118392 36.9834 0.264921 37.5373 0.188127C38.163 0.320532 38.4951 0.184596 38.9374 0.135606C39.6208 0.181065 40.7286 0.034977 40.9312 0.295815C41.7235 0.334213 41.9094 0.198719 42.2953 0.121923C42.5544 0.0799952 42.83 0.0455694 43.1992 0.0698442C43.9737 0.0243855 44.7301 -0.0519695 45.5238 0.0521898H46.1879V0.0561619C46.3174 0.285666 47.5329 0.305966 47.9752 0.236674C49.7459 -0.0382881 51.7024 0.142667 53.1038 0.243736C54.7449 0.362019 55.0591 0.264481 55.5014 0.0314465C55.8886 0.104711 55.0796 0.324062 56.4989 0.226523C57.5862 0.153701 57.7913 0.428663 58.4362 0.543414H58.5824L58.9299 0.482949C60.6069 0.203573 61.439 0.226965 63.3058 0.550476C63.6417 0.604762 64.0751 0.647573 64.061 0.719514C64.2225 0.657284 64.5789 0.587109 64.2469 0.494425C64.4264 0.442345 64.6687 0.431311 64.9341 0.434842L65.2072 0.442345L65.7124 0.454702C66.215 0.462206 66.6996 0.451613 67.142 0.386292C67.5856 0.32009 67.9164 0.355398 68.1562 0.438813H68.1754L68.151 0.441462L68.1562 0.442345C68.8395 0.51561 69.578 0.550476 70.3153 0.505017C71.7166 0.418071 72.9347 0.494425 74.1514 0.609176L74.1591 0.613588L74.1707 0.606087C74.89 0.672289 75.5182 0.898261 76.4221 0.630361C76.6426 0.567688 77.176 0.665228 77.4901 0.724369L77.4645 0.727458H77.4722C78.2466 0.762766 78.9479 0.675819 79.6864 0.675819C80.866 0.637422 81.5302 0.742023 81.8264 0.94725C81.9546 1.03773 81.8443 1.13174 81.3648 1.14586C79.0044 1.20456 79.7775 1.53204 79.7416 1.79332L79.7967 1.79685C81.2532 1.69976 82.6187 1.85246 84.0393 1.86306L84.0021 1.85908C83.6508 1.6821 82.6918 1.66754 81.6212 1.55279C83.0713 1.49673 84.3304 1.65739 85.4625 1.57574C85.2266 1.53469 84.9945 1.49409 84.7035 1.46275C82.6738 1.26061 82.5636 1.18735 83.6149 0.783068C84.6663 0.870456 86.0497 0.773358 86.8985 0.985648C87.119 1.04126 87.378 0.985648 87.5985 0.95034C89.2038 0.713776 90.8475 0.797192 92.4886 0.932687C93.9144 1.07215 93.9939 1.23722 92.7271 1.427C92.4181 1.47334 92.395 1.55764 92.0873 1.60354C92.1437 1.66533 91.9296 1.7258 91.9155 1.78626H91.8976L91.8899 1.7867C91.904 1.78935 91.9207 1.79112 91.9335 1.79332C92.2655 1.80038 92.5797 1.80745 92.9117 1.81098C93.1567 1.83722 93.4178 1.83996 93.6669 1.81892C93.4028 1.81495 93.1387 1.81186 92.8758 1.80745C93.7426 1.7589 94.4977 1.70593 93.4284 1.52189L93.7631 1.4932C93.7195 1.48658 93.6733 1.47996 93.631 1.4729C94.3311 1.11805 94.8683 1.03773 96.4915 1.0342C97.9108 1.06244 99.2378 1.28842 100.769 1.11805C103.025 1.00021 105.082 1.23722 107.281 1.23987L107.337 1.2359C107.891 1.25355 108.463 1.26767 109.017 1.28533L109 1.29504C110.954 1.09025 112.54 1.40317 114.329 1.43803C114.531 1.44201 114.625 1.52498 115.085 1.48349C117.143 1.29106 119.234 1.33873 121.31 1.4782C121.375 1.4782 121.439 1.47687 121.503 1.47643C123.569 1.53557 125.618 1.63664 127.703 1.53557V1.5391C129.141 1.54263 130.543 1.6362 131.999 1.60133C132.753 1.62914 133.525 1.66092 134.279 1.68872C135.049 1.67063 135.803 1.57441 136.611 1.66445C137.33 1.67504 137.996 1.69622 138.696 1.59516C139.636 1.45922 140.171 1.66136 140.854 1.7408C141.443 1.81098 142.109 1.78317 142.754 1.78626C144.21 1.79332 145.687 1.74477 147.053 1.89439C148.085 2.00914 148.749 1.77964 149.781 1.79332C151.202 1.81407 152.512 1.98796 153.988 1.90101L154.051 1.89704C154.897 1.74257 155.864 1.77214 156.956 1.98531L156.887 1.99811C157.13 2.01576 157.387 2.02547 157.621 2.00914C159.797 1.85953 162.031 1.99899 164.244 1.95706C165.221 1.93632 166.198 2.07535 167.231 1.97472C167.638 1.97781 168.013 2.01753 168.399 2.04622C168.428 2.04441 168.456 2.04264 168.485 2.04092H169.115C169.483 2.0268 169.907 2.02636 170.202 1.99149C171.511 1.83525 172.028 1.87674 172.452 2.17288C172.499 2.2069 172.568 2.23684 172.653 2.26051C172.738 2.28419 172.838 2.301 172.944 2.3097C173.239 2.30352 173.54 2.29293 173.839 2.28234C173.906 2.2747 173.973 2.26616 174.038 2.25674C174.556 2.1795 174.773 2.19672 174.903 2.24924C175.021 2.24688 175.138 2.24349 175.255 2.23909C176.509 2.20775 177.783 2.12434 178.982 2.2947C179.369 2.35031 179.904 2.33265 180.383 2.29823C180.476 2.29823 180.569 2.29823 180.66 2.29117L180.69 2.28764C181.305 2.15611 181.305 2.03695 180.605 1.90454C180.144 1.81407 179.794 1.68872 180.456 1.5775C181.397 1.42082 182.432 1.48702 183.354 1.58412C183.999 1.65386 184.221 1.7792 183.741 1.90101C183.123 2.05902 183.33 2.2307 183.335 2.39886L183.564 2.40195C184.087 2.40195 184.532 2.36223 184.934 2.29602L184.922 2.2947C185.279 2.13714 185.868 2.07093 186.693 2.09609C186.802 2.1901 185.938 2.13802 186.103 2.23909C187.375 2.3993 188.592 2.17642 189.847 2.22541C189.846 2.22541 189.844 2.22541 189.843 2.22629L189.866 2.22541L189.907 2.22982C190.102 2.23247 190.297 2.23689 190.492 2.24306C191.358 2.28102 191.415 2.16935 191.378 2.06122C191.323 1.92882 190.843 1.92573 190.289 1.96722C189.939 1.99193 189.57 2.05107 189.349 1.94294C189.239 1.88733 189.422 1.8454 189.662 1.81407C190.898 1.64326 192.466 1.67151 193.83 1.57397C193.868 1.57397 193.959 1.57397 193.978 1.58412C194.809 1.90454 196.284 1.78626 197.742 1.73021C197.52 1.90807 196.801 1.87674 196.265 1.96766C198.337 1.92352 197.563 2.23865 198.028 2.39753C198.05 2.3993 198.07 2.4015 198.092 2.40283C199.378 2.70118 200.685 2.52244 201.989 2.40415C202.825 2.06828 201.005 2.03342 200.213 1.86659C201.394 1.71697 202.852 1.86659 203.995 1.73418C204.493 1.74124 205.193 1.68916 205.377 1.82157C205.58 1.97075 204.806 1.95 204.363 1.99899C203.305 2.11948 203.727 2.35605 203.344 2.5295L203.349 2.5317C204.525 2.4858 205.426 2.73737 206.627 2.67117L206.874 2.65352L206.731 2.616C206.107 2.42799 206.583 2.22276 206.652 2.0268C206.689 1.90498 207.204 1.94647 207.519 1.97428C208.403 2.04401 209.326 2.04048 210.266 2.04401C210.728 2.04401 211.392 2.00561 211.539 2.12389C211.669 2.22496 211.115 2.28057 210.71 2.3331C210.397 2.37105 210.046 2.40283 209.77 2.48316C211.724 2.46903 213.588 2.31544 215.543 2.31235C215.543 2.49463 216.059 2.58952 217.092 2.59702V2.59393L217.095 2.59482L217.092 2.59702H217.114L217.095 2.59482C217.758 2.00208 218.368 1.9681 220.818 2.37458C221.63 2.51052 222.735 2.45844 222.644 2.26689C222.514 2.01974 223.457 2.06828 223.918 2.07888C224.692 2.09256 225.189 2.24659 225.042 2.37193C224.894 2.48978 224.748 2.58025 225.374 2.62218C226.02 2.6672 226.703 2.62218 227.146 2.52111C227.515 2.43417 227.735 2.3225 228.012 2.22541C228.714 1.98487 229.618 1.97119 230.448 2.20113C230.724 2.27749 230.964 2.35693 231.424 2.39886C232.291 2.47565 233.084 2.4964 233.12 2.24924C233.12 2.14508 233.232 2.06828 233.804 2.03695C233.988 1.91867 234.395 1.85599 235.096 1.8529C235.723 1.8529 236.387 1.84893 236.849 1.73771H237.789C237.955 1.76199 238.14 1.78979 238.36 1.78626C240.443 1.73462 240.861 1.9937 241.066 2.29293C242.106 2.28102 243.23 2.19142 244.056 2.40724L244.134 2.40636L244.079 2.40989H244.393L244.416 2.41033C245.06 2.32957 245.911 2.30706 246.367 2.16935V2.16582L246.389 2.172C246.389 2.17024 246.385 2.16759 246.384 2.16582C245.72 1.97075 244.816 2.05107 243.931 2.08947C243.027 2.12787 242.085 2.17288 241.79 1.9222C245.221 1.85599 248.598 1.98134 251.992 2.04754C253.394 2.07535 254.815 2.08947 256.217 2.10668V2.11065C256.22 2.12959 256.232 2.14822 256.253 2.16582V2.16715C258.811 2.28764 261.479 2.22894 264.074 2.27042C266 2.29999 267.989 2.36222 269.969 2.35251C269.42 2.20643 269.027 2.03254 267.802 2.02371C267.488 2.02371 267.174 1.94294 267.432 1.85908C268.723 1.66798 270.291 1.84893 271.637 1.74433C271.858 1.96413 272.745 2.11065 273.353 2.28455C274.828 2.2638 275.75 1.95706 277.613 2.05107C277.023 1.85246 275.934 1.90454 275.511 1.77214C278.018 1.55632 281.044 1.79685 283.607 2.40945L283.471 2.41651C284.025 2.62174 284.887 2.61115 285.841 2.53877C285.809 2.36929 286.597 2.1645 285.251 2.05107C287.077 1.89439 287.961 1.93985 288.81 2.23556C289.124 2.34678 289.364 2.4655 290.25 2.4377C291.062 2.40989 291.337 2.3331 291.522 2.17288C291.872 1.85953 292.536 2.1795 293.071 2.16935C294.195 2.1592 294.067 2.28411 293.846 2.42004C293.814 2.43523 293.776 2.44901 293.734 2.46109L293.754 2.46197C294.237 2.41121 294.808 2.39268 295.285 2.33663C295.727 2.28411 295.913 2.23512 295.711 2.14155C295.714 2.12835 295.707 2.1151 295.69 2.10315C295.857 2.01929 296.226 1.99193 296.652 1.98178C297.277 2.0268 297.924 2.02327 298.569 2.01267C299.158 2.00561 299.675 2.01621 299.638 2.16582C300.819 2.44079 301.502 2.46197 302.793 2.22188C303.605 2.06873 304.178 2.11772 305.246 2.15567C307.533 2.23953 309.858 2.44785 312.127 2.38518C313.841 2.33972 315.372 2.33001 316.978 2.41695C318.084 2.5423 319.561 2.39224 320.705 2.5701C320.003 2.7056 319.135 2.52464 318.508 2.64646C318.803 2.78195 319.688 2.72325 320.094 2.82035C319.082 2.9351 318.638 2.93201 317.199 2.80667C316.48 2.74399 315.87 2.64646 315.188 2.86228C314.783 2.99115 313.786 2.86228 313.048 2.86228C312.337 2.86228 311.253 2.73693 311.173 3.01234L311.225 3.02249C313.068 3.00483 314.931 2.99865 316.776 3.04014L316.899 3.04632C320.35 3.01763 323.783 3.16063 327.251 3.09531C331.034 3.05691 334.853 3.1827 338.616 3.04676C340.386 2.98453 342.12 2.88346 343.946 2.90729L344.037 2.90376H343.927C345.624 2.78239 347.395 2.83138 349.093 2.86625C350.347 2.89405 351.25 3.15136 351.233 3.32216C351.177 3.76087 352.543 3.77808 354.166 3.79176C355.401 3.97625 356.084 4.24856 357.135 4.46438L357.123 4.46703L357.153 4.46791C359.698 4.80202 359.59 5.04917 356.97 5.35547C355.919 5.47728 354.355 5.48479 353.893 5.76593C354.553 5.84846 355.397 5.93232 355.087 6.10445C354.719 6.30967 354.57 6.5811 352.874 6.57448C352.574 6.61112 352.277 6.63407 351.962 6.58773C351.948 6.71572 351.334 6.72719 350.827 6.75897C350.2 6.79737 349.517 6.76912 348.927 6.82164C348.158 6.87681 347.569 7.01804 346.64 7.00966C345.828 7.15221 344.813 7.12441 343.836 7.13544C342.729 7.14206 341.584 7.10764 340.497 7.17693C340.682 7.34376 341.51 7.278 341.806 7.36495C340.277 7.5075 339.723 7.4691 338.432 7.25328C337.639 7.12088 336.494 7.13544 335.444 7.13544L335.457 7.13235C334.888 7.12882 334.335 7.14206 333.82 7.19414L333.817 7.19503C334.375 7.35965 335.487 7.28241 336.255 7.35833C336.251 7.38649 336.239 7.41446 336.219 7.44174C334.688 7.44174 333.174 7.43821 331.643 7.44174C331.127 7.44174 330.609 7.39628 330.646 7.60857C330.702 7.81733 329.393 7.76525 328.544 7.7476C327.659 7.59092 326.773 7.7092 325.887 7.7476C325.058 7.76172 324.136 7.69905 323.546 7.88353C323.361 7.94267 322.882 7.94621 322.697 7.8906C322.107 7.71317 321.202 7.75113 320.373 7.75113C318.362 7.75113 316.313 7.77584 315.411 7.31949C315.27 7.25373 314.817 7.25637 314.44 7.25108L314.415 7.25328L313.804 7.26432V7.2599C313.381 7.45145 311.482 7.4691 312.053 7.79659C312.145 7.84514 311.537 7.83101 311.26 7.79659C309.286 7.55958 307.256 7.58033 305.173 7.73038C304.269 7.79659 303.365 7.76878 302.48 7.69552C300.598 7.53884 298.698 7.44527 296.633 7.58077C295.653 7.64609 294.709 7.63682 294.066 7.4541L294.013 7.44836H293.041C292.695 7.60195 292.985 7.73965 293.367 7.87338C293.425 7.89413 293.957 7.89457 293.552 7.92899C292.63 8.00932 293.016 8.30194 291.744 8.30856H287.815C288.572 8.26001 289.346 8.21146 290.138 8.1585C290.138 8.14834 290.212 8.13069 290.213 8.11348C289.844 7.57415 287.464 7.76525 285.823 7.68184L285.806 7.67742L285.804 7.68537C285.324 7.69905 284.845 7.71626 284.365 7.72685C283.868 7.73745 283.074 7.80321 282.964 7.68184C282.853 7.54281 283.72 7.58783 284.198 7.57062L284.209 7.5715L284.218 7.57062C284.356 7.51854 284.246 7.48764 284.074 7.46248L283.885 7.43821C282.594 7.55296 281.083 7.51809 279.865 7.73745C279.072 7.88 277.558 7.74804 276.377 7.73745C275.732 7.73038 275.086 7.69552 274.441 7.73745C273.704 7.786 272.577 7.79306 273.555 8.03315C273.794 8.09273 273.594 8.17924 273.336 8.23176C273.022 8.29796 272.614 8.26265 272.282 8.23176C271.01 8.10995 269.718 7.99475 268.575 7.83454C267.93 7.74407 267.302 7.63329 266.418 7.62976V7.62225L266.443 7.61828C266.429 7.62005 266.412 7.62049 266.398 7.62225C265.809 7.62225 265.255 7.62225 264.775 7.53178C263.964 7.38172 263.466 7.46955 263.134 7.62623L263.117 7.6302L263.13 7.6324C262.733 7.79791 262.972 7.90472 263.964 7.93959C264.646 7.96386 265.348 8.00888 266.032 7.99873C267.929 7.97092 267.948 8.17968 267.745 8.4339H267.08C265.955 8.15188 264.166 8.14526 262.599 8.04772C262.156 8.01991 262.101 8.10333 261.843 8.13466C260.994 8.24941 260.126 8.35401 259.002 8.23926C258.67 8.20396 258.117 8.17306 257.987 8.2525C257.378 8.59058 256.289 8.34695 255.496 8.32268C254.592 8.29487 254.409 8.17262 254.428 7.98151C254.464 7.65403 252.896 7.79306 251.954 7.7551L251.945 7.74892C251.284 7.79438 250.625 7.85794 250.387 7.6505C250.259 7.53575 249.743 7.58077 249.356 7.57062V7.57415C249.351 7.57194 249.35 7.56973 249.346 7.56753L249.336 7.57062C248.878 7.68095 249.62 7.82969 248.998 7.93385L249.021 7.93959C247.62 8.11348 246.587 7.9184 245.48 7.81071H245.462L245.484 7.80806L245.444 7.80718L245.462 7.81071C244.983 7.86279 243.858 7.85264 244.889 8.04021C245.184 8.09273 245.13 8.15541 244.798 8.19733C244.466 8.23882 244.06 8.21455 243.949 8.15894C243.377 7.87691 241.957 8.13069 241.09 7.9846C239.799 7.76569 239.19 8.15894 238.489 8.14834C236.995 8.1276 236.219 8.18674 235.704 8.45155C235.61 8.50319 235.003 8.38888 234.781 8.32268C234.319 8.18674 233.729 8.11701 232.863 8.13069C231.147 8.10995 229.433 8.20749 227.68 8.13069C226.519 8.08214 226.203 8.30856 225.743 8.44405C225.244 8.59058 224.709 8.67444 223.935 8.54203C223.327 8.44096 222.884 8.29796 224.1 8.21808C224.648 8.18499 225.167 8.10871 225.615 7.9952H225.628C225.938 7.90913 226.288 7.81954 225.743 7.72685C224.949 7.59445 224.102 7.70611 223.253 7.70302C223.42 7.84514 224.157 7.77584 224.489 7.86985C223.407 8.08788 221.995 7.96916 220.745 8.00226C221.022 8.10333 221.63 8.10686 222.035 8.15232C222.034 8.23882 220.155 8.14526 221.555 8.36417C221.941 8.42375 221.555 8.48245 221.187 8.47892C220.505 8.47892 220.117 8.55262 219.637 8.62545C219.048 8.71283 218.382 8.79228 217.572 8.69871C218.087 8.5663 216.686 8.34342 218.18 8.25648C218.456 8.23882 218.678 8.17968 219.305 8.07552C217.646 8.06846 216.5 8.08876 215.523 8.25648L215.505 8.25295C215.383 8.25295 215.261 8.24986 215.123 8.24632L215.117 8.25295C214.307 8.2631 214.454 8.15894 214.509 8.06846C214.486 8.0646 214.462 8.06121 214.438 8.05831C213.776 8.05834 213.115 8.07812 212.462 8.11745C210.544 8.23926 209.971 8.2322 207.778 8.07243C207.902 7.96165 208.675 7.98328 208.879 7.89148C207.738 7.89148 206.929 7.82483 206.965 7.57459L206.92 7.56929C205.248 7.67301 205.016 7.78114 206.172 7.97842C205.176 8.0689 204.271 8.13864 203.146 8.15585C201.376 8.18718 199.549 8.24986 198.387 8.55615H195.51C195.473 8.46612 195.97 8.48686 196.1 8.43831C196.027 8.38226 196.837 8.37211 196.137 8.26398C195.582 8.17571 195.719 8.00049 195.5 7.85176C195.518 7.94135 195.35 8.00314 194.748 8.00535L194.754 8.01285C194.679 8.15894 194.127 8.20484 193.48 8.23617C192.393 8.23617 191.598 8.15938 191.285 7.94665C191.008 7.801 190.714 7.90163 190.437 7.94665C190.087 8.05831 189.699 8.16291 188.87 8.13113L188.849 8.12804C186.826 8.10686 184.784 8.08656 182.98 8.31429L182.985 8.31562C182.855 8.33327 182.745 8.35093 182.615 8.37167C181.105 8.44493 180.111 8.35093 179.668 8.06316L179.664 8.06537C177.082 8.01682 174.832 8.28119 172.342 8.33018C171.678 8.34386 171.069 8.36814 170.46 8.31253L170.442 8.30944L170.066 8.309C169.211 8.30149 168.527 8.24324 168.044 8.07552C167.749 7.97842 167.489 7.84955 166.808 7.80409L166.803 7.80144C166.587 7.82174 166.354 7.84558 166.137 7.86941L166.143 7.87382C166.162 7.91575 166.198 7.95768 166.217 7.99917H166.175C165.91 8.21234 164.976 8.29178 164.022 8.34342C163.247 8.38535 163.322 8.25692 163.119 8.15938C162.897 8.05125 162.344 8.0027 161.846 8.15232C161.459 8.2706 161.255 8.41713 160.591 8.50098C158.71 8.41007 156.643 8.52129 154.855 8.31915C154.485 8.27766 154.008 8.31959 153.639 8.36814C153.238 8.35534 152.785 8.37741 152.53 8.29487C153.01 8.08964 154.394 8.16997 154.984 8.0027C153.994 7.97887 153.022 7.95724 152.051 7.93297C152.043 7.93385 152.036 7.93561 152.027 7.9365H152.031C151.166 8.0998 151.459 8.403 150.058 8.50054C149.173 8.62589 147.826 8.55615 147.125 8.75432C146.258 8.72652 145.539 8.60867 144.579 8.61176C144.174 8.61176 144.303 8.55218 144.487 8.50716C144.488 8.50033 144.496 8.49385 144.51 8.48907L144.487 8.48642C143.509 8.25339 142.624 8.31297 141.813 8.52526C141.259 8.56719 140.724 8.62589 140.097 8.63295L140.17 8.61883C139.545 8.61883 138.935 8.61529 138.309 8.61176C137.092 8.50761 137.515 8.27413 137.165 8.10377C136.998 8.02344 137.128 7.8981 136.481 7.88044C135.929 7.86279 135.874 7.97445 135.616 8.03712C134.86 8.21808 132.921 8.20793 131.704 8.01991C131.649 8.00976 131.612 7.99564 131.557 7.98196C131.667 8.01285 131.74 8.04816 131.649 8.08611C131.211 8.20616 130.632 8.1938 130.054 8.17659C130.496 8.21631 130.959 8.2525 130.837 8.37873C130.616 8.61529 129.344 8.52482 128.642 8.61176C127.795 8.63295 126.945 8.74064 126.078 8.61883C126.133 8.60117 126.188 8.58043 126.279 8.57337C127.524 8.44979 128.098 8.2834 127.446 8.03183C127.412 8.02291 127.38 8.01317 127.35 8.0027C127.462 7.98196 127.555 7.95062 127.683 7.9365C129.472 7.74495 129.435 7.74495 127.646 7.51501C126.927 7.42453 126.759 7.19458 125.45 7.25726C123.902 7.33052 125.615 7.58827 124.695 7.69243C124.547 7.71008 124.492 7.7626 124.418 7.80056C123.901 8.05125 123.009 8.12186 121.742 8.01241C121.466 8.12054 120.877 8.11745 120.398 8.15938C119.512 8.23926 118.24 8.23926 118.387 8.53497C118.442 8.62589 117.778 8.63295 117.426 8.67488C117.334 8.67488 117.242 8.6815 117.169 8.68503C116.08 8.73358 115.472 8.66737 115.27 8.44449C115.085 8.22514 114.495 8.0027 115.933 7.85308C116.061 7.83896 116.08 7.79703 116.007 7.76922C115.877 7.72421 115.656 7.7348 115.434 7.74495C114.863 7.77629 114.604 7.87029 114.272 7.95018C113.573 8.10642 112.855 8.26972 111.553 8.21499C111.384 8.23485 111.176 8.24456 110.951 8.24986C109.55 8.22205 108.278 8.21896 107.706 8.54556C107.282 8.7861 105.824 8.7477 105.031 8.73402C103.666 8.7093 102.743 8.82405 101.692 8.92865C101.323 8.97411 101.047 8.9772 101.047 8.87304V8.8139C100.475 8.4414 100.715 8.38579 102.743 8.45553C103.315 8.47627 103.777 8.45862 104.109 8.36108C104.774 8.03227 105.127 7.95768 106.147 8.02697C106.15 7.97269 106.202 7.91708 106.211 7.8597C106.228 7.76613 106.292 7.64344 105.543 7.6505C105.659 7.77408 105.143 7.86235 104.681 7.89457C103.462 7.97136 102.688 8.15585 101.655 8.27766C100.438 8.48995 99.2929 8.43081 97.9839 8.20131C98.1506 8.37167 98.5737 8.52835 97.4672 8.56675C97.08 8.60161 96.7107 8.64707 96.3056 8.67135C94.7567 8.76535 94.6837 8.74064 94.8119 8.4414C94.867 8.31915 94.7747 8.16644 93.89 8.12098C93.3925 7.98416 93.7759 7.94665 94.1939 7.91134C93.9477 7.91046 93.7233 7.90207 93.5938 7.87382C92.3655 7.59136 91.7065 7.78908 91.0039 7.96386C92.8105 8.06096 93.0899 8.14305 92.5425 8.37873C92.413 8.50761 91.677 8.59499 91.8976 8.74417C92.1373 8.84524 92.136 8.93572 91.5463 8.99486V8.99442ZM23.0696 1.24031C23.1995 1.21678 23.319 1.18707 23.4248 1.15204C23.2824 1.15866 23.1414 1.16528 23.0017 1.17278C23.0684 1.1922 23.0876 1.21515 23.0696 1.24031ZM61.1133 1.68254C61.2074 1.67002 61.3056 1.66157 61.4057 1.65739C61.5697 1.65384 61.7338 1.65075 61.898 1.64812C62.0365 1.62384 62.157 1.59516 62.2724 1.56559C61.9519 1.54043 61.8159 1.48923 61.7006 1.43539C61.5313 1.51968 61.2223 1.59604 61.1133 1.68254ZM77.5722 1.67813C77.7076 1.66674 77.8472 1.66242 77.9863 1.66533C77.8107 1.61016 77.6171 1.55058 77.3247 1.49056C77.403 1.57 77.5594 1.62517 77.5722 1.67813ZM98.6685 1.7739C99.3583 1.6415 100.165 1.55411 101.047 1.49629C100.055 1.52573 99.0846 1.61242 98.1762 1.75272L98.1877 1.75139C98.3775 1.75139 98.548 1.75713 98.6685 1.7739ZM65.6431 1.52057L65.6188 1.53292H65.6278C65.6329 1.52851 65.6367 1.52454 65.6431 1.52057ZM88.6512 1.66092C88.7966 1.60116 88.9987 1.56099 89.2217 1.54749C88.9166 1.53425 88.6242 1.55632 88.3435 1.64282C88.4481 1.64351 88.5518 1.64961 88.6512 1.66092ZM57.1284 1.60001C57.0413 1.58677 56.9759 1.58986 57.0938 1.60619C57.1284 1.60884 57.1656 1.61149 57.2003 1.61502L57.1284 1.60001ZM215.986 2.64028C216.36 2.6425 216.734 2.62841 217.097 2.59835C216.728 2.61733 216.358 2.63057 215.986 2.64028ZM39.8041 6.82738C40.2849 6.8393 40.8145 6.79737 41.3145 6.78766L41.3004 6.77971C41.7953 6.62083 41.4812 6.5533 40.8709 6.51799C40.7978 6.67291 40.5645 6.79737 39.8041 6.82738ZM342.193 6.68571C342.341 6.68571 342.488 6.67202 342.637 6.66805C342.47 6.67202 342.304 6.68615 342.158 6.68262C341.734 6.6707 341.542 6.63627 341.684 6.57051L341.629 6.56742H337.783C339.241 6.64931 340.716 6.68888 342.193 6.68571ZM102.428 6.89755C102.42 6.89491 102.416 6.89138 102.41 6.88873L102.339 6.90197L102.428 6.89755ZM111.966 6.97832C111.993 6.95184 111.964 6.92448 111.932 6.89755C111.868 6.89844 111.805 6.89755 111.743 6.89579L111.763 6.90153C111.855 6.9258 111.782 6.9642 111.966 6.97832ZM115.82 6.97611C115.987 6.98639 116.158 6.98669 116.326 6.977C116.157 6.9792 115.989 6.9792 115.82 6.97611ZM94.5952 7.3186C94.486 7.30074 94.3933 7.27281 94.3274 7.2379C94.2615 7.203 94.2251 7.16249 94.2221 7.12088C94.4606 7.04099 94.7862 7.01054 95.126 6.99862C94.7247 7.00304 94.3464 7.02952 94.1477 7.14868C94.1477 7.22857 94.2413 7.28815 94.5952 7.3186ZM122.168 7.06527C122.132 7.1072 122.443 7.05159 122.221 7.06218C122.203 7.04316 122.205 7.02253 122.227 7.00392C122.165 7.00436 122.102 7.00392 122.041 7.00215C122.086 7.02237 122.129 7.04344 122.168 7.06527ZM10.3085 8.03006C9.34946 8.05081 8.40964 7.92237 7.41342 8.00226C5.10812 7.93297 2.78232 7.88044 0.532166 7.7551V7.7476C0.564545 7.74042 0.595367 7.73246 0.624451 7.72376C0.956543 7.59136 -0.61026 7.51103 0.274414 7.38569C1.06805 7.27094 1.78738 7.43424 2.54382 7.46602C5.03375 7.56664 7.37747 7.84558 10.0892 7.70302H10.2546C11.1213 7.72376 12.4124 7.72376 12.3945 7.90119C12.3945 8.06449 11.047 8.01241 10.3085 8.03006ZM96.0607 7.79306C96.3582 7.77217 96.6456 7.73696 96.9146 7.68846C97.4941 7.58695 98.1288 7.55164 98.816 7.55473C98.2801 7.43291 97.598 7.38481 96.6376 7.37863C96.394 7.37774 96.1055 7.38216 95.8145 7.38304C96.1645 7.4157 96.4351 7.4691 96.5094 7.56708C96.5851 7.67213 96.3799 7.74009 96.0607 7.79306ZM58.6273 7.50618C58.7855 7.47809 58.9518 7.45576 59.1235 7.43953C58.8773 7.44704 58.6068 7.4541 58.6208 7.48014C58.626 7.48897 58.6247 7.49735 58.6273 7.50618ZM84.8637 7.80277C84.1432 7.68007 83.3918 7.56311 82.5854 7.46248C82.8723 7.52459 83.1666 7.5826 83.4675 7.63638C83.8483 7.70567 84.2791 7.80409 84.8637 7.80277ZM242.695 7.57238C242.619 7.55163 242.532 7.53564 242.439 7.52516C242.256 7.5 242.021 7.48676 241.774 7.47661L241.735 7.48014C241.57 7.49779 241.385 7.51103 241.22 7.52516L241.166 7.52825C241.435 7.52869 241.704 7.53089 241.977 7.53531C242.218 7.54193 242.458 7.55738 242.695 7.57238ZM39.2515 7.49823L39.1797 7.50132L39.1631 7.50574L39.2515 7.49823ZM25.4531 7.62976V7.63285L25.3044 7.61872L25.248 7.61916C25.3305 7.62848 25.4139 7.63687 25.498 7.64432L25.4531 7.62976ZM24.4338 7.77805C24.6697 7.72465 24.9865 7.67522 25.1967 7.62005C25.1108 7.62225 25.0249 7.62446 24.939 7.62534C24.8544 7.67654 24.4915 7.72597 24.4338 7.77805ZM263.13 7.6324L263.134 7.62976V7.63285L263.13 7.6324ZM167.632 7.66506C167.611 7.66153 167.591 7.65712 167.571 7.65271C167.565 7.65882 167.555 7.6644 167.543 7.66904L167.632 7.66506ZM169.427 7.72023C169.307 7.68272 169.132 7.67389 168.935 7.67433C169.123 7.68841 169.307 7.70897 169.484 7.73568C169.466 7.73038 169.444 7.72553 169.427 7.72023ZM234.531 7.74539C234.799 7.75056 235.068 7.74671 235.335 7.73392C235.521 7.72332 235.709 7.7145 235.896 7.70434C235.578 7.71317 235.262 7.722 234.947 7.73392C234.813 7.73921 234.673 7.74274 234.531 7.74539ZM57.6605 7.78953C57.9003 7.79703 58.2336 7.77893 58.2144 7.7476C58.2106 7.73877 58.2131 7.72906 58.2119 7.72068C58.0336 7.74936 57.8131 7.77055 57.5772 7.78864C57.605 7.78899 57.6328 7.78899 57.6605 7.78953ZM179.774 8.01241C180.599 7.90869 181.45 7.85529 182.315 7.92679C182.164 7.89015 182.058 7.85043 182.056 7.80321C181.509 7.8928 180.99 7.8906 180.467 7.78644C180.338 7.88353 179.895 7.93826 179.474 7.99564C179.658 7.99167 179.718 8.01329 179.668 8.06007L179.774 8.01241ZM156.801 7.84646L156.82 7.85661C157.074 7.8672 157.324 7.88221 157.575 7.89633C157.316 7.88089 157.059 7.86323 156.801 7.84646ZM146.674 8.24765C146.43 8.12098 145.949 8.00932 145.795 7.87691C145.323 7.92679 144.688 7.89633 144.118 7.98151C145.395 7.97534 146.25 8.0614 146.674 8.24765ZM64.202 7.94047C64.0854 7.92281 63.9635 7.91619 63.8366 7.91531C63.9598 7.92109 64.0818 7.9295 64.202 7.94047ZM134.602 8.70886C134.048 8.82714 133.438 8.92115 132.958 8.69121C132.775 8.6047 132.404 8.57646 131.962 8.55571H131.98C132.477 8.38888 133.695 8.40565 134.212 8.22823C134.397 8.16203 135.192 8.16556 135.542 8.23176C136.039 8.32886 135.578 8.42022 135.283 8.50363C135.061 8.57337 134.878 8.64928 134.602 8.70886ZM123.2 8.86245C122.702 8.80993 122.592 8.69518 122.591 8.58749C122.591 8.49701 122.85 8.44802 123.292 8.45155C123.679 8.45155 124.269 8.39947 124.361 8.52085C124.417 8.58705 124.564 8.6356 124.749 8.68459C124.436 8.70886 124.104 8.7296 123.791 8.75388C123.496 8.77153 123.642 8.90747 123.2 8.86245Z" fill="#D89E52" fill-opacity="0.5"/>
</svg>
