<svg width="359" height="9" viewBox="0 0 359 9" fill="none" xmlns="http://www.w3.org/2000/svg">
<path d="M267.454 8.99442C268.358 9.02575 268.635 8.92115 268.838 8.78213C268.967 8.68812 268.597 8.58043 269.077 8.5001C268.635 8.48245 268.356 8.42375 268.042 8.37123C267.785 8.32974 267.472 8.30149 267.102 8.25957C267.582 8.20396 267.97 8.16247 268.358 8.11701C268.478 8.09273 268.559 8.06714 268.591 8.0411C269.659 8.14084 270.741 8.03801 271.808 8.03448C272.04 8.16379 272.773 8.20351 273.355 8.27016C274.997 8.2525 276.658 8.22161 278.299 8.24941C278.429 8.23176 278.54 8.21455 278.669 8.1938C278.91 8.14172 280.198 8.2247 279.276 8.023C278.946 7.95018 279.314 7.94665 279.553 7.93605C280.112 7.91575 280.673 7.89854 281.233 7.87868L281.306 7.88751C281.498 7.95989 281.859 7.98549 282.225 8.00888C281.91 8.22514 283.152 8.28119 283.575 8.40256C284.387 8.62854 285.088 8.96661 287.136 8.92821V8.92468C286.731 8.80287 286.36 8.68459 285.936 8.5663C285.07 8.31915 285.918 8.1938 286.877 8.07508C287.337 8.04066 288.095 8.10289 288.15 7.93959C288.26 7.66815 287.006 7.70258 286.213 7.63991C286.072 7.62962 285.929 7.6243 285.786 7.62402C286.253 7.56046 286.671 7.4872 286.858 7.36495C286.936 7.31154 287.103 7.2855 287.308 7.27226C287.158 7.32875 287.127 7.39716 287.21 7.4797C287.468 7.72376 288.224 7.84867 289.534 7.86632C289.994 7.8522 290.251 7.79306 290.566 7.73392C291.063 7.64344 291.654 7.67831 292.189 7.73392C292.834 7.80012 292.448 7.88398 292.282 7.96342C292.227 7.99167 292.373 8.03359 292.411 8.07199C293.1 8.07199 293.806 8.12672 294.407 8.02079C294.295 8.08126 294.342 8.17085 294.458 8.31209C294.422 8.32931 294.403 8.35001 294.403 8.37123C294.883 8.41316 295.362 8.46877 295.861 8.5001C296.82 8.55571 297.667 8.57337 296.396 8.1938C298.129 8.42728 299.624 8.35048 300.879 8.47186C301.116 8.49486 301.364 8.49805 301.605 8.48116C301.846 8.46427 302.071 8.42778 302.263 8.37476C301.451 8.28781 300.269 8.37476 299.661 8.18321C299.318 8.08876 299.116 7.95371 298.666 7.88662C298.817 7.90621 298.954 7.93609 299.07 7.97445C299.512 8.12054 300.51 8.05831 301.284 8.0614C301.709 8.0614 302.133 8.01285 302.188 7.91575C302.196 7.90306 302.196 7.88991 302.188 7.87725C302.179 7.86458 302.163 7.85271 302.14 7.84249C302.51 7.87162 302.851 7.90648 303.055 7.97048C303.627 8.1479 305.046 8.00226 305.931 8.12407C306.632 8.28428 307.371 8.35357 308.385 8.20087C308.754 8.14481 309.308 8.1276 309.807 8.1276C310.267 8.1276 310.69 8.10995 310.782 8.00579C310.857 7.91531 310.654 7.84161 310.248 7.79659C309.802 7.74583 309.367 7.68713 308.882 7.64962C309.929 7.71361 310.925 7.83145 312.094 7.7754C311.856 7.88398 311.134 7.96342 311.539 8.11039L313.476 8.12054C314.324 8.16909 314.179 8.00579 314.511 7.94312C314.989 7.93605 315.469 7.92899 315.58 8.05787C315.653 8.15143 315.875 8.22823 316.41 8.25295C316.962 8.23529 317.259 8.34298 317.72 8.35357C318.587 8.37123 319.729 8.43037 319.397 8.12407C319.711 8.03359 320.155 8.06846 320.56 8.07861C321.242 8.10289 321.796 8.06493 321.981 7.93605C322.165 7.81424 321.592 7.77584 321.205 7.70302L321.128 7.6889C322.47 7.77143 322.429 8.00446 322.794 8.20087C323.808 8.3955 325.042 8.42022 326.371 8.3677H326.604L326.609 8.37123H326.63V8.50363C328.216 8.5385 329.802 8.55924 331.203 8.3677C331.444 8.31209 332.016 8.38138 332.311 8.34563C333.138 8.40698 334.014 8.30723 334.837 8.36461C336.33 8.40609 337.53 8.1276 339.061 8.23176C339.763 8.16203 340.205 8.10995 340.242 7.90472C340.297 7.62269 341.367 7.76216 342.123 7.84558C342.381 7.90825 342.695 7.94974 343.137 7.94621C345.517 7.63991 348.249 7.67831 350.924 7.61563C352.325 7.58077 353.947 7.50397 355.127 7.29521C355.773 7.18046 355.865 7.03746 355.515 6.88475C355.202 6.84945 354.98 6.76956 354.501 6.80752L354.519 6.81193C353.892 6.85651 353.762 6.6963 353.247 6.69983L353.228 6.70424C352.647 6.71395 352.002 6.79031 351.569 6.64731C351.558 6.64662 351.547 6.64589 351.537 6.6451L351.549 6.64378C351.274 6.54668 351.089 6.43502 350.702 6.3516C349.411 6.07664 350.37 5.89171 351.347 5.7037C350.964 5.63529 350.437 5.65824 349.997 5.63176L349.986 5.6375L349.983 5.63087L349.997 5.63176L350.001 5.63043L349.983 5.63087L349.981 5.62734C349.981 5.5682 349.963 5.50862 349.944 5.45301C350.793 5.28971 350.793 5.122 349.944 4.95517C348.925 4.91059 348.64 4.74729 348.315 4.59237L348.339 4.58575C348.953 4.42113 348.607 4.2543 348.461 4.08703L348.413 4.01509L348.503 3.9789C348.748 3.90122 349.204 3.86768 349.575 3.81295C349.944 3.76087 350.904 3.79882 350.61 3.64568C350.333 3.50312 349.611 3.52033 348.984 3.5936L348.972 3.59624L348.967 3.5936C348.421 3.60066 348.125 3.52298 347.781 3.46428C348.884 3.37513 350.004 3.41926 351.144 3.43692C351.835 3.44953 352.527 3.42238 353.192 3.35659C353.283 3.30451 353.153 3.26655 352.97 3.22816C353.007 3.19329 353.301 3.13106 353.043 3.13106C352.461 3.13236 351.881 3.15306 351.311 3.19285C349.024 3.3535 348.986 3.34644 349.152 2.9042C349.208 2.74399 349.907 2.83094 350.202 2.76827C350.443 2.71972 351.016 2.68132 350.998 2.64292C350.96 2.55598 350.498 2.52111 350.019 2.52464C349.576 2.62924 349.058 2.55995 348.561 2.54583L348.544 2.54627C348.325 2.5039 348.067 2.49419 348.157 2.38915C348.415 2.10006 347.363 1.81407 347.861 1.51086C347.894 1.49011 347.509 1.44465 347.308 1.41023C347.031 1.50733 346.827 1.6159 346.44 1.69578C345.923 1.80745 344.782 1.76905 344.872 1.68254C345.112 1.45569 343.914 1.48658 343.692 1.36124L343.773 1.34712C344.21 1.28268 345.035 1.3096 344.982 1.10349C344.966 0.988738 346.22 1.18735 346.699 1.04479C345.39 0.967995 344.078 0.888109 342.75 0.811315C342.326 0.859863 342.309 0.934894 342.278 1.00948C341.542 0.933569 340.563 1.07215 339.846 0.988738L339.836 0.982118C339.909 0.88502 340.002 0.787041 340.077 0.689502C339.984 0.68244 339.892 0.675378 339.782 0.668317C338.878 0.692591 338.01 0.633892 337.124 0.609176C336.682 0.599025 336.405 0.609176 336.128 0.668317C335.371 0.699653 334.542 0.811315 334.119 0.57475C334.082 0.554007 333.528 0.567688 333.214 0.564157C333.208 0.562886 333.202 0.561708 333.196 0.560627C333.212 0.563717 333.225 0.56813 333.239 0.570778C333.218 0.568966 333.198 0.566756 333.178 0.564157C332.888 0.533263 332.616 0.486038 332.239 0.504134C332.133 0.497955 332.028 0.494424 331.922 0.487803C331.166 0.400857 330.392 0.31347 329.543 0.257859C328.75 0.469708 327.754 0.459558 326.666 0.362019C325.946 0.188126 324.894 0.295815 324.009 0.247267L323.369 0.302436L323.345 0.299346C322.958 0.118392 322.017 0.264921 321.463 0.188127C320.837 0.320532 320.505 0.184596 320.063 0.135606C319.379 0.181065 318.271 0.034977 318.069 0.295815C317.276 0.334213 317.091 0.198719 316.705 0.121923C316.446 0.0799952 316.17 0.0455694 315.801 0.0698442C315.026 0.0243855 314.27 -0.0519695 313.476 0.0521898H312.812V0.0561619C312.683 0.285666 311.467 0.305966 311.025 0.236674C309.254 -0.0382881 307.298 0.142667 305.896 0.243736C304.255 0.362019 303.941 0.264481 303.499 0.0314465C303.111 0.104711 303.92 0.324062 302.501 0.226523C301.414 0.153701 301.209 0.428663 300.564 0.543414H300.418L300.07 0.482949C298.393 0.203573 297.561 0.226965 295.694 0.550476C295.358 0.604762 294.925 0.647573 294.939 0.719514C294.777 0.657284 294.421 0.587109 294.753 0.494425C294.574 0.442345 294.331 0.431311 294.066 0.434842L293.793 0.442345L293.288 0.454702C292.785 0.462206 292.3 0.451613 291.858 0.386292C291.414 0.32009 291.084 0.355398 290.844 0.438813H290.825L290.849 0.441462L290.844 0.442345C290.16 0.51561 289.422 0.550476 288.685 0.505017C287.283 0.418071 286.065 0.494425 284.849 0.609176L284.841 0.613588L284.829 0.606087C284.11 0.672289 283.482 0.898261 282.578 0.630361C282.357 0.567688 281.824 0.665228 281.51 0.724369L281.536 0.727458H281.528C280.753 0.762766 280.052 0.675819 279.314 0.675819C278.134 0.637422 277.47 0.742023 277.174 0.94725C277.045 1.03773 277.156 1.13174 277.635 1.14586C279.996 1.20456 279.223 1.53204 279.258 1.79332L279.203 1.79685C277.747 1.69976 276.381 1.85246 274.961 1.86306L274.998 1.85908C275.349 1.6821 276.308 1.66754 277.379 1.55279C275.929 1.49673 274.67 1.65739 273.538 1.57574C273.773 1.53469 274.005 1.49409 274.297 1.46275C276.326 1.26061 276.436 1.18735 275.385 0.783068C274.334 0.870456 272.95 0.773358 272.102 0.985648C271.881 1.04126 271.622 0.985648 271.401 0.95034C269.796 0.713776 268.153 0.797192 266.511 0.932687C265.086 1.07215 265.006 1.23722 266.273 1.427C266.582 1.47334 266.605 1.55764 266.913 1.60354C266.856 1.66533 267.07 1.7258 267.085 1.78626H267.102L267.11 1.7867C267.096 1.78935 267.079 1.79112 267.067 1.79332C266.734 1.80038 266.42 1.80745 266.088 1.81098C265.843 1.83722 265.582 1.83996 265.333 1.81892C265.597 1.81495 265.861 1.81186 266.124 1.80745C265.257 1.7589 264.502 1.70593 265.572 1.52189L265.237 1.4932C265.281 1.48658 265.327 1.47996 265.369 1.4729C264.669 1.11805 264.132 1.03773 262.509 1.0342C261.089 1.06244 259.762 1.28842 258.231 1.11805C255.975 1.00021 253.918 1.23722 251.719 1.23987L251.663 1.2359C251.109 1.25355 250.537 1.26767 249.983 1.28533L250 1.29504C248.046 1.09025 246.46 1.40317 244.671 1.43803C244.469 1.44201 244.375 1.52498 243.915 1.48349C241.857 1.29106 239.766 1.33873 237.69 1.4782C237.625 1.4782 237.561 1.47687 237.497 1.47643C235.431 1.53557 233.382 1.63664 231.297 1.53557V1.5391C229.859 1.54263 228.457 1.6362 227.001 1.60133C226.247 1.62914 225.475 1.66092 224.721 1.68872C223.951 1.67063 223.197 1.57441 222.389 1.66445C221.67 1.67504 221.004 1.69622 220.304 1.59516C219.364 1.45922 218.829 1.66136 218.146 1.7408C217.557 1.81098 216.891 1.78317 216.246 1.78626C214.79 1.79332 213.313 1.74477 211.947 1.89439C210.915 2.00914 210.251 1.77964 209.219 1.79332C207.798 1.81407 206.488 1.98796 205.012 1.90101L204.949 1.89704C204.103 1.74257 203.136 1.77214 202.044 1.98531L202.113 1.99811C201.87 2.01576 201.613 2.02547 201.379 2.00914C199.203 1.85953 196.969 1.99899 194.756 1.95706C193.779 1.93632 192.802 2.07535 191.769 1.97472C191.362 1.97781 190.987 2.01753 190.601 2.04622C190.572 2.04441 190.544 2.04264 190.515 2.04092H189.885C189.517 2.0268 189.093 2.02636 188.798 1.99149C187.489 1.83525 186.972 1.87674 186.548 2.17288C186.501 2.2069 186.432 2.23684 186.347 2.26051C186.262 2.28419 186.162 2.301 186.056 2.3097C185.761 2.30352 185.46 2.29293 185.161 2.28234C185.094 2.2747 185.027 2.26616 184.962 2.25674C184.444 2.1795 184.227 2.19672 184.097 2.24924C183.979 2.24688 183.862 2.24349 183.745 2.23909C182.491 2.20775 181.217 2.12434 180.018 2.2947C179.631 2.35031 179.096 2.33265 178.617 2.29823C178.524 2.29823 178.431 2.29823 178.34 2.29117L178.31 2.28764C177.695 2.15611 177.695 2.03695 178.395 1.90454C178.856 1.81407 179.206 1.68872 178.544 1.5775C177.603 1.42082 176.568 1.48702 175.646 1.58412C175.001 1.65386 174.779 1.7792 175.259 1.90101C175.877 2.05902 175.67 2.2307 175.665 2.39886L175.436 2.40195C174.913 2.40195 174.468 2.36223 174.066 2.29602L174.078 2.2947C173.721 2.13714 173.132 2.07093 172.307 2.09609C172.198 2.1901 173.062 2.13802 172.897 2.23909C171.625 2.3993 170.408 2.17642 169.153 2.22541C169.154 2.22541 169.156 2.22541 169.157 2.22629L169.134 2.22541L169.093 2.22982C168.898 2.23247 168.703 2.23689 168.508 2.24306C167.642 2.28102 167.585 2.16935 167.622 2.06122C167.677 1.92882 168.157 1.92573 168.711 1.96722C169.061 1.99193 169.43 2.05107 169.651 1.94294C169.761 1.88733 169.578 1.8454 169.338 1.81407C168.102 1.64326 166.534 1.67151 165.17 1.57397C165.132 1.57397 165.041 1.57397 165.022 1.58412C164.191 1.90454 162.716 1.78626 161.258 1.73021C161.48 1.90807 162.199 1.87674 162.735 1.96766C160.663 1.92352 161.437 2.23865 160.972 2.39753C160.95 2.3993 160.93 2.4015 160.908 2.40283C159.622 2.70118 158.315 2.52244 157.011 2.40415C156.175 2.06828 157.995 2.03342 158.787 1.86659C157.606 1.71697 156.148 1.86659 155.005 1.73418C154.507 1.74124 153.807 1.68916 153.623 1.82157C153.42 1.97075 154.194 1.95 154.637 1.99899C155.695 2.11948 155.273 2.35605 155.656 2.5295L155.651 2.5317C154.475 2.4858 153.574 2.73737 152.373 2.67117L152.126 2.65352L152.269 2.616C152.893 2.42799 152.417 2.22276 152.348 2.0268C152.311 1.90498 151.796 1.94647 151.481 1.97428C150.597 2.04401 149.674 2.04048 148.734 2.04401C148.272 2.04401 147.608 2.00561 147.461 2.12389C147.331 2.22496 147.885 2.28057 148.29 2.3331C148.603 2.37105 148.954 2.40283 149.23 2.48316C147.276 2.46903 145.412 2.31544 143.457 2.31235C143.457 2.49463 142.941 2.58952 141.908 2.59702V2.59393L141.905 2.59482L141.908 2.59702H141.886L141.905 2.59482C141.242 2.00208 140.632 1.9681 138.182 2.37458C137.37 2.51052 136.265 2.45844 136.356 2.26689C136.486 2.01974 135.543 2.06828 135.082 2.07888C134.308 2.09256 133.811 2.24659 133.958 2.37193C134.106 2.48978 134.252 2.58025 133.626 2.62218C132.98 2.6672 132.297 2.62218 131.854 2.52111C131.485 2.43417 131.265 2.3225 130.988 2.22541C130.286 1.98487 129.382 1.97119 128.552 2.20113C128.276 2.27749 128.036 2.35693 127.576 2.39886C126.709 2.47565 125.916 2.4964 125.88 2.24924C125.88 2.14508 125.768 2.06828 125.196 2.03695C125.012 1.91867 124.605 1.85599 123.904 1.8529C123.277 1.8529 122.613 1.84893 122.151 1.73771H121.211C121.045 1.76199 120.86 1.78979 120.64 1.78626C118.557 1.73462 118.139 1.9937 117.934 2.29293C116.894 2.28102 115.77 2.19142 114.944 2.40724L114.866 2.40636L114.921 2.40989H114.607L114.584 2.41033C113.94 2.32957 113.089 2.30706 112.633 2.16935V2.16582L112.611 2.172C112.611 2.17024 112.615 2.16759 112.616 2.16582C113.28 1.97075 114.184 2.05107 115.069 2.08947C115.973 2.12787 116.915 2.17288 117.21 1.9222C113.779 1.85599 110.402 1.98134 107.008 2.04754C105.606 2.07535 104.185 2.08947 102.783 2.10668V2.11065C102.78 2.12959 102.768 2.14822 102.747 2.16582V2.16715C100.189 2.28764 97.5212 2.22894 94.9262 2.27042C93.0004 2.29999 91.0105 2.36222 89.0309 2.35251C89.5797 2.20643 89.9733 2.03254 91.1977 2.02371C91.5118 2.02371 91.826 1.94294 91.5683 1.85908C90.2771 1.66798 88.7091 1.84893 87.3628 1.74433C87.1423 1.96413 86.2551 2.11065 85.6473 2.28455C84.1716 2.2638 83.2497 1.95706 81.3868 2.05107C81.9766 1.85246 83.0664 1.90454 83.4895 1.77214C80.9816 1.55632 77.9558 1.79685 75.3928 2.40945L75.5287 2.41651C74.9748 2.62174 74.1132 2.61115 73.1593 2.53877C73.1913 2.36929 72.4028 2.1645 73.7491 2.05107C71.9233 1.89439 71.0386 1.93985 70.1898 2.23556C69.8757 2.34678 69.6359 2.4655 68.75 2.4377C67.9384 2.40989 67.6627 2.3331 67.4781 2.17288C67.1281 1.85953 66.4639 2.1795 65.9293 2.16935C64.8048 2.1592 64.9331 2.28411 65.1536 2.42004C65.1863 2.43523 65.2242 2.44901 65.2664 2.46109L65.2459 2.46197C64.7625 2.41121 64.192 2.39268 63.715 2.33663C63.2727 2.28411 63.0868 2.23512 63.2893 2.14155C63.2862 2.12835 63.2933 2.1151 63.3099 2.10315C63.1432 2.01929 62.7739 1.99193 62.3483 1.98178C61.7226 2.0268 61.0764 2.02327 60.4315 2.01267C59.8417 2.00561 59.325 2.01621 59.3621 2.16582C58.1813 2.44079 57.4979 2.46197 56.2068 2.22188C55.3952 2.06873 54.8221 2.11772 53.7541 2.15567C51.4667 2.23953 49.1422 2.44785 46.8728 2.38518C45.1586 2.33972 43.6277 2.33001 42.0225 2.41695C40.916 2.5423 39.4389 2.39224 38.2953 2.5701C38.9966 2.7056 39.8646 2.52464 40.4916 2.64646C40.1967 2.78195 39.312 2.72325 38.9056 2.82035C39.9185 2.9351 40.3621 2.93201 41.8007 2.80667C42.5199 2.74399 43.1302 2.64646 43.8123 2.86228C44.2175 2.99115 45.2137 2.86228 45.9522 2.86228C46.6625 2.86228 47.7472 2.73693 47.8267 3.01234L47.7754 3.02249C45.9317 3.00483 44.0688 2.99865 42.2238 3.04014L42.1007 3.04632C38.6504 3.01763 35.2169 3.16063 31.7487 3.09531C27.9663 3.05691 24.1468 3.1827 20.3838 3.04676C18.6144 2.98453 16.8797 2.88346 15.0539 2.90729L14.9629 2.90376H15.0731C13.3756 2.78239 11.6049 2.83138 9.90738 2.86625C8.65344 2.89405 7.74953 3.15136 7.76748 3.32216C7.82262 3.76087 6.45713 3.77808 4.83394 3.79176C3.59924 3.97625 2.91586 4.24856 1.8645 4.46438L1.87732 4.46703L1.84655 4.46791C-0.698498 4.80202 -0.589517 5.04917 2.0299 5.35547C3.08126 5.47728 4.64547 5.48479 5.10704 5.76593C4.44674 5.84846 3.60309 5.93232 3.91337 6.10445C4.28134 6.30967 4.43007 6.5811 6.12634 6.57448C6.42636 6.61112 6.72254 6.63407 7.03794 6.58773C7.05205 6.71572 7.66619 6.72719 8.17264 6.75897C8.79961 6.79737 9.48299 6.76912 10.0728 6.82164C10.8421 6.87681 11.4306 7.01804 12.3601 7.00966C13.1717 7.15221 14.1872 7.12441 15.1642 7.13544C16.2706 7.14206 17.4156 7.10764 18.5029 7.17693C18.3182 7.34376 17.49 7.278 17.1938 7.36495C18.7234 7.5075 19.2773 7.4691 20.5684 7.25328C21.3607 7.12088 22.5057 7.13544 23.5558 7.13544L23.543 7.13235C24.1122 7.12882 24.6648 7.14206 25.1803 7.19414L25.1828 7.19503C24.6251 7.35965 23.5135 7.28241 22.7455 7.35833C22.7487 7.38649 22.7607 7.41446 22.7814 7.44174C24.3122 7.44174 25.8264 7.43821 27.3573 7.44174C27.8727 7.44174 28.3907 7.39628 28.3535 7.60857C28.2984 7.81733 29.6075 7.76525 30.4563 7.7476C31.3409 7.59092 32.2269 7.7092 33.1129 7.7476C33.9424 7.76172 34.8643 7.69905 35.4541 7.88353C35.6387 7.94267 36.1182 7.94621 36.3028 7.8906C36.8926 7.71317 37.7978 7.75113 38.6274 7.75113C40.6378 7.75113 42.6866 7.77584 43.5892 7.31949C43.7303 7.25373 44.1829 7.25637 44.5598 7.25108L44.5855 7.25328L45.1958 7.26432V7.2599C45.6189 7.45145 47.5177 7.4691 46.9472 7.79659C46.8549 7.84514 47.4626 7.83101 47.7395 7.79659C49.714 7.55958 51.7437 7.58033 53.8271 7.73038C54.731 7.79659 55.635 7.76878 56.5196 7.69552C58.4018 7.53884 60.302 7.44527 62.3675 7.58077C63.347 7.64609 64.2907 7.63682 64.9343 7.4541L64.9869 7.44836H65.9588C66.3049 7.60195 66.0152 7.73965 65.6331 7.87338C65.5754 7.89413 65.0433 7.89457 65.4485 7.92899C66.3703 8.00932 65.9844 8.30194 67.2563 8.30856H71.1848C70.4283 8.26001 69.6539 8.21146 68.8615 8.1585C68.8615 8.14834 68.7885 8.13069 68.7872 8.11348C69.1564 7.57415 71.5361 7.76525 73.1772 7.68184L73.1939 7.67742L73.1965 7.68537C73.676 7.69905 74.1555 7.71626 74.635 7.72685C75.1325 7.73745 75.9261 7.80321 76.0364 7.68184C76.1467 7.54281 75.2799 7.58783 74.8017 7.57062L74.7914 7.5715L74.7825 7.57062C74.644 7.51854 74.7543 7.48764 74.9261 7.46248L75.1145 7.43821C76.4057 7.55296 77.9173 7.51809 79.1353 7.73745C79.9277 7.88 81.4419 7.74804 82.6228 7.73745C83.2677 7.73038 83.9139 7.69552 84.5588 7.73745C85.296 7.786 86.423 7.79306 85.4447 8.03315C85.2063 8.09273 85.4063 8.17924 85.664 8.23176C85.9781 8.29796 86.3858 8.26265 86.7179 8.23176C87.9898 8.10995 89.2822 7.99475 90.4246 7.83454C91.0695 7.74407 91.6978 7.63329 92.5824 7.62976V7.62225L92.5568 7.61828C92.5709 7.62005 92.5876 7.62049 92.6017 7.62225C93.1915 7.62225 93.7453 7.62225 94.2249 7.53178C95.0365 7.38172 95.5339 7.46955 95.866 7.62623L95.8827 7.6302L95.8699 7.6324C96.2673 7.79791 96.0275 7.90472 95.0365 7.93959C94.3544 7.96386 93.6517 8.00888 92.9684 7.99873C91.0708 7.97092 91.0516 8.17968 91.2554 8.4339H91.9196C93.0453 8.15188 94.8339 8.14526 96.4007 8.04772C96.8443 8.01991 96.8994 8.10333 97.1571 8.13466C98.0059 8.24941 98.8739 8.35401 99.9983 8.23926C100.33 8.20396 100.883 8.17306 101.013 8.2525C101.622 8.59058 102.711 8.34695 103.504 8.32268C104.408 8.29487 104.591 8.17262 104.572 7.98151C104.536 7.65403 106.104 7.79306 107.046 7.7551L107.055 7.74892C107.716 7.79438 108.375 7.85794 108.613 7.6505C108.741 7.53575 109.257 7.58077 109.644 7.57062V7.57415C109.649 7.57194 109.65 7.56973 109.654 7.56753L109.664 7.57062C110.122 7.68095 109.38 7.82969 110.002 7.93385L109.979 7.93959C111.38 8.11348 112.413 7.9184 113.52 7.81071H113.538L113.516 7.80806L113.556 7.80718L113.538 7.81071C114.017 7.86279 115.142 7.85264 114.111 8.04021C113.816 8.09273 113.87 8.15541 114.202 8.19733C114.534 8.23882 114.94 8.21455 115.051 8.15894C115.623 7.87691 117.043 8.13069 117.91 7.9846C119.201 7.76569 119.81 8.15894 120.511 8.14834C122.005 8.1276 122.781 8.18674 123.296 8.45155C123.39 8.50319 123.997 8.38888 124.219 8.32268C124.681 8.18674 125.271 8.11701 126.137 8.13069C127.853 8.10995 129.567 8.20749 131.32 8.13069C132.481 8.08214 132.797 8.30856 133.257 8.44405C133.756 8.59058 134.291 8.67444 135.065 8.54203C135.673 8.44096 136.116 8.29796 134.9 8.21808C134.352 8.18499 133.833 8.10871 133.385 7.9952H133.372C133.062 7.90913 132.712 7.81954 133.257 7.72685C134.051 7.59445 134.898 7.70611 135.747 7.70302C135.58 7.84514 134.843 7.77584 134.511 7.86985C135.593 8.08788 137.005 7.96916 138.255 8.00226C137.978 8.10333 137.37 8.10686 136.965 8.15232C136.966 8.23882 138.845 8.14526 137.445 8.36417C137.059 8.42375 137.445 8.48245 137.813 8.47892C138.495 8.47892 138.883 8.55262 139.363 8.62545C139.952 8.71283 140.618 8.79228 141.428 8.69871C140.913 8.5663 142.314 8.34342 140.82 8.25648C140.544 8.23882 140.322 8.17968 139.695 8.07552C141.354 8.06846 142.5 8.08876 143.477 8.25648L143.495 8.25295C143.617 8.25295 143.739 8.24986 143.877 8.24632L143.883 8.25295C144.693 8.2631 144.546 8.15894 144.491 8.06846C144.514 8.0646 144.538 8.06121 144.562 8.05831C145.224 8.05834 145.885 8.07812 146.538 8.11745C148.456 8.23926 149.029 8.2322 151.222 8.07243C151.098 7.96165 150.325 7.98328 150.121 7.89148C151.262 7.89148 152.071 7.82483 152.035 7.57459L152.08 7.56929C153.752 7.67301 153.984 7.78114 152.828 7.97842C153.824 8.0689 154.729 8.13864 155.854 8.15585C157.624 8.18718 159.451 8.24986 160.613 8.55615H163.49C163.527 8.46612 163.03 8.48686 162.9 8.43831C162.973 8.38226 162.163 8.37211 162.863 8.26398C163.418 8.17571 163.281 8.00049 163.5 7.85176C163.482 7.94135 163.65 8.00314 164.252 8.00535L164.246 8.01285C164.321 8.15894 164.873 8.20484 165.52 8.23617C166.607 8.23617 167.402 8.15938 167.715 7.94665C167.992 7.801 168.286 7.90163 168.563 7.94665C168.913 8.05831 169.301 8.16291 170.13 8.13113L170.151 8.12804C172.174 8.10686 174.216 8.08656 176.02 8.31429L176.015 8.31562C176.145 8.33327 176.255 8.35093 176.385 8.37167C177.895 8.44493 178.889 8.35093 179.332 8.06316L179.336 8.06537C181.918 8.01682 184.168 8.28119 186.658 8.33018C187.322 8.34386 187.931 8.36814 188.54 8.31253L188.558 8.30944L188.934 8.309C189.789 8.30149 190.473 8.24324 190.956 8.07552C191.251 7.97842 191.511 7.84955 192.192 7.80409L192.197 7.80144C192.413 7.82174 192.646 7.84558 192.863 7.86941L192.857 7.87382C192.838 7.91575 192.802 7.95768 192.783 7.99917H192.825C193.09 8.21234 194.024 8.29178 194.978 8.34342C195.753 8.38535 195.678 8.25692 195.881 8.15938C196.103 8.05125 196.656 8.0027 197.154 8.15232C197.541 8.2706 197.745 8.41713 198.409 8.50098C200.29 8.41007 202.357 8.52129 204.145 8.31915C204.515 8.27766 204.992 8.31959 205.361 8.36814C205.762 8.35534 206.215 8.37741 206.47 8.29487C205.99 8.08964 204.606 8.16997 204.016 8.0027C205.006 7.97887 205.978 7.95724 206.949 7.93297C206.957 7.93385 206.964 7.93561 206.973 7.9365H206.969C207.834 8.0998 207.541 8.403 208.942 8.50054C209.827 8.62589 211.174 8.55615 211.875 8.75432C212.742 8.72652 213.461 8.60867 214.421 8.61176C214.826 8.61176 214.697 8.55218 214.513 8.50716C214.512 8.50033 214.504 8.49385 214.49 8.48907L214.513 8.48642C215.491 8.25339 216.376 8.31297 217.187 8.52526C217.741 8.56719 218.276 8.62589 218.903 8.63295L218.83 8.61883C219.455 8.61883 220.065 8.61529 220.691 8.61176C221.908 8.50761 221.485 8.27413 221.835 8.10377C222.002 8.02344 221.872 7.8981 222.519 7.88044C223.071 7.86279 223.126 7.97445 223.384 8.03712C224.14 8.21808 226.079 8.20793 227.296 8.01991C227.351 8.00976 227.388 7.99564 227.443 7.98196C227.333 8.01285 227.26 8.04816 227.351 8.08611C227.789 8.20616 228.368 8.1938 228.946 8.17659C228.504 8.21631 228.041 8.2525 228.163 8.37873C228.384 8.61529 229.656 8.52482 230.358 8.61176C231.205 8.63295 232.055 8.74064 232.922 8.61883C232.867 8.60117 232.812 8.58043 232.721 8.57337C231.476 8.44979 230.902 8.2834 231.554 8.03183C231.588 8.02291 231.62 8.01317 231.65 8.0027C231.538 7.98196 231.445 7.95062 231.317 7.9365C229.528 7.74495 229.565 7.74495 231.354 7.51501C232.073 7.42453 232.241 7.19458 233.55 7.25726C235.098 7.33052 233.385 7.58827 234.305 7.69243C234.453 7.71008 234.508 7.7626 234.582 7.80056C235.099 8.05125 235.991 8.12186 237.258 8.01241C237.534 8.12054 238.123 8.11745 238.602 8.15938C239.488 8.23926 240.76 8.23926 240.613 8.53497C240.558 8.62589 241.222 8.63295 241.574 8.67488C241.666 8.67488 241.758 8.6815 241.831 8.68503C242.92 8.73358 243.528 8.66737 243.73 8.44449C243.915 8.22514 244.505 8.0027 243.067 7.85308C242.939 7.83896 242.92 7.79703 242.993 7.76922C243.123 7.72421 243.344 7.7348 243.566 7.74495C244.137 7.77629 244.396 7.87029 244.728 7.95018C245.427 8.10642 246.145 8.26972 247.447 8.21499C247.616 8.23485 247.824 8.24456 248.049 8.24986C249.45 8.22205 250.722 8.21896 251.294 8.54556C251.718 8.7861 253.176 8.7477 253.969 8.73402C255.334 8.7093 256.257 8.82405 257.308 8.92865C257.677 8.97411 257.953 8.9772 257.953 8.87304V8.8139C258.525 8.4414 258.285 8.38579 256.257 8.45553C255.685 8.47627 255.223 8.45862 254.891 8.36108C254.226 8.03227 253.873 7.95768 252.853 8.02697C252.85 7.97269 252.798 7.91708 252.789 7.8597C252.772 7.76613 252.708 7.64344 253.457 7.6505C253.341 7.77408 253.857 7.86235 254.319 7.89457C255.538 7.97136 256.312 8.15585 257.345 8.27766C258.562 8.48995 259.707 8.43081 261.016 8.20131C260.849 8.37167 260.426 8.52835 261.533 8.56675C261.92 8.60161 262.289 8.64707 262.694 8.67135C264.243 8.76535 264.316 8.74064 264.188 8.4414C264.133 8.31915 264.225 8.16644 265.11 8.12098C265.607 7.98416 265.224 7.94665 264.806 7.91134C265.052 7.91046 265.277 7.90207 265.406 7.87382C266.634 7.59136 267.293 7.78908 267.996 7.96386C266.19 8.06096 265.91 8.14305 266.458 8.37873C266.587 8.50761 267.323 8.59499 267.102 8.74417C266.863 8.84524 266.864 8.93572 267.454 8.99486V8.99442ZM335.93 1.24031C335.801 1.21678 335.681 1.18707 335.575 1.15204C335.718 1.15866 335.859 1.16528 335.998 1.17278C335.932 1.1922 335.912 1.21515 335.93 1.24031ZM297.887 1.68254C297.793 1.67002 297.694 1.66157 297.594 1.65739C297.43 1.65384 297.266 1.65075 297.102 1.64812C296.964 1.62384 296.843 1.59516 296.728 1.56559C297.048 1.54043 297.184 1.48923 297.299 1.43539C297.469 1.51968 297.778 1.59604 297.887 1.68254ZM281.428 1.67813C281.292 1.66674 281.153 1.66242 281.014 1.66533C281.189 1.61016 281.383 1.55058 281.675 1.49056C281.597 1.57 281.441 1.62517 281.428 1.67813ZM260.331 1.7739C259.642 1.6415 258.835 1.55411 257.953 1.49629C258.945 1.52573 259.915 1.61242 260.824 1.75272L260.812 1.75139C260.622 1.75139 260.452 1.75713 260.331 1.7739ZM293.357 1.52057L293.381 1.53292H293.372C293.367 1.52851 293.363 1.52454 293.357 1.52057ZM270.349 1.66092C270.203 1.60116 270.001 1.56099 269.778 1.54749C270.083 1.53425 270.376 1.55632 270.657 1.64282C270.552 1.64351 270.448 1.64961 270.349 1.66092ZM301.872 1.60001C301.959 1.58677 302.024 1.58986 301.906 1.60619C301.872 1.60884 301.834 1.61149 301.8 1.61502L301.872 1.60001ZM143.014 2.64028C142.64 2.6425 142.266 2.62841 141.903 2.59835C142.272 2.61733 142.642 2.63057 143.014 2.64028ZM319.196 6.82738C318.715 6.8393 318.186 6.79737 317.685 6.78766L317.7 6.77971C317.205 6.62083 317.519 6.5533 318.129 6.51799C318.202 6.67291 318.436 6.79737 319.196 6.82738ZM16.8066 6.68571C16.6591 6.68571 16.5117 6.67202 16.363 6.66805C16.5296 6.67202 16.6963 6.68615 16.8425 6.68262C17.2656 6.6707 17.4579 6.63627 17.3156 6.57051L17.3707 6.56742H21.2171C19.7592 6.64931 18.2838 6.68888 16.8066 6.68571ZM256.572 6.89755C256.58 6.89491 256.584 6.89138 256.59 6.88873L256.661 6.90197L256.572 6.89755ZM247.034 6.97832C247.007 6.95184 247.036 6.92448 247.068 6.89755C247.132 6.89844 247.195 6.89755 247.257 6.89579L247.237 6.90153C247.145 6.9258 247.218 6.9642 247.034 6.97832ZM243.18 6.97611C243.013 6.98639 242.842 6.98669 242.674 6.977C242.843 6.9792 243.011 6.9792 243.18 6.97611ZM264.405 7.3186C264.514 7.30074 264.607 7.27281 264.673 7.2379C264.738 7.203 264.775 7.16249 264.778 7.12088C264.539 7.04099 264.214 7.01054 263.874 6.99862C264.275 7.00304 264.654 7.02952 264.852 7.14868C264.852 7.22857 264.759 7.28815 264.405 7.3186ZM236.832 7.06527C236.868 7.1072 236.557 7.05159 236.779 7.06218C236.797 7.04316 236.795 7.02253 236.773 7.00392C236.835 7.00436 236.898 7.00392 236.959 7.00215C236.914 7.02237 236.871 7.04344 236.832 7.06527ZM348.692 8.03006C349.651 8.05081 350.59 7.92237 351.587 8.00226C353.892 7.93297 356.218 7.88044 358.468 7.7551V7.7476C358.435 7.74042 358.405 7.73246 358.376 7.72376C358.043 7.59136 359.61 7.51103 358.726 7.38569C357.932 7.27094 357.213 7.43424 356.456 7.46602C353.966 7.56664 351.623 7.84558 348.911 7.70302H348.745C347.879 7.72376 346.588 7.72376 346.605 7.90119C346.605 8.06449 347.953 8.01241 348.692 8.03006ZM262.939 7.79306C262.642 7.77217 262.354 7.73696 262.085 7.68846C261.506 7.58695 260.871 7.55164 260.184 7.55473C260.72 7.43291 261.402 7.38481 262.362 7.37863C262.606 7.37774 262.894 7.38216 263.186 7.38304C262.835 7.4157 262.565 7.4691 262.491 7.56708C262.415 7.67213 262.62 7.74009 262.939 7.79306ZM300.373 7.50618C300.215 7.47809 300.048 7.45576 299.877 7.43953C300.123 7.44704 300.393 7.4541 300.379 7.48014C300.374 7.48897 300.375 7.49735 300.373 7.50618ZM274.136 7.80277C274.857 7.68007 275.608 7.56311 276.415 7.46248C276.128 7.52459 275.833 7.5826 275.533 7.63638C275.152 7.70567 274.721 7.80409 274.136 7.80277ZM116.305 7.57238C116.381 7.55163 116.468 7.53564 116.561 7.52516C116.744 7.5 116.979 7.48676 117.226 7.47661L117.265 7.48014C117.43 7.49779 117.615 7.51103 117.78 7.52516L117.834 7.52825C117.565 7.52869 117.296 7.53089 117.023 7.53531C116.782 7.54193 116.542 7.55738 116.305 7.57238ZM319.748 7.49823L319.82 7.50132L319.837 7.50574L319.748 7.49823ZM333.547 7.62976V7.63285L333.696 7.61872L333.752 7.61916C333.669 7.62848 333.586 7.63687 333.502 7.64432L333.547 7.62976ZM334.566 7.77805C334.33 7.72465 334.014 7.67522 333.803 7.62005C333.889 7.62225 333.975 7.62446 334.061 7.62534C334.146 7.67654 334.508 7.72597 334.566 7.77805ZM95.8699 7.6324L95.866 7.62976V7.63285L95.8699 7.6324ZM191.368 7.66506C191.389 7.66153 191.409 7.65712 191.429 7.65271C191.435 7.65882 191.445 7.6644 191.457 7.66904L191.368 7.66506ZM189.573 7.72023C189.693 7.68272 189.868 7.67389 190.065 7.67433C189.877 7.68841 189.693 7.70897 189.516 7.73568C189.534 7.73038 189.556 7.72553 189.573 7.72023ZM124.469 7.74539C124.201 7.75056 123.932 7.74671 123.665 7.73392C123.479 7.72332 123.291 7.7145 123.104 7.70434C123.422 7.71317 123.738 7.722 124.053 7.73392C124.187 7.73921 124.327 7.74274 124.469 7.74539ZM301.339 7.78953C301.1 7.79703 300.766 7.77893 300.786 7.7476C300.789 7.73877 300.787 7.72906 300.788 7.72068C300.966 7.74936 301.187 7.77055 301.423 7.78864C301.395 7.78899 301.367 7.78899 301.339 7.78953ZM179.226 8.01241C178.401 7.90869 177.55 7.85529 176.685 7.92679C176.836 7.89015 176.942 7.85043 176.944 7.80321C177.491 7.8928 178.01 7.8906 178.533 7.78644C178.662 7.88353 179.105 7.93826 179.526 7.99564C179.342 7.99167 179.282 8.01329 179.332 8.06007L179.226 8.01241ZM202.199 7.84646L202.18 7.85661C201.926 7.8672 201.676 7.88221 201.425 7.89633C201.684 7.88089 201.941 7.86323 202.199 7.84646ZM212.326 8.24765C212.57 8.12098 213.051 8.00932 213.205 7.87691C213.677 7.92679 214.312 7.89633 214.882 7.98151C213.605 7.97534 212.75 8.0614 212.326 8.24765ZM294.798 7.94047C294.915 7.92281 295.036 7.91619 295.163 7.91531C295.04 7.92109 294.918 7.9295 294.798 7.94047ZM224.398 8.70886C224.952 8.82714 225.562 8.92115 226.042 8.69121C226.225 8.6047 226.596 8.57646 227.038 8.55571H227.02C226.523 8.38888 225.305 8.40565 224.788 8.22823C224.603 8.16203 223.808 8.16556 223.458 8.23176C222.961 8.32886 223.422 8.42022 223.717 8.50363C223.939 8.57337 224.122 8.64928 224.398 8.70886ZM235.8 8.86245C236.298 8.80993 236.408 8.69518 236.409 8.58749C236.409 8.49701 236.15 8.44802 235.708 8.45155C235.321 8.45155 234.731 8.39947 234.639 8.52085C234.583 8.58705 234.436 8.6356 234.251 8.68459C234.564 8.70886 234.896 8.7296 235.209 8.75388C235.504 8.77153 235.358 8.90747 235.8 8.86245Z" fill="#D89E52" fill-opacity="0.5"/>
</svg>
