<svg width="609" height="11" viewBox="0 0 609 11" fill="none" xmlns="http://www.w3.org/2000/svg">
<path d="M155.297 10.2768C153.764 10.3126 153.294 10.1931 152.948 10.0343C152.731 9.92685 153.357 9.8038 152.544 9.71203C153.294 9.69185 153.766 9.62478 154.299 9.56477C154.736 9.51737 155.267 9.4851 155.893 9.43719C155.08 9.37365 154.421 9.32625 153.764 9.27431C153.559 9.24657 153.422 9.21732 153.368 9.18757C151.556 9.30154 149.72 9.18404 147.911 9.18001C147.517 9.32776 146.273 9.37315 145.286 9.44929C142.502 9.42912 139.683 9.39382 136.899 9.42559C136.679 9.40542 136.49 9.38575 136.272 9.36205C135.864 9.30255 133.678 9.39735 135.241 9.16689C135.803 9.08369 135.178 9.07965 134.772 9.06755C133.823 9.04435 132.873 9.02469 131.922 9.00199L131.798 9.01208C131.472 9.09478 130.861 9.12403 130.239 9.15076C130.774 9.39786 128.666 9.4619 127.949 9.60058C126.572 9.85877 125.382 10.2451 121.909 10.2012V10.1971C122.596 10.058 123.225 9.92282 123.945 9.78767C125.413 9.50527 123.975 9.36205 122.348 9.2264C121.567 9.18707 120.282 9.25817 120.188 9.07158C120.001 8.76145 122.128 8.80078 123.475 8.72918C123.713 8.71742 123.956 8.71134 124.199 8.71102C123.407 8.63841 122.698 8.55469 122.381 8.41501C122.248 8.35399 121.965 8.32424 121.617 8.30911C121.872 8.37366 121.924 8.45182 121.783 8.54612C121.345 8.82499 120.062 8.9677 117.841 8.98787C117.061 8.97174 116.623 8.90416 116.091 8.83659C115.247 8.73321 114.244 8.77305 113.337 8.83659C112.243 8.91223 112.898 9.00805 113.178 9.09882C113.272 9.13109 113.024 9.179 112.961 9.22287C111.791 9.22287 110.594 9.2854 109.574 9.16437C109.764 9.23346 109.685 9.33583 109.487 9.4972C109.548 9.51687 109.581 9.54053 109.581 9.56477C108.767 9.61268 107.954 9.67622 107.108 9.71203C105.481 9.77556 104.043 9.79574 106.201 9.36205C103.26 9.62882 100.724 9.54107 98.5949 9.67975C98.1939 9.70604 97.7717 9.70968 97.3634 9.69038C96.9551 9.67108 96.5727 9.62939 96.2481 9.56881C97.6249 9.46946 99.6302 9.56881 100.661 9.34995C101.244 9.24203 101.586 9.08772 102.349 9.01107C102.094 9.03345 101.861 9.06759 101.664 9.11142C100.913 9.27834 99.2213 9.20724 97.9076 9.21077C97.1877 9.21077 96.4678 9.1553 96.3743 9.04435C96.3606 9.02985 96.361 9.01483 96.3752 9.00036C96.3895 8.98589 96.4174 8.97233 96.4569 8.96064C95.8283 8.99393 95.2498 9.03376 94.9039 9.10688C93.9339 9.30961 91.5262 9.14319 90.0255 9.28238C88.8357 9.46543 87.5829 9.5446 85.8625 9.37012C85.2361 9.30608 84.2964 9.28641 83.4504 9.28641C82.6696 9.28641 81.9518 9.26624 81.7952 9.14723C81.6691 9.04385 82.0128 8.95963 82.7022 8.9082C83.4591 8.8502 84.1965 8.78313 85.0186 8.74027C83.2438 8.81339 81.5538 8.94804 79.5702 8.88399C79.9747 9.00805 81.1993 9.09882 80.512 9.26674L77.2256 9.27834C75.7879 9.33381 76.0337 9.14723 75.4703 9.07562C74.6591 9.06755 73.8456 9.05948 73.6564 9.20673C73.5324 9.31364 73.1561 9.40139 72.2491 9.42963C71.3118 9.40946 70.8093 9.5325 70.0263 9.5446C68.556 9.56477 66.6181 9.63235 67.1814 9.28238C66.6486 9.179 65.896 9.21884 65.2087 9.23043C64.0516 9.25817 63.112 9.2148 62.7988 9.06755C62.4856 8.92837 63.4578 8.8845 64.1147 8.80129L64.2452 8.78515C61.968 8.87945 62.0375 9.14571 61.4199 9.37012C59.6994 9.59251 57.6049 9.62075 55.3516 9.56074H54.9557L54.9471 9.56477H54.9122V9.71606C52.2218 9.7559 49.5313 9.7796 47.1541 9.56074C46.7451 9.4972 45.7751 9.57637 45.2748 9.53553C43.872 9.60562 42.3865 9.49165 40.9901 9.55721C38.4562 9.60461 36.4204 9.28641 33.8235 9.40542C32.6337 9.32574 31.8834 9.26624 31.8203 9.03175C31.7268 8.70951 29.9128 8.86886 28.6296 8.96417C28.1924 9.03578 27.6595 9.08318 26.9092 9.07915C22.8724 8.72918 18.2375 8.77305 13.7004 8.70144C11.3231 8.6616 8.57172 8.57386 6.57074 8.33533C5.47455 8.20422 5.31793 8.04083 5.91168 7.86635C6.44238 7.826 6.81873 7.73473 7.63214 7.7781L7.60168 7.78314C8.66528 7.83407 8.88495 7.65102 9.75928 7.65505L9.79193 7.66009C10.7772 7.67119 11.8712 7.75843 12.6063 7.59504C12.6245 7.59426 12.6427 7.59342 12.6608 7.59252L12.639 7.59101C13.1066 7.48007 13.4198 7.35248 14.0767 7.25717C16.2668 6.943 14.64 6.73171 12.9826 6.51688C13.6329 6.43872 14.5269 6.46494 15.2729 6.43469L15.2903 6.44124L15.2968 6.43368L15.2729 6.43469L15.2664 6.43317L15.2968 6.43368L15.299 6.42964C15.299 6.36207 15.3295 6.29399 15.3621 6.23045C13.9222 6.04387 13.9222 5.85224 15.3621 5.66162C17.0912 5.61069 17.5741 5.4241 18.1265 5.2471L18.0852 5.23953C17.0434 5.05144 17.6306 4.86082 17.8785 4.66969L17.959 4.5875L17.8068 4.54614C17.3914 4.45739 16.6171 4.41906 15.9885 4.35653C15.3621 4.29703 13.733 4.3404 14.2333 4.16541C14.7031 4.00253 15.9276 4.02219 16.9912 4.1059L17.0108 4.10893L17.0195 4.1059C17.946 4.11397 18.4484 4.02522 19.0313 3.95815C17.1608 3.85628 15.2599 3.90671 13.3264 3.92688C12.1545 3.9413 10.9806 3.91028 9.85284 3.8351C9.69843 3.7756 9.91809 3.73223 10.2291 3.68836C10.166 3.64852 9.66797 3.57741 10.1051 3.57741C11.0921 3.5789 12.0762 3.60255 13.0436 3.64802C16.9238 3.83157 16.9868 3.82351 16.7062 3.31821C16.6105 3.13516 15.4252 3.2345 14.9249 3.16289C14.516 3.10742 13.5438 3.06355 13.5742 3.01968C13.6395 2.92033 14.4225 2.8805 15.236 2.88453C15.9863 3.00405 16.865 2.92487 17.7089 2.90874L17.7372 2.90924C18.1091 2.86083 18.5463 2.84973 18.394 2.72971C17.9568 2.39941 19.7404 2.07263 18.8964 1.72619C18.8399 1.70249 19.4924 1.65055 19.8339 1.61121C20.3036 1.72216 20.6495 1.84621 21.3063 1.93748C22.1829 2.06507 24.1187 2.0212 23.9664 1.92236C23.5597 1.66315 25.5911 1.69845 25.9673 1.55524L25.8304 1.5391C25.0887 1.46548 23.6902 1.49624 23.7794 1.26074C23.8076 1.12962 21.6805 1.35655 20.867 1.19367C23.0876 1.10592 25.3127 1.01464 27.566 0.9269C28.2859 0.982371 28.3142 1.0681 28.3664 1.15332C29.6149 1.06659 31.2766 1.22493 32.4924 1.12962L32.5098 1.12206C32.3858 1.01112 32.2271 0.899164 32.1009 0.787718C32.2575 0.77965 32.4141 0.771581 32.6011 0.763512C34.1345 0.791247 35.607 0.724178 37.1099 0.695939C37.8603 0.68434 38.3301 0.695938 38.7999 0.763512C40.0831 0.799316 41.4904 0.9269 42.2081 0.656604C42.2712 0.632903 43.2108 0.648536 43.7437 0.644501C43.7535 0.643048 43.7637 0.641703 43.7741 0.640468C43.7458 0.643997 43.7241 0.649039 43.7002 0.652065C43.7355 0.649995 43.7704 0.64747 43.8046 0.644501C44.2961 0.609201 44.7572 0.555243 45.3967 0.575919C45.5772 0.568859 45.7555 0.564824 45.9338 0.55726C47.2171 0.457916 48.5308 0.358068 49.9707 0.294528C51.3148 0.536584 53.0048 0.524986 54.8513 0.413539C56.0715 0.214851 57.8572 0.337896 59.358 0.282425L60.4432 0.345461L60.4846 0.34193C61.1415 0.135175 62.7379 0.302597 63.6775 0.214852C64.7389 0.366137 65.3022 0.210818 66.0526 0.154842C67.2119 0.206783 69.0911 0.0398655 69.4347 0.337896C70.7789 0.381769 71.0942 0.226954 71.749 0.13921C72.1883 0.0913029 72.6559 0.0519686 73.2823 0.0797043C74.5959 0.0277624 75.8792 -0.0594788 77.2256 0.0595322H78.3522V0.0640717C78.5719 0.326299 80.6338 0.349495 81.3842 0.270323C84.3878 -0.0438461 87.7068 0.16291 90.0842 0.278391C92.8682 0.413539 93.401 0.302094 94.1514 0.0358315C94.8082 0.119542 93.4358 0.370172 95.8435 0.258724C97.6879 0.175518 98.0359 0.489687 99.13 0.6208H99.3779L99.9673 0.551713C102.812 0.232501 104.224 0.259229 107.391 0.628868C107.96 0.690895 108.696 0.739811 108.672 0.82201C108.946 0.750906 109.55 0.670724 108.987 0.564825C109.292 0.50532 109.703 0.492712 110.153 0.496746L110.616 0.50532L111.473 0.51944C112.326 0.528012 113.148 0.515909 113.898 0.441275C114.651 0.365632 115.212 0.405974 115.619 0.501285H115.651L115.61 0.504311L115.619 0.50532C116.778 0.58903 118.031 0.628869 119.281 0.576928C121.659 0.477584 123.725 0.564825 125.789 0.695939L125.802 0.700981L125.822 0.692409C127.042 0.768051 128.107 1.02624 129.641 0.720143C130.015 0.648535 130.92 0.759982 131.453 0.827557L131.409 0.831086H131.422C132.736 0.871429 133.926 0.772085 135.178 0.772085C137.179 0.728212 138.306 0.847728 138.808 1.08222C139.026 1.1856 138.839 1.29301 138.025 1.30915C134.021 1.37622 135.333 1.75039 135.272 2.04893L135.365 2.05297C137.836 1.94202 140.153 2.11651 142.563 2.12861L142.499 2.12407C141.903 1.92185 140.277 1.90521 138.46 1.7741C140.92 1.71005 143.056 1.89361 144.977 1.80032C144.577 1.75342 144.183 1.70703 143.689 1.67122C140.246 1.44026 140.059 1.35655 141.843 0.894626C143.626 0.994474 145.973 0.883532 147.413 1.12609C147.787 1.18963 148.226 1.12609 148.6 1.08575C151.323 0.815454 154.112 0.910764 156.896 1.06558C159.314 1.22493 159.449 1.41353 157.3 1.63038C156.776 1.68333 156.737 1.77964 156.215 1.83209C156.311 1.90269 155.947 1.97178 155.923 2.04086H155.893L155.88 2.04137C155.904 2.04439 155.932 2.04641 155.954 2.04893C156.517 2.057 157.05 2.06507 157.613 2.0691C158.029 2.09908 158.472 2.10222 158.895 2.07818C158.447 2.07364 157.998 2.07011 157.553 2.06507C159.023 2.0096 160.304 1.94908 158.49 1.7388L159.058 1.70602C158.984 1.69845 158.905 1.69089 158.834 1.68282C160.021 1.27738 160.933 1.1856 163.686 1.18156C166.094 1.21384 168.345 1.47203 170.942 1.27738C174.77 1.14273 178.259 1.41353 181.989 1.41656L182.084 1.41202C183.024 1.43219 183.994 1.44833 184.934 1.4685L184.905 1.4796C188.22 1.24561 190.911 1.60314 193.945 1.64298C194.288 1.64752 194.447 1.74233 195.228 1.69492C198.719 1.47506 202.266 1.52952 205.788 1.68887C205.898 1.68887 206.007 1.68736 206.116 1.68686C209.62 1.75443 213.096 1.86991 216.632 1.75443V1.75846C219.072 1.7625 221.45 1.86941 223.92 1.82957C225.199 1.86134 226.509 1.89765 227.788 1.92942C229.095 1.90874 230.374 1.79881 231.744 1.90168C232.964 1.91378 234.093 1.93799 235.281 1.82251C236.875 1.66719 237.784 1.89815 238.941 1.98892C239.942 2.0691 241.07 2.03733 242.164 2.04086C244.635 2.04893 247.141 1.99346 249.457 2.16441C251.208 2.29553 252.335 2.0333 254.086 2.04893C256.495 2.07263 258.718 2.27132 261.222 2.17198L261.328 2.16744C262.764 1.99094 264.404 2.02473 266.257 2.2683L266.139 2.28292C266.553 2.30309 266.988 2.31418 267.386 2.29553C271.077 2.12457 274.865 2.28393 278.62 2.23602C280.277 2.21232 281.934 2.37117 283.687 2.25619C284.377 2.25972 285.014 2.30511 285.669 2.33789C285.717 2.33582 285.766 2.3338 285.814 2.33183H286.882C287.507 2.3157 288.226 2.31519 288.727 2.27536C290.947 2.09684 291.824 2.14424 292.544 2.48262C292.624 2.52148 292.74 2.55569 292.885 2.58274C293.03 2.60979 293.198 2.62899 293.379 2.63894C293.879 2.63188 294.39 2.61978 294.897 2.60768C295.011 2.59895 295.124 2.58919 295.234 2.57843C296.113 2.49018 296.481 2.50985 296.702 2.56986C296.901 2.56716 297.1 2.56329 297.298 2.55826C299.426 2.52245 301.587 2.42714 303.621 2.6218C304.278 2.68534 305.185 2.66517 305.998 2.62583C306.155 2.62583 306.314 2.62583 306.468 2.61776L306.518 2.61373C307.562 2.46345 307.562 2.3273 306.375 2.17601C305.592 2.07263 304.998 1.92942 306.122 1.80234C307.719 1.62332 309.474 1.69896 311.038 1.8099C312.132 1.88958 312.508 2.03279 311.695 2.17198C310.646 2.35251 310.997 2.54868 311.005 2.74081L311.395 2.74434C312.282 2.74434 313.037 2.69895 313.717 2.62331L313.698 2.6218C314.303 2.44177 315.303 2.36613 316.702 2.39487C316.886 2.50228 315.42 2.44278 315.701 2.55826C317.859 2.74131 319.923 2.48665 322.052 2.54262C322.05 2.54262 322.048 2.54263 322.046 2.54363L322.085 2.54262L322.154 2.54767C322.485 2.5507 322.816 2.55574 323.146 2.5628C324.616 2.60616 324.712 2.47858 324.649 2.35503C324.555 2.20375 323.742 2.20022 322.802 2.24762C322.209 2.27586 321.582 2.34343 321.208 2.21988C321.021 2.15634 321.332 2.10844 321.739 2.07263C323.836 1.87747 326.496 1.90975 328.81 1.7983C328.873 1.7983 329.027 1.7983 329.06 1.8099C330.469 2.17601 332.973 2.04086 335.446 1.97682C335.069 2.18005 333.849 2.14424 332.94 2.24812C336.455 2.1977 335.141 2.55775 335.931 2.7393C335.968 2.74131 336.003 2.74383 336.039 2.74535C338.221 3.08624 340.437 2.88201 342.649 2.74686C344.067 2.3631 340.981 2.32326 339.637 2.13264C341.64 1.96169 344.113 2.13264 346.053 1.98136C346.897 1.98943 348.085 1.92992 348.398 2.08121C348.741 2.25165 347.428 2.22795 346.677 2.28393C344.883 2.4216 345.599 2.69189 344.948 2.89008L344.957 2.8926C346.951 2.84015 348.48 3.12759 350.518 3.05195L350.936 3.03178L350.695 2.98892C349.635 2.77409 350.442 2.5396 350.56 2.3157C350.623 2.17652 351.497 2.22392 352.03 2.25569C353.531 2.33536 355.097 2.33133 356.691 2.33536C357.474 2.33536 358.601 2.29149 358.851 2.42664C359.071 2.54212 358.131 2.60566 357.444 2.66567C356.913 2.70904 356.317 2.74535 355.849 2.83713C359.164 2.82099 362.326 2.6455 365.643 2.64197C365.643 2.85024 366.518 2.95866 368.271 2.96723V2.9637L368.275 2.96471L368.271 2.96723H368.308L368.275 2.96471C369.4 2.28746 370.435 2.24863 374.591 2.71307C375.968 2.86839 377.843 2.80889 377.689 2.59003C377.469 2.30763 379.067 2.3631 379.85 2.3752C381.162 2.39084 382.006 2.56683 381.756 2.71005C381.506 2.84469 381.258 2.94807 382.319 2.99598C383.415 3.04741 384.575 2.99598 385.325 2.8805C385.951 2.78115 386.325 2.65357 386.795 2.54262C387.985 2.26779 389.518 2.25216 390.928 2.51489C391.395 2.60213 391.802 2.6929 392.583 2.74081C394.053 2.82855 395.4 2.85226 395.46 2.56986C395.46 2.45085 395.65 2.3631 396.62 2.3273C396.933 2.19215 397.622 2.12054 398.812 2.11701C399.876 2.11701 401.002 2.11247 401.785 1.98539H403.38C403.662 2.01313 403.976 2.0449 404.35 2.04086C407.882 1.98186 408.591 2.27788 408.939 2.61978C410.703 2.60617 412.61 2.5038 414.011 2.75039L414.144 2.74938L414.05 2.75342H414.583L414.622 2.75392C415.714 2.66164 417.158 2.63592 417.932 2.47858V2.47455L417.969 2.48161C417.969 2.47959 417.963 2.47656 417.961 2.47455C416.834 2.25165 415.301 2.34343 413.8 2.38731C412.267 2.43118 410.668 2.48261 410.168 2.19618C415.988 2.12054 421.717 2.26376 427.474 2.3394C429.851 2.37117 432.264 2.38731 434.641 2.40697V2.41151C434.646 2.43315 434.667 2.45443 434.702 2.47455V2.47606C439.041 2.61373 443.567 2.54666 447.969 2.59406C451.236 2.62785 454.612 2.69895 457.97 2.68786C457.039 2.52094 456.371 2.32225 454.294 2.31217C453.761 2.31217 453.228 2.21988 453.666 2.12407C455.856 1.90571 458.516 2.11247 460.8 1.99296C461.174 2.24409 462.679 2.41151 463.71 2.6102C466.213 2.5865 467.777 2.23602 470.937 2.34343C469.937 2.11651 468.088 2.17601 467.37 2.02472C471.625 1.77813 476.757 2.05297 481.105 2.75291L480.875 2.76098C481.814 2.99547 483.276 2.98337 484.894 2.90067C484.84 2.70702 486.177 2.47303 483.894 2.34343C486.991 2.16441 488.492 2.21635 489.931 2.55422C490.464 2.6813 490.871 2.81696 492.374 2.78519C493.751 2.75342 494.218 2.66567 494.532 2.48262C495.125 2.12457 496.252 2.49018 497.159 2.47858C499.066 2.46698 498.849 2.60969 498.475 2.76501C498.419 2.78237 498.355 2.79812 498.283 2.81191L498.318 2.81292C499.138 2.75493 500.106 2.73375 500.915 2.6697C501.666 2.6097 501.981 2.55372 501.637 2.44681C501.643 2.43173 501.631 2.41659 501.602 2.40294C501.885 2.30713 502.512 2.27586 503.234 2.26426C504.295 2.3157 505.391 2.31166 506.485 2.29956C507.486 2.29149 508.362 2.3036 508.299 2.47455C510.302 2.78872 511.462 2.81292 513.652 2.53859C515.029 2.3636 516.001 2.41958 517.813 2.46295C521.693 2.55876 525.636 2.79678 529.486 2.72518C532.394 2.67323 534.991 2.66214 537.714 2.76148C539.591 2.9047 542.097 2.73324 544.037 2.93647C542.847 3.09129 541.375 2.88453 540.311 3.02371C540.811 3.17853 542.312 3.11146 543.001 3.2224C541.283 3.35351 540.531 3.34998 538.09 3.20677C536.87 3.13516 535.835 3.02371 534.678 3.27031C533.99 3.41756 532.3 3.27031 531.048 3.27031C529.843 3.27031 528.003 3.12709 527.868 3.44176L527.955 3.45336C531.082 3.43319 534.243 3.42613 537.373 3.47353L537.581 3.48059C543.434 3.44781 549.259 3.6112 555.142 3.53657C561.558 3.4927 568.038 3.63642 574.421 3.4811C577.423 3.40999 580.366 3.29451 583.463 3.32174L583.617 3.31771H583.43C586.31 3.17903 589.314 3.23501 592.193 3.27485C594.32 3.30661 595.854 3.60061 595.823 3.79577C595.73 4.29703 598.046 4.3167 600.8 4.33233C602.894 4.54312 604.054 4.85426 605.837 5.10086L605.815 5.10388L605.868 5.10489C610.185 5.48663 610 5.76903 605.557 6.119C603.773 6.25819 601.12 6.26676 600.337 6.58799C601.457 6.68229 602.888 6.7781 602.361 6.97477C601.737 7.20927 601.485 7.5194 598.607 7.51184C598.098 7.55369 597.596 7.57991 597.061 7.52696C597.037 7.67321 595.995 7.68632 595.136 7.72263C594.073 7.7665 592.913 7.73422 591.913 7.79423C590.608 7.85727 589.609 8.01864 588.033 8.00906C586.656 8.17194 584.933 8.14017 583.276 8.15278C581.399 8.16034 579.457 8.12101 577.612 8.20018C577.925 8.3908 579.33 8.31566 579.833 8.41501C577.238 8.57789 576.298 8.53402 574.108 8.28742C572.764 8.13614 570.822 8.15278 569.04 8.15278L569.062 8.14925C568.097 8.14522 567.159 8.16034 566.285 8.21985L566.28 8.22086C567.227 8.40896 569.112 8.32071 570.415 8.40744C570.41 8.43963 570.389 8.47158 570.354 8.50275C567.757 8.50275 565.189 8.49872 562.592 8.50275C561.717 8.50275 560.839 8.45081 560.902 8.69337C560.995 8.9319 558.774 8.87239 557.335 8.85222C555.834 8.6732 554.331 8.80835 552.828 8.85222C551.421 8.86836 549.857 8.79675 548.856 9.00754C548.543 9.07512 547.73 9.07915 547.417 9.01561C546.416 8.81289 544.881 8.85626 543.473 8.85626C540.063 8.85626 536.587 8.8845 535.056 8.36307C534.817 8.28793 534.049 8.29095 533.41 8.2849L533.366 8.28742L532.331 8.30003V8.29499C531.613 8.51385 528.392 8.53402 529.36 8.9082C529.516 8.96367 528.485 8.94753 528.016 8.9082C524.666 8.6374 521.223 8.6611 517.689 8.83255C516.155 8.9082 514.622 8.87643 513.121 8.79272C509.928 8.6137 506.705 8.50679 503.201 8.6616C501.539 8.73624 499.939 8.72565 498.847 8.51687L498.758 8.51032H497.109C496.522 8.68581 497.013 8.84314 497.661 8.99594C497.759 9.01964 498.662 9.02015 497.975 9.05948C496.411 9.15126 497.065 9.4856 494.908 9.49317H488.244C489.527 9.43769 490.841 9.38222 492.185 9.32171C492.185 9.31011 492.309 9.28994 492.311 9.27027C491.684 8.65404 487.648 8.87239 484.864 8.77708L484.835 8.77204L484.831 8.78112C484.018 8.79675 483.204 8.81642 482.391 8.82852C481.547 8.84062 480.201 8.91576 480.013 8.77708C479.826 8.61823 481.297 8.66967 482.108 8.65L482.125 8.65101L482.141 8.65C482.376 8.5905 482.188 8.5552 481.897 8.52645L481.577 8.49872C479.387 8.62983 476.823 8.58999 474.756 8.84062C473.412 9.00351 470.844 8.85273 468.84 8.84062C467.746 8.83255 466.65 8.79272 465.556 8.84062C464.306 8.89609 462.394 8.90416 464.053 9.17849C464.458 9.24657 464.119 9.34541 463.681 9.40542C463.149 9.48106 462.457 9.44072 461.894 9.40542C459.736 9.26624 457.544 9.13462 455.606 8.95157C454.512 8.84819 453.446 8.72161 451.945 8.71758V8.70901L451.989 8.70447C451.965 8.70648 451.936 8.70699 451.912 8.70901C450.912 8.70901 449.972 8.70901 449.159 8.60563C447.782 8.43417 446.938 8.53452 446.375 8.71354L446.347 8.71808L446.368 8.7206C445.694 8.90971 446.101 9.03175 447.782 9.07158C448.939 9.09932 450.131 9.15076 451.29 9.13916C454.509 9.10739 454.542 9.34592 454.196 9.63638H453.07C451.16 9.31415 448.126 9.30658 445.468 9.19513C444.715 9.16336 444.622 9.25867 444.185 9.29448C442.745 9.42559 441.272 9.54511 439.365 9.41399C438.802 9.37365 437.864 9.33835 437.645 9.42912C436.611 9.8154 434.763 9.53704 433.418 9.5093C431.885 9.47753 431.574 9.33785 431.607 9.11949C431.668 8.74531 429.008 8.90416 427.409 8.86079L427.394 8.85373C426.274 8.90568 425.156 8.97829 424.751 8.74128C424.534 8.61017 423.659 8.6616 423.002 8.65V8.65404C422.994 8.65152 422.992 8.649 422.985 8.64647L422.968 8.65C422.191 8.77607 423.45 8.94602 422.396 9.06503L422.435 9.07158C420.057 9.27027 418.304 9.04738 416.427 8.92433H416.397L416.434 8.92131L416.367 8.9203L416.397 8.92433C415.583 8.98384 413.676 8.97224 415.425 9.18656C415.925 9.24657 415.834 9.31818 415.27 9.36609C414.707 9.41349 414.018 9.38575 413.83 9.32221C412.86 8.99998 410.451 9.28994 408.98 9.12302C406.79 8.8729 405.757 9.32221 404.567 9.31011C402.033 9.28641 400.717 9.35398 399.843 9.65655C399.684 9.71556 398.653 9.58495 398.277 9.5093C397.494 9.35398 396.494 9.27431 395.023 9.28994C392.113 9.26624 389.205 9.37769 386.232 9.28994C384.261 9.23447 383.726 9.49317 382.945 9.64798C382.099 9.8154 381.192 9.91122 379.879 9.75993C378.848 9.64445 378.095 9.48106 380.159 9.38979C381.089 9.35198 381.968 9.26482 382.728 9.13512H382.75C383.276 9.03679 383.87 8.93442 382.945 8.82852C381.599 8.67724 380.161 8.80482 378.722 8.80129C379.004 8.96367 380.255 8.8845 380.818 8.99191C378.983 9.24102 376.588 9.10537 374.467 9.14319C374.937 9.25867 375.968 9.26271 376.655 9.31465C376.653 9.41349 373.467 9.30658 375.842 9.55671C376.497 9.62478 375.842 9.69185 375.218 9.68782C374.061 9.68782 373.402 9.77203 372.588 9.85524C371.588 9.95509 370.459 10.0459 369.084 9.93895C369.959 9.78767 367.581 9.533 370.115 9.43366C370.585 9.41349 370.961 9.34592 372.025 9.2269C369.21 9.21884 367.266 9.24203 365.609 9.43366L365.578 9.42963C365.371 9.42963 365.165 9.4261 364.93 9.42206L364.919 9.42963C363.547 9.44122 363.795 9.32221 363.888 9.21884C363.849 9.21443 363.809 9.21056 363.769 9.20724C362.645 9.20727 361.524 9.22988 360.417 9.27481C357.163 9.41399 356.191 9.40593 352.469 9.22337C352.68 9.0968 353.992 9.12151 354.338 9.01662C352.402 9.01662 351.03 8.94047 351.09 8.65454L351.014 8.64849C348.178 8.767 347.784 8.89055 349.746 9.11596C348.056 9.21934 346.521 9.29902 344.613 9.31868C341.61 9.35449 338.51 9.4261 336.54 9.77607H331.659C331.596 9.6732 332.44 9.6969 332.66 9.64143C332.536 9.57738 333.91 9.56578 332.723 9.44223C331.781 9.34138 332.014 9.14118 331.642 8.97123C331.672 9.0736 331.387 9.1442 330.367 9.14672L330.376 9.1553C330.25 9.32221 329.312 9.37466 328.216 9.41046C326.372 9.41046 325.023 9.32272 324.492 9.07965C324.023 8.91324 323.522 9.02822 323.053 9.07965C322.459 9.20724 321.802 9.32675 320.395 9.29044L320.36 9.28691C316.928 9.26271 313.463 9.23951 310.403 9.49972L310.411 9.50123C310.192 9.52141 310.005 9.54158 309.785 9.56528C307.223 9.64899 305.537 9.54158 304.785 9.21278L304.778 9.21531C300.398 9.15983 296.581 9.4619 292.357 9.51788C291.23 9.53351 290.197 9.56124 289.164 9.4977L289.133 9.49417L288.496 9.49367C287.045 9.4851 285.886 9.41853 285.066 9.2269C284.566 9.11596 284.124 8.96871 282.97 8.91677L282.961 8.91374C282.595 8.93694 282.2 8.96417 281.832 8.9914L281.841 8.99645C281.873 9.04435 281.934 9.09226 281.967 9.13966H281.895C281.447 9.38323 279.861 9.474 278.243 9.533C276.93 9.58091 277.056 9.43416 276.712 9.32272C276.336 9.19917 275.396 9.1437 274.552 9.31465C273.895 9.4498 273.55 9.61722 272.423 9.71303C269.232 9.60915 265.726 9.73623 262.692 9.50527C262.066 9.45787 261.257 9.50577 260.63 9.56124C259.949 9.54662 259.182 9.57183 258.749 9.47753C259.562 9.24304 261.911 9.33482 262.912 9.1437C261.233 9.11647 259.584 9.09176 257.935 9.06402C257.922 9.06503 257.911 9.06705 257.896 9.06806H257.903C256.435 9.25464 256.933 9.60108 254.555 9.71253C253.055 9.85575 250.769 9.77607 249.579 10.0025C248.109 9.97072 246.888 9.83608 245.262 9.83961C244.574 9.83961 244.792 9.77153 245.105 9.72009C245.106 9.71229 245.12 9.70488 245.144 9.69942L245.105 9.69639C243.445 9.43013 241.945 9.49821 240.568 9.74077C239.628 9.78868 238.721 9.85575 237.658 9.86381L237.782 9.84768C236.72 9.84768 235.687 9.84364 234.624 9.83961C232.56 9.7206 233.277 9.45383 232.684 9.25918C232.401 9.1674 232.62 9.02418 231.524 9.00401C230.587 8.98384 230.493 9.11142 230.056 9.18303C228.773 9.38979 225.484 9.37819 223.42 9.16336C223.327 9.15177 223.264 9.13563 223.17 9.12C223.357 9.1553 223.481 9.19564 223.327 9.23901C222.583 9.37617 221.602 9.36205 220.621 9.34239C221.371 9.38777 222.157 9.42912 221.95 9.57335C221.574 9.84364 219.416 9.74027 218.226 9.83961C216.789 9.86381 215.347 9.98686 213.876 9.84768C213.97 9.82751 214.063 9.8038 214.218 9.79574C216.33 9.65454 217.302 9.46442 216.197 9.17698C216.139 9.16679 216.085 9.15567 216.034 9.1437C216.223 9.12 216.382 9.08419 216.599 9.06806C219.634 8.8492 219.57 8.8492 216.536 8.58646C215.316 8.48309 215.031 8.22035 212.811 8.29196C210.185 8.37567 213.091 8.67018 211.53 8.78919C211.279 8.80936 211.186 8.86937 211.06 8.91274C210.183 9.19917 208.669 9.27985 206.52 9.15479C206.053 9.27834 205.052 9.27481 204.241 9.32272C202.738 9.41399 200.581 9.41399 200.829 9.75186C200.922 9.85575 199.795 9.86381 199.199 9.91172C199.043 9.91172 198.886 9.91929 198.762 9.92332C196.916 9.97879 195.885 9.90315 195.541 9.64849C195.228 9.39786 194.227 9.1437 196.666 8.97275C196.883 8.95661 196.916 8.9087 196.792 8.87693C196.572 8.82549 196.196 8.8376 195.819 8.8492C194.852 8.885 194.412 8.99241 193.849 9.08369C192.664 9.2622 191.446 9.44879 189.236 9.38626C188.949 9.40895 188.596 9.42004 188.216 9.4261C185.838 9.39433 183.681 9.3908 182.711 9.76397C181.991 10.0388 179.518 9.99493 178.172 9.9793C175.857 9.95106 174.291 10.0822 172.508 10.2017C171.881 10.2536 171.414 10.2572 171.414 10.1381V10.0706C170.444 9.64496 170.851 9.58142 174.291 9.66109C175.261 9.68479 176.044 9.66462 176.608 9.55318C177.737 9.17748 178.335 9.09226 180.066 9.17143C180.07 9.10941 180.16 9.04587 180.175 8.98031C180.203 8.8734 180.312 8.73321 179.042 8.74128C179.237 8.88248 178.363 8.98334 177.578 9.02015C175.512 9.10789 174.198 9.31868 172.445 9.45787C170.381 9.70043 168.438 9.63285 166.218 9.37063C166.501 9.56528 167.218 9.7443 165.341 9.78817C164.684 9.82801 164.058 9.87995 163.371 9.90769C160.743 10.0151 160.619 9.98686 160.837 9.64496C160.93 9.50527 160.774 9.33079 159.273 9.27885C158.429 9.12252 159.079 9.07965 159.788 9.03931C159.371 9.0383 158.99 9.02872 158.771 8.99645C156.687 8.67371 155.569 8.89962 154.377 9.09932C157.442 9.21026 157.916 9.30406 156.987 9.57335C156.767 9.7206 155.519 9.82045 155.893 9.99089C156.3 10.1064 156.298 10.2098 155.297 10.2773V10.2768ZM39.1348 1.41706C39.3552 1.39019 39.5579 1.35623 39.7372 1.31621C39.4958 1.32377 39.2567 1.33134 39.0195 1.33991C39.1326 1.3621 39.1653 1.38832 39.1348 1.41706ZM103.671 1.92236C103.831 1.90804 103.997 1.89839 104.167 1.89361C104.446 1.88957 104.724 1.88603 105.002 1.88302C105.237 1.85529 105.442 1.82251 105.638 1.78872C105.094 1.75998 104.863 1.70148 104.668 1.63996C104.38 1.73628 103.856 1.82352 103.671 1.92236ZM131.592 1.91731C131.822 1.9043 132.058 1.89937 132.294 1.90269C131.996 1.83965 131.668 1.77158 131.172 1.70299C131.305 1.79376 131.57 1.8568 131.592 1.91731ZM167.379 2.02674C168.549 1.87546 169.917 1.77561 171.414 1.70955C169.731 1.74319 168.085 1.84223 166.544 2.00254L166.564 2.00102C166.885 2.00102 167.175 2.00758 167.379 2.02674ZM111.356 1.73728L111.314 1.7514H111.33C111.338 1.74636 111.345 1.74182 111.356 1.73728ZM150.386 1.89765C150.633 1.82937 150.975 1.78347 151.354 1.76805C150.836 1.75292 150.34 1.77813 149.864 1.87697C150.041 1.87776 150.217 1.88473 150.386 1.89765ZM96.9115 1.82805C96.7636 1.81293 96.6526 1.81646 96.8527 1.83511C96.9114 1.83814 96.9745 1.84117 97.0333 1.8452L96.9115 1.82805ZM366.394 3.01665C367.029 3.01919 367.662 3.00309 368.279 2.96874C367.653 2.99043 367.024 3.00556 366.394 3.01665ZM67.5229 7.80079C68.3385 7.81441 69.2368 7.7665 70.0851 7.7554L70.0612 7.74633C70.9007 7.56479 70.3678 7.48763 69.3325 7.44729C69.2085 7.62429 68.8127 7.7665 67.5229 7.80079ZM580.49 7.63892C580.74 7.63892 580.99 7.62328 581.242 7.61874C580.959 7.62328 580.677 7.63942 580.429 7.63539C579.711 7.62177 579.385 7.58244 579.626 7.5073L579.533 7.50377H573.008C575.481 7.59733 577.984 7.64254 580.49 7.63892ZM173.756 7.88097C173.743 7.87795 173.737 7.87391 173.726 7.87089L173.606 7.88601L173.756 7.88097ZM189.936 7.97326C189.982 7.943 189.934 7.91173 189.88 7.88097C189.771 7.88198 189.664 7.88097 189.558 7.87895L189.592 7.88551C189.749 7.91325 189.625 7.95712 189.936 7.97326ZM196.474 7.97073C196.758 7.98248 197.049 7.98282 197.333 7.97174C197.046 7.97426 196.761 7.97426 196.474 7.97073ZM160.469 8.36206C160.284 8.34165 160.127 8.30973 160.015 8.26985C159.903 8.22997 159.841 8.18368 159.836 8.13614C160.241 8.04486 160.793 8.01007 161.37 7.99645C160.689 8.0015 160.047 8.03175 159.71 8.16791C159.71 8.25918 159.869 8.32726 160.469 8.36206ZM207.243 8.0726C207.182 8.12051 207.71 8.05697 207.334 8.06907C207.303 8.04733 207.306 8.02376 207.343 8.0025C207.238 8.00301 207.132 8.0025 207.027 8.00049C207.105 8.02359 207.177 8.04766 207.243 8.0726ZM17.4871 9.17496C15.8602 9.19866 14.2659 9.05192 12.5759 9.14319C8.66528 9.06402 4.71985 9.00401 0.90271 8.86079V8.85222C0.957642 8.84402 1.00995 8.83492 1.05933 8.82499C1.62262 8.67371 -1.03522 8.58193 0.465515 8.43871C1.81183 8.3076 3.03204 8.49418 4.31531 8.53049C8.53912 8.64547 12.515 8.96417 17.1151 8.80129H17.3957C18.866 8.82499 21.0562 8.82499 21.0258 9.02771C21.0258 9.2143 18.7399 9.15479 17.4871 9.17496ZM162.955 8.90416C163.46 8.8803 163.948 8.84007 164.404 8.78465C165.387 8.66866 166.464 8.62832 167.629 8.63185C166.72 8.49267 165.563 8.4377 163.934 8.43064C163.521 8.42963 163.031 8.43467 162.538 8.43568C163.131 8.473 163.59 8.53402 163.717 8.64597C163.845 8.76599 163.497 8.84365 162.955 8.90416ZM99.454 8.57638C99.7224 8.54429 100.005 8.51877 100.296 8.50023C99.8782 8.5088 99.4192 8.51687 99.4431 8.54663C99.4518 8.55671 99.4497 8.56629 99.454 8.57638ZM143.961 8.91526C142.739 8.77507 141.464 8.64143 140.096 8.52645C140.583 8.59742 141.082 8.6637 141.592 8.72514C142.238 8.80431 142.969 8.91677 143.961 8.91526ZM411.703 8.65202C411.573 8.62831 411.426 8.61005 411.268 8.59806C410.957 8.56932 410.559 8.55419 410.139 8.54259L410.074 8.54663C409.794 8.5668 409.48 8.58193 409.2 8.59806L409.109 8.60159C409.565 8.6021 410.022 8.60462 410.485 8.60966C410.894 8.61723 411.301 8.63488 411.703 8.65202ZM66.5854 8.5673L66.4637 8.57083L66.4354 8.57587L66.5854 8.5673ZM43.1781 8.71758V8.72111L42.9258 8.70497L42.8301 8.70548C42.9701 8.71612 43.1116 8.72571 43.2543 8.73422L43.1781 8.71758ZM41.449 8.88702C41.8492 8.826 42.3865 8.76952 42.7432 8.70648C42.5974 8.70901 42.4517 8.71153 42.306 8.71254C42.1624 8.77103 41.5469 8.82751 41.449 8.88702ZM446.368 8.7206L446.375 8.71758V8.72111L446.368 8.7206ZM284.368 8.75792C284.331 8.75389 284.298 8.74884 284.264 8.7438C284.254 8.75078 284.238 8.75716 284.216 8.76246L284.368 8.75792ZM287.413 8.82096C287.209 8.77809 286.913 8.76801 286.578 8.76851C286.897 8.7846 287.209 8.80808 287.509 8.83861C287.478 8.83255 287.441 8.82701 287.413 8.82096ZM397.853 8.8497C398.308 8.8556 398.765 8.85121 399.217 8.83659C399.532 8.82449 399.852 8.8144 400.169 8.8028C399.63 8.81289 399.093 8.82297 398.56 8.83659C398.331 8.84264 398.094 8.84667 397.853 8.8497ZM97.8141 8.90013C98.2208 8.9087 98.7863 8.88803 98.7537 8.85222C98.7472 8.84214 98.7515 8.83104 98.7493 8.82146C98.447 8.85424 98.0729 8.87844 97.6727 8.89912C97.7198 8.89951 97.767 8.89951 97.8141 8.90013ZM304.965 9.15479C306.364 9.03629 307.808 8.97527 309.276 9.05696C309.019 9.01511 308.839 8.96972 308.837 8.91576C307.908 9.01813 307.027 9.01561 306.14 8.8966C305.922 9.00754 305.17 9.07007 304.456 9.13563C304.767 9.13109 304.87 9.1558 304.785 9.20925L304.965 9.15479ZM265.994 8.96518L266.026 8.97678C266.457 8.98888 266.881 9.00603 267.307 9.02217C266.868 9.00452 266.431 8.98434 265.994 8.96518ZM248.815 9.42357C248.4 9.27885 247.584 9.15126 247.323 8.99998C246.523 9.05696 245.446 9.02217 244.479 9.11949C246.645 9.11243 248.096 9.21077 248.815 9.42357ZM108.911 9.07259C108.713 9.05242 108.506 9.04486 108.291 9.04385C108.5 9.05046 108.707 9.06006 108.911 9.07259ZM228.336 9.95055C227.396 10.0857 226.361 10.1931 225.547 9.93038C225.236 9.83154 224.608 9.79927 223.857 9.77556H223.888C224.732 9.58495 226.798 9.60411 227.674 9.40139C227.988 9.32574 229.336 9.32978 229.93 9.40542C230.774 9.51636 229.991 9.62075 229.491 9.71606C229.114 9.79574 228.803 9.88247 228.336 9.95055ZM208.993 10.126C208.15 10.066 207.963 9.93492 207.96 9.81187C207.96 9.7085 208.4 9.65252 209.15 9.65655C209.807 9.65655 210.807 9.59705 210.964 9.73573C211.058 9.81137 211.308 9.86684 211.621 9.92282C211.09 9.95055 210.527 9.97425 209.996 10.002C209.496 10.0222 209.744 10.1775 208.993 10.126Z" fill="#D89E52"/>
</svg>
